<mxfile host="65bd71144e">
    <diagram id="tbih650fwwrdJf51VRns" name="Page-1">
        <mxGraphModel dx="683" dy="1557" grid="1" gridSize="10" guides="1" tooltips="1" connect="1" arrows="1" fold="1" page="1" pageScale="1" pageWidth="827" pageHeight="1169" math="0" shadow="0">
            <root>
                <mxCell id="0"/>
                <mxCell id="1" parent="0"/>
                <mxCell id="4" value="" style="edgeStyle=none;html=1;" parent="1" source="2" target="3" edge="1">
                    <mxGeometry relative="1" as="geometry"/>
                </mxCell>
                <mxCell id="6" style="edgeStyle=none;html=1;entryX=0;entryY=0.5;entryDx=0;entryDy=0;fontColor=#000000;" parent="1" source="2" target="5" edge="1">
                    <mxGeometry relative="1" as="geometry"/>
                </mxCell>
                <mxCell id="2" value="" style="shape=image;verticalLabelPosition=bottom;labelBackgroundColor=#ffffff;verticalAlign=top;aspect=fixed;imageAspect=0;image=data:image/png,iVBORw0KGgoAAAANSUhEUgAAAhMAAAGQCAYAAAAUb+LPAAAAAXNSR0IArs4c6QAAAARnQU1BAACxjwv8YQUAAAAJcEhZcwAADsMAAA7DAcdvqGQAAB40SURBVHhe7d17dGVXfR/wn2Ykjd+WPDO2x54JjPFDBkLMWjyGVXACTiiroUGF0iYUsHDa2KEQJ6RkydDFSvkDay0CCXUe0BBHDo2TPkKUAu0ixU4CNAzkYZI4IIPDGI+MbfzQDLbjsaTx7dnnniNdafS4V/vOy/p8vPbc89z36Foz+3v33vfcnvPOv7QRlUajudjf3xdnnXl6bDllS5xySn9s3ry52PrDce17nhfbyiMKh/bHbR/+ZOxNyy/5F/HzV+2KLY/8fXzgv9xW7o64Kq5911nx1Q//YXy5WPvRn/qZGHr8C/GhW+8olq+Nga9+LH73K80jX/qma+Pl8ZVy3yKp3pdHfLGoY1vrOT/65njPhfdXz1U8zw3Pi63lCYWn0nX9YURR5xUHPxYf+0yxraWedC2LVD/zxvbC+InrXx7Piqm4/SN/WPyfaG778Z/5J+W2P/nPE4u3bZqKz//KRHyp3LZ+hw/PFL9b/dXa2s669MXRd+ZgtRYx9+Rj0Zibq9Yinp55Mp565Dtx+QUH47U/2Ftuu/f+RvzXT82Uy8t7dXz/9ZfEk5//tbi7+PU7/63viksGn4r7W9fjzvjC7/xx8eO/MV585Wmx/yO3xAPluS+Ki6+7Mk79hw/H3/3fYrV1f7m8K2Lq8/EXf/CX5dHl/pdGfP2j/yMeL1bPeMPVcf63bimfJ37k6njFcyO+WdbdrHfwofrcV8fFb3g07v6DWPn5itXaGW/49/HCnVviwNdajzs3psufafHP2/z5d8RDS+qo7b7yB+P0wXPi4W99K87ZvTum79kXT05PxwVXXBEHpqbi7B0XxKHHH4t9n/+z6oxjI/3uRM+maq1zP3D+U/GC82fiE189s1x/yxWPxd8+0B9/88CWcr1dvf/m8th1xv2x72MHyvVTr31hnL/1QDzwgeJ1ioHY+p7dcdYj++b3x2t3x+4XRLW/8JLzYscPnxYH0nrad+F0dWxx7rt2RP8T98f9aT0dV/wb9tCHH4yF3/j1Pf/W2BePfLpYLp/7nHjic1+P7527xnO/IuLhDz0Y8ebLY2d6vo9Wx713d8Tf3hGPfCpVfkqc9fOXR9836vUjbf9nxd+JwkP/e3/5mAz+0I7oHSx+X2//TsweXO3v6hKDl8Xwv3p1PG+wN+amJ+Mz//3/xJ3T1b52+fd/VXPFv69PHjoUhw7NxGOPPRYzM7PVnlY9zT/rMFEHiYGBs2LH+dvjx3/iX8bFF18Ul1z8nNi69ZxyHwBsHM2GsqkbwaOubz11dfta1vbww4/EN795d9x99z/Erb/33+L+7zwYj05XwXSRnug597xL5q8qhYhXXXVlXHftNXHBBTuqrQCwER2tMJF0Ul/rebVjEyhq9933nfjox34zbr/9z2Jq6v75Doja5tPP2PqLaSH1SLzmNVfF+//Te+PMM5tdfwCwMS3XgOeq68wNEsfeWWedGa965Q/Fvn37Yv+9U+XwR6ty0DHNkUi9Etf+1NvKjQBAt6UQ0W6QSCHixAgSrX76up+KHRecF/19fdWWpjJMpMmWaY6EoQ0ANq66Ae9WI97t+o6/Cy+8IN70E/86zjzrjGpLUxkmtmzpLydbAgBLHdv5CSd6+Lj44ufEKacs/uRTGSbSxvSpjVyf/exn481vfWu8e/S91RYAOBms1ICfiEHiWF/TYpdccnGcesopiy6jDBObezdnffxzeno63vnOd8aHfvmD8WO/8Dtx59/8dbUHADai9fQudDNIpLrq0l3btm2N3t7e4kqKa6kupwgT+QnnhhtuiFdce1P821/6XPz+nz4QAwMD1R4AOFGt1uCmtrHT9nG1+rphve1163V199rKQFEoeyZyXHfddfGqd3y0XP7ITePlY19fXzz88MPlMgCcLKampuKOO/66KHesWNIxncl/075WHS/4gSvi81/4QrV2ZGBI+37giiuqtS4HikYjL0w8+eSTsW/f3eXy+3/hZ+O8739NHP7qb5S33962bf7G26t6yUteEu9///urtcWuvvrqsrS67777yvtg3HnnnYvWl5b6vFR/6/bbb7991e1Jup60f6m0LT1fkuqvr+ETn/jEorpSqfe1Ss+R9i2Vnm/p+fXzJKmupfuXk/ta1urrrEvra5GOXVpPko5rfQ0BTmxHNqjpXfZDD303hoaG4gUveMGy5bnPfW5xzEPVGa1WaqC7ESTW9qu/elNcc801RWj4YrVlQQoS11zztrjpppuqLd2/pqwwcf3118dPfuhz5fK3v/Bb5eP0N/4kPvjBD5bL7UrHtzaeSVr/5Cc/Wa0tuOuuu+L1r3/9/L4LL7ywvGd4Kmn7l770pXL5lltuKfcnk5OT88e86lWvqrYubE+Pr3vd6xZdw9e//vUyJLTr13/91+efI9X3spe97Ijzv/jFL5bXuFyj+0d/9Efz56efIf0ytx6Xzqv3p7KSnNey1bvf/e7553rta1+7YkhJUsBI9bS+5gAnk7q7Punvb34n1XJly5bOvr+lfXm9BVe+4sq4+ebfLkPDQg/FQpBI+658xSuKLUcn3Kw7TKS7YP393zff0f7ky86MH7nxm+XyRRdd1HavRC01XEsb2LSeti+VGqwPfOADHQeW1aRAkhrDVqlxf/vb335Ew9yOVF8KFOn8Vp/+9KfLn2mtRvf5z39+GShGR0erLe07Gq/l0tdmqRRGUv0pgK3n9QI4NlKDXZcFrUEiab+5Xb6+plTLWjWtdn7nUlhoDRRHJ0gsf63NMLGOb077+Mc/Htd/7M+rtabHvvShOLTkFpvtSI3VQvdLU2qIlzZiqaFKDVZqrJdrNNcrvbOu622VAsV73vOeaq0zqa7LL798vnFN15re4aeg0E6jWx/XqaPxWqaw8fKXv7xaO1Lan643faKnW/9PAE5e3Wi0O7HQwLcGiqMXJI4MFOvumbj33nvLx7pXovH00zF731/ErbfeWm7vxODgYNnw1mP3qUFKwwZLpe2pwUpS49hut3oaMqjH/1sb8Xp7agy/8pXq+9Bb1EMi620g08+UPjabpGutG/R2G93WMJLe/dc/w3JzFmrdei3Ta1I/XwobrcNDrVI9da9HOmZpkAE2rvrfkLXKsZJ6IJb7b6n2+gmOPKpZ19EIEqvV2d7VdteR17PuMJHGjlod+H+/HK985Stj06b1VZkapLq7PXXvL9d4pYaq3t7uO/ykdc5Ea+9DvT011CvVk4YB0nyK9UjXlxr3uhcgXXPSbqNb9xwkqcGvf4a1QlQ3XstUR3quFESWm1NRaw1JdW9MHWSAja3+N2utciy008TnNMt1KGk/SrT7bCvVmM4/so7WoY3WIY/uSNey/PVkhYlr9izcm7v30a/G+973vmqtc3WDlt7ppgaptdFP6qGI1l6G+vhcqw1npOtIDWqaTJmuq111g5rOT9eYrrW+7vQzpPXVGt10Tt1Id6qbr+Vb3vKWcq7HcteawkcKGmmyaV1PWl8tfAAcO83Gtp0Gvr2mvW7AFx+9tHdj5edb/vyVtXPlC5bOkVg6h2Jtrde3tKxu0+zsoTj89Fy12r5vf/vb8aa3XVMuf2XsxXHjjTdGT8/aT7ia1O2eegHqbvNWqYFq/cREKmmSYje61dM79NUa99SgpnkH6Zh2pHpSA3vzzTeX6+ka60+Z1GW1d/ypUU+vQ+oVWa9uvpZjY2PzPR2t0nXWPRh1Sb09yx0LcHx03i7Nza3cJs7OzlZLR9tqQeLIn+nIyZZNC4EifWy0Wz0UhaK97+nZNF/W3TPxkY98JO78q78sl9/1rp+LF73oReVyjtRop3fS9XBAq9RALe2ur49b7R1+0voOfKWPOKYGMwWAlaTei9XCRAob9XOkelLDmq6vvralP1P6WVob3dTw1+enoYl0fmuPQgoA9f5U1vqZu/la1mFr6UddU/hY2nuSrjltW66XA+BYas6IWPvdfWvTvH379vja17627M2q0s2s7rzz72Lb9m3zdS9Xf97b6qSzIJFuGpXeQC4NErU6ULzjHc15ckdDz+A5OxtDQxfHH3/2U9Wm9n3ve98rG4/U8AHAiaKdAYJOGv38+rrxbCvXkQJF+6MDy9W/1rmLz3n1P/3nMTnZvGllsu6eieTo3bwDADrVbBC7FyRy60tb63J0LR8k0pWvFByWljzZYaKeFwAAx19+w7hYt+tbSzvR5cSTFSaSN77xjdUSABwfzffgy89hWKqdeNBJfevVrHtp6abu9Do0rV5PdpgAgGNtPU3wak3reupb3eqNbx1S2n+uboWCHCu/gsIEAM94x6Yprhvb1Z9taW/HyoGivfqOnnRly13dkdcjTABwUmn/3Xx7ulFft6/pZCNMAHDSWG+jvdJ53QwBzRkWa/+31PHqd1hb+70iVZjoaz4AwAkoNcFrNfx109daWtV1tJbjbek1Llh5z4moCBOnxiVXvqZaBYCVnLgN3EpXdjSvuKf6b72a565UTi6brrp2NF68/eFqFQA42nJCyImo53/+1n9s/K9PfDFe99Fbq00AACv7pWvetPh22v/u3ePxzZlqDQCgQz7NAQBkESYAgCzCBACQRZgAALIIEwBAlp7Bc3Y2hoYujv9wc/sfDb3q/NOqJQDgmeK2B/6xWlrdER8NrR4BANrTeDoaLWVTb+8psXlTb7UXAGB1Z5yxJc7dfsZ80TMBAHSs0Vj4qjRhAgDIIkwAAFmECQAgizABAGQRJgCALMIEAJBFmAAAsggTAEAWYQIAyCJMAABZhAkAIIswAQBkESYAgCzCBACQRZgAALIIEwBAliJMNKpFAIDO6ZkAALIIEwBAFmECAMgiTAAAWYQJACCLMAEAZBEmAIAsPdvPfU7jskt3x899/HeqTWu76vzTqqVnromJiWqJZ7qrr746Dh48WK0BbFy3PfCP1dLqPvrOq+Oee+6Jnp6ecl2YWEEKE6mRYWMQJgA6DxNJChSGOQCALMIEAJBFmAAAOrLt/B1x0dBz58txChMTMTKwJ8Ymq9Vck2Oxp5v1AQAreviB++Nbk1+bL8+Mnomh0dh7YG+MDlXrAMAxY5gDAMhy4oWJcshiIAaqMtJ6u4eWfXvGxlqGSlqHTarlsZH5OvbU4x8TxbY9Y2E0BAC65wQLE0UQKBr7ofEDceBAUfaOxuRIS0ho2TderK98W6nJ4pzhZh3jw0UGGVvlWAAgx4kVJiYnixgwHMPD1frQaIwOF9tSmEj7yvV612hx5EqGYrQ+sKisiBPNOobHy4BiagUAdEej0TBnAgDIc2KFiaGhGErDF/WYxORYjE1UPRVpX7le71rH0IU5EwDQdccxTEzG2J6FiZbNSZLDMV7Ok6i275mI4b3j1XBGsW98uMgDzX0jxfrKwxwAwLFy8n7RV/pkx57JGD1Qh43u8kVfG4sv+gJY3xd9JSftnImJsbGYLIdFAIDj6SQKE4uHRUYmmkMiwgQAHB+XXnppXHbZZSdTmBiK0b3V/SfKcnSGNwCA9t11110n7zDH0Wa+BAC05+SdgAkAdFWnEzDTMMc3vvENPRMAQB5hAgDIIkwAAOuWhjqECQBgXdJ8CXMmAIBsPs2xgnQ7bTaG9DFgt9MGWP/ttIWJFfhujo1FmADI/G6ORrkIANA5cyYAgCzCBACQ5fiEiYmR+W//HBgYifVPdZyIkYE9MTZZrQIAx9yxDxOTY7FnJGK8/vbPvUMx6YMTAHDSOg5hYjImh4ZiqFqNodEY9V3iAHDSOvZhYng4hifHYmS5sYnUa3HE8Ec1lDG2MDSyZ+m5Lee17psYqesqykjV/ZGGWPaMhZERAOiO4zBnYjjGD+yN4Yk9ZSNft/FlaNgzEcN7q+GP8SgCRN3kT8bY5HC1fbjIDmMt8yyKfWPVsMmSfcPjVV1FZcMTY+ZWAMBRcHwmYMZQjKbQsHc0JkeqQJGGP1Iw2LPQkzBZbGsqjq/HQlLPRjpyPhgU+8ZHm8MmS/fNT/RsmeQ5PF4+7/wwCwCQ5TiFicrQaIyPDrXcujr1WtS9CUUZz5hMsWii594ongYA6JJGY+GWl8c+TCwabpgsgsRkDA0VLX05KXOiZWgjU+tEz8mJKJ6myZwJAOiq4zABcygm66GMNLFyaDz2lt0GwzG+dzRirDmXoh7qWLfh0RiNamLmSAos1XYAoKvKL/q69NLd8S5f9LWIL/raWHzRF0BnX/S1b9++6OnpKdeP75wJAOCkJ0wAAFmECQCgI1vPOz92X3b5fBEmVmC+BAAs75EHH4h9d319vpiACQCUTMAEAI4LYQIAyCJMAABZhAkAoCObN2+O/v7++WIC5jqcffbZ1dLG9Pa3vz1uvPHGag2AZ4p2J2D+5s9eE/fee+/8BExhYh1SmJiamqrWNpbbbrstvvzlLwsTAM9A6/00hzCxDnWYOPPMM6stG0f6zhJhAuCZyUdDAYDjQpgAALJsikajeEgFAGBtjTI7LDzqmQAAsggTAEAWYaLrJmNsz0AMDFRlz1ixJdPEyEJdk2OxZ2BPjGVXCgDdIUx0U9XQT44eiAMHqjKePk5Z7V+XiRgZmYjh8aKuvaMxNDQaew/sjdGhajcAHGfCRNdMxtjIWAwVjf74cLUpKRr/0db1dRkqQkS1CADH2TnnnBO7du2K7/u+7ysfhYlumZyIicnhGF4tOJQ9FwtDICPzPRYTMZKGLsaq4Yyi7CnHMdL2keLP5tDJwrZ6mKO5PDKypzgnHVftm1h4nvQck2Npf2u9TRMjC9cyMH8xS+sEgMUeffTR2L9/f3lL7fQoTHTT0FCs3IFQNNJ7mj0X5fDH3tGYLBrshba9CAxFGGkOjQwXAWCsOGM4xg+MF38OxejeA7F32bGNyZgcGi/OS8c114tTi/Oa9aTAMBJpf2u9TeXQSdqezi0CSOu1LK4TAFYmTHTTZNEIV4tHKPe19FyUwx/FtvkTisBQj4cUBxXNfsu+1QwVh7eGjKKe8dFmqCnradm/tN56YucRPRBL6wSAlQkT3TJUNNRDE5mTLY+hNOQyUvVgmNAJQAZhomuaPQvlsEJroCga7bG0Xg6BtISNcntLT8WxlnpK6mGZcr5HuRUAOiZMdNPweDUXonViYzm6kHbGeOu+PRMxvPc4zkkYHo3RqCZqjkz6tAgA69azfftFjUsvS19B/olq09p8BbmvIPcV5ADPPO1+BflvvOOtcc8995TL6WvI9UwAAFmECQCgI729vdHf3z9fhAkAIIswAQB0ZG5uLmZmZubLpka1AwCgU41GQ88EAJCnZ9v2ixqX+WhoR9JHQ2+55ZZqbePx0VCAZ6b1fDQ0ESbW4YYbbqiWNi5hAuCZR5gAALKsN0yYMwEAZBEmAIAswgQA0BF3wAQAukqYAAA6csQdMKvtAADrIkwAAFmECQAgizABAGQRJgCALMIEAJBFmAAAsggTAEBH3AETAOgqYQIA6Ig7YAIAXSVMAABZhAkAIIswAQBkESYAgCzCBACQRZgAALIIEwBAFmECAOjI4OBg7Ny5M3bt2lUWYQIA6Mj09HRMTU3F/v37yyJMAABZhAkAIIswAQBkESYAgCzCBACQRZgAALIIEwBAFmECAOhIb29v9Pf3zxdhAgDIIkwAAB2Zm5uLmZmZ+SJMAABZhAkAIIswAQBkESYAgCzNMNEo/wQAaEujsRAe9EwAAFmECQAgizABAHRk8+bN7oAJAHSPMAEAdOTw4cPugAkAdI8wAQBkESYAgCzCBACQRZgAALIIEwBAFmECAMgiTAAAHXEHTACgq4QJAKAj7oAJAHRVESYa1SIAQPsajWaG0DMBAGQRJgCALMIEAJBFmAAAsggTAEAWYQIAyCJMAAAdGRwcjJ07d8auXbvKIkwAAB2Znp6Oqamp2L9/f1mECQAgizABAGQRJgCALMIEAJBFmAAAsggTAEAWYQIAyCJMAAAd2bx5c/T3988XYQIAyCJMAAAdOXz4cMzMzMwXYQIAyCJMAABZhAkAIIswAQBkESYAgCzCBACQRZgAALIIEwBAR9wBEwDomkajIUwAAJ1xB0wAoKuECQAgizABAGQRJgCALMIEAJBFmAAAsggTAEAWYQIA6Ei6A2ZfX587YAIA3SFMAAAdSXfAnJ2ddQdMAKA7hAkAIIswAQBkESYAgCzCBACQpQoTjeYDAECH9EwAAFmECQAgizABAHRkYGAgdu7cWZZdu3YJEwBAZw4cOBBTU1Nl2b9/vzABAOQRJgCALMIEAJBFmAAAsggTAEBHGo3FN7sUJgCALMIEAJBFmAAAOtLb2xt9fX3R399fFmECAMgiTAAAHZmbm4vZ2dmYmZkpizABAGQRJgCALMIEAJBlUyy+7wQAwJpab1ylZwIAyCJMAABZhAkAIIswAQB0JN0Bs777pTtgAgDZhAkAoCPpDpj13S/dARMAyCZMAABZhAkAIIswAQBkESYAgCzCBACQRZgAALIIEwBAR+o7YPb19bkDJgCQT5gAADpS3wFzdnbWHTABgHzCBACQRZgAALIIEwBAFmECAMgiTAAAWYQJACCLMAEAZBEmAICODA4Oxs6dO+eLMAEAdGR6ejqmpqbmizABAGQRJgCALMIEAJBFmAAAsggTAEAWYQIAyCJMAABZhAkAoCO9vb3R398ffX195aMwAQBkESYAgI7Mzc3FzMxMzM7Olo/CBACQRZgAALIIEwBAFmECAMgiTAAAWYQJACCLMAEAZNnUiEa1CACwNnfABAC6SpgAADpS3wGzLsIEAJBFmAAAsggTAEAWYQIAyCJMAABZhAkAYF16enrKR2ECAMgiTAAAHXEHTACgq4QJAKAj9R0wZ2dn3QETAMgnTAAAWYQJACCLMAEAZBEmAIB1aTQa5aMwAQBkESYAgCzCBACQRZgAADoyODgYO3funC+bBs/ZGqeefnq1GwBgddPT0zE1NTVf9EwAAFmECQAgizABAGQRJgCALMIEAJBFmAAAsggTAEAWYQIA6Ehvb2/09/fPF2ECAMgiTAAAHZmbm4uZmZn5IkwAAFmECQAgizABAGQRJgCALMIEAJBFmAAAsggTAEAWYQIA6Ig7YAIAXSVMAAAdcQdMAKCrNk0/+kg8+cQT1SoAQGf0TAAAWYQJACCLMAEAZBEmAIAswgQAkEWYAAA64g6YAEBXCRMAQEfcARMA6CphAgDIIkwAAFmECQAgizABAGQRJgCALMIEAJBFmAAAsggTAEBHBgcHY+fOnfNFmAAAOjI9PR1TU1PzRZgAALIIEwBAFmECAMgiTAAAWYQJACCLMAEAZBEmAIAswgQA0JHe3t7o7++fL8IEAJBFmAAAOjI3NxczMzPzRZgAALIIEwBAFmECAMgiTAAAWYQJACCLMAEAZBEmAIB16enpKR+FCQCgI/UdMPv6+twBEwDIJ0wAAB2p74A5OzvrDpgAwPo1Go3ycVNPNCdPAAB0op6A2bN127MbF1/8rPjpX/61OHPwnHIjAMByHj/waPz26Dvi3nvvXfg0R+qZOHToqfjut+8pNwAArOShe++Jp556qlprKudMPHVopggT+8oNAAAreXj/CmHi4Pcei72f+VRMf/eBciMAwFIHH3ow/uqPPxVPPPFEtaVpU5p/OTszFw8+8N3409//3WozAMBif/7JW+Ph7363/EhoPV8i2Xza6YO/mBaefPJQPHXwQDz6nak4f/dz4tTTzygPAAA2toMPPRCf/72b4+47/iKmp6dj8+bN5V0w02MqPdu27y4/JJo+K5pSxuDAWXHejnPjpT/6Y3Hes3bHuc96tk95AMAG88TB6XKyZZojccfnPhMHixDx+OOPl70SSWvPRDNMFHGi/KPS398XZ511RmzZ0h+nnrIlNhfpo0gb1d6NrfV1YokOX5qnn56N007rr9aOr/rGK3C0tP7De7QMbN0aBx55pFprz8DWbcU5D1dry0vvPJPDhw+Xjyvp9nHJ2WefHQcPHqzWltft503vuJN0l8e1DAwMHPPrO1avX1pPEy3THS5TiEi/w6mk9aW/z/M9E6khOLKhLDe2bF26/wR0gjUKJ8Er1kWd/bRzs4dicPC0am11Gns2mvWEjwufvTvuu6ezT+Zd+OyLinO+Va0tL32ZU1K/I11Jt49LduzYEffff3+1trzV6mt9HU/E62vV7nHpi7WS1Ki3Wu53Juf6WutLy+m49Lg0TKTltm6n3fmvNLX02rVbTn7L/VSrlJZfxrWkX9ajWWC534vjWdZnY/wuL/d6rVROJkfjmrtZ32p1FWGi2lk8FD9Gc3le2ljuqKSF5coJpLzeo1iOolR7J4Xuqf8SKxu3bFTt/OjtvkbrPa5eb7ecSNq5ntbrrpeXK7Xl9rWW2krbu2G1+o7cF/H/AatlqLrR3/DgAAAAAElFTkSuQmCC;" parent="1" vertex="1">
                    <mxGeometry x="100" y="60" width="265.5" height="200" as="geometry"/>
                </mxCell>
                <mxCell id="3" value="&lt;font color=&quot;#000000&quot;&gt;Login&lt;br&gt;Criar banco com os usuários e login&lt;br&gt;&lt;/font&gt;" style="whiteSpace=wrap;html=1;verticalAlign=top;labelBackgroundColor=#ffffff;strokeColor=default;fillColor=#050000;" parent="1" vertex="1">
                    <mxGeometry x="172.75" y="-30" width="120" height="60" as="geometry"/>
                </mxCell>
                <mxCell id="8" value="" style="edgeStyle=none;html=1;fontColor=#000000;" parent="1" source="5" target="7" edge="1">
                    <mxGeometry relative="1" as="geometry"/>
                </mxCell>
                <mxCell id="9" style="edgeStyle=none;html=1;exitX=0.25;exitY=1;exitDx=0;exitDy=0;fontColor=#050000;entryX=0.5;entryY=0;entryDx=0;entryDy=0;" parent="1" source="5" target="12" edge="1">
                    <mxGeometry relative="1" as="geometry">
                        <mxPoint x="380" y="390" as="targetPoint"/>
                    </mxGeometry>
                </mxCell>
                <mxCell id="11" value="Cadastrar Parto" style="edgeLabel;html=1;align=center;verticalAlign=middle;resizable=0;points=[];fontColor=#050000;" parent="9" vertex="1" connectable="0">
                    <mxGeometry x="0.5207" y="-4" relative="1" as="geometry">
                        <mxPoint x="73" y="-30" as="offset"/>
                    </mxGeometry>
                </mxCell>
                <mxCell id="10" value="Cadastrar Médico" style="edgeStyle=none;html=1;exitX=0.75;exitY=1;exitDx=0;exitDy=0;fontColor=#050000;entryX=0;entryY=0;entryDx=0;entryDy=0;" parent="1" source="5" edge="1" target="26">
                    <mxGeometry relative="1" as="geometry">
                        <mxPoint x="890" y="350" as="targetPoint"/>
                    </mxGeometry>
                </mxCell>
                <mxCell id="5" value="" style="shape=image;verticalLabelPosition=bottom;labelBackgroundColor=#ffffff;verticalAlign=top;aspect=fixed;imageAspect=0;image=data:image/png,iVBORw0KGgoAAAANSUhEUgAAAhIAAAGQCAYAAAD7rYnxAAAAAXNSR0IArs4c6QAAAARnQU1BAACxjwv8YQUAAAAJcEhZcwAADsMAAA7DAcdvqGQAACBHSURBVHhe7d1/kF1VgSfwk+5OJ0iAdBJIgIARSGjURWYKNW7hL9zRrV1niK7sru6okRlnlNFydHUqulVTs/4hqVLHsbBcrXUxaA07PyiNjjVbWML6azXiz1HQ5ocSSAMBEjqgQuh06L3nvnu7X79+7/W7573udNKfD3XJ/X3Pvd3vnu89977by9Zv2DIZMmde/odh5fpzQ5iMg5Ph6GP7w0lPHw7L+54Og33ZuPEnw+GD94dnn/VYuOLygbhIuPeBp8P1XzqS9zf3qnDxu7eEJ79xbbjrR9k23vzesGXNU+GB+uHws/CN628K4Xf/Y3jhS08O933ss+HBfNlLw+arXxZOuvsj4adfzQbrp+f9WVn3fT1878Yf5HPn07eGcPsn/yH8Jhtc9bq3hDN/9dl8O+GVbwkvfU4Id+brrq13zcPlsq8KF/yHA+HuG0O44O0vDc/45UeL7V0ZXvCSbHt/syvszwZLq173jvC7G1eEQz+vn299ePSbnwh3/yjb3z/fHJ7I++PccfjM8HDDOkrnveRl4Rlr1oSDv/plWPOs88Kje+8Jhx8dC2deckl47P7RcOqZZ4Wnfv3r8Ktvfr1YYmEcPZr9TJctK4aqe96Gp8LFG8bD539ySj78xkt+HX66fzD8y/4V+XCnBv7LReGcVQ+Gez59KB8+6U9/J2xYeyjs/9A94cmwOqz9wLPCqQfvmZoeXv2s8KyLQzE984L14cx/84xwKA7HaWePFfNmy77nzDD42wfDg3E4zndZCI/89UNhIi5XSNn+2nBPOPiVrD/f9prw26/9Ijx+RmfbDjO2V1t/+OmPa+sLK8Op77koLL+zHJ5t3b87J//3wD/vy/+Nhl52ZhgYWhHGbnkgTDw2XoztwNCF4Yorfy88Z2ggHB27I3zlH/9PuH2smNapyaeLHk4M6ecEjl8TExPhycOHw+HD4+HXWX00Pj67zp8ZJM6IJ6LJ8NTPvhqef+7j4fX/+XXhzLPPC2vWPSucdPKaOBsALCH1ASqvLrtUri9lXb0uy9wOHDgY7rrr7nD33b8MN/zvvw8PPvBQeHSsuHgq5EEiE8544e+HVec9N5y27Lfhhav2h3f+2faw8uQNxWwAsBTNV5CIqqyvfrnSwoSJ0v33PxA+9en/GW655RthdPTBELND1H/yyWv+Ku9bloWJZ54fLhteH9779u1hYHBVPhoAlqZmlXe3ynV2GyIW3qmnnhIuf/nLwj333BP23Tea3/KI+vL/Z448vDeEn381vP4Vv1OMAQB6KwaITkNEDBCLI0TUe/vb/iScedb6MLh8eT48FSROPeXkcOVr/304a8MZxRgAWGrKyrtXFXiv13fsnX32WeENr/9P4ZRTa3cupoLEihWD4YILziuGAIBpC/s8wmIPHhdccH5YubL2TbypIBFHbM4mdOumm24Kf/imN4X37fhvxRgAOB60qrwXY4hY6DLNtHnzBeGklSvzYkwFif6B/rB2bfpXPMfGxsI73/nO8NGPfTj8wV98Ltz2L/mLFABgiUppVehliIjrKrveWrdubRgYGMhKMlkGie6Tzfvf//7w4j+9NvzxR74W/u7r+8Pq1auLKQCwWLWrbGPdWLV+bLe+Xkitr+vL1duyZUGi+xDxtre9LVz+jk/l/R+/dlf+7/Lly8OBAwfyfgA4XoyOjoYf//hHWffjll2cp5ru69q51nHx8y4J3/zWt4qh2WEhTnveJZcUQ70LE1O3NlI9+eST4Z577s77P/gXfx7W/6t/G47+5H+E/v7+sG7dunz8XF7wgheED37wg8XQTG9+85vzrt79998fTjnllHDbbbfNGG7syuXi+uvH33LLLW3HR7E8cXqjOC5uL4rrL8vw+c9/fsa6YldOqxe3Eac1ittrXL7cThTX1Ti9mW6PZaksZ9nVH4s4b+N6ojhf/TEEWNxmV6axqf6RRx4Ow8PD4eKLL27aPfvZz87meaRYol6ryrkXIWJun/jEteGqq67KAsO3izHTYoi46qq3hGuvvbYY07sydR0k3vWud4U/+ujX8v57v/W/8n/H7vy/4cMf/nDe36k4f33FGcXhL3zhC8XQtDvuuCO89rWvnZp29tln5+8Aj10c/93vfjfvv/766/Pp0cjIyNQ8l19+eTF2enz894orrphRhl/84hd5QOjUJz/5yaltxPW96EUvmrX8t7/97byMzSrcL33pS1PLx32Iv8j188Xlyumxa6WbY1nvfe9739S2Xv3qV7cMKFEMF3E99ccc4HgSQ0RpcHAwvyBu1q1YUe3vBnWuu1aCl7z4JeG66z6bB4bplonpEBGnveTFL87G9DbYdBUk4tutbr+9diX7Ry86JfzeNXfl/eedd17HrRGlWGk1Vq5xOI5vFCurD33oQ5XDSjsxjMSKsF6s2K+++upZlXIn4vpimIjL1/vKV76S79NcFe5zn/vcPEzs2LGjGNO5+TiWjcemUQwicf0xfKUcL4CFESvrsptWHyKizqva5uuriWuZa03tlq8uBoX6MDE/IWJmWaeDRPHO7Co+85nPhHd9+jvFUM2vv/vRcLh4bWYVsaKabnKpiZVwYwUWK6lYWcWKulmFmSpeUZfrrRfDxAc+8IFiqJq4rosuumiqYo1ljVf2MSR0UuGW81U1H8cyBo3LLrusGJotTo/ljd/c6dXPBOD41YsKu4rpyr0+TMxfiJjeXlctEvfdd1/+b9kaMfn00+HI/d8PN9xwQz6+iqGhobzSLe/Vx8oo3ipoFMfHyiqKFWOnTenxNkF5v7++Ai/Hx4rw1ltvLcZOK2+DpFaOcZ/iV2OjWNayMu+0wq0PIvGqv9yHZs8olHp1LOMxKbcXg0b9LaF6cT1la0ecpzHEAEtXeQ6Zq1soseWh2X+NOmsfmD1XbV3zESLarbOz0vbWdHm6ChLxXlG9Q//vY+HlL3956OtLW22sjMom9tik36ziipVUOb7TK/uo/hmJ+laHcnyspFutJzb9x+cnUsTyxYq9vPqPZY46rXDLFoMoVvblPswVoHpxLOM64rZiCGn2DEWpPiCVrTBliAGWtvKcNVe3EDqp3rupkstA0nmM6HRrrdYYl5+9jvrbGfW3OXojlmVmeboOEldtnf4roQOP/iT85V/+ZTFUXVmZxSvcWBnVV/hRefuhvnWhnL9b7W5hxHLEyjQ+OBnL1amyMo3LxzLGspbljvsQh9tVuHGZsoKuqpfH8o1vfGP+bEezssbgEUNGfLC0XE8cbhc8ABZOraLtpHLvrFovK++Zcze2arTeXvPlW+uk5NMan4lofGZibvXla+ya6zty5HCI3dGnJ4pRnbv33nvDG95yVd5/687nh2uuuSYsW9Z6Y52ITe3x6r9sKq8XK6f6b0bELj6Q2Ium9Hhl3q5ij5VpfM4gztOJuJ5YuV533XX5cCxj+W2Ssmt3pR8r9HgcYmtIql4ey507d061cNSL5SxbLsoutvI0mxfg2KheL01MtK4Tjxw5UvTNt3YhYvY+zX6wsmY6TMSvhvaqZSKT1ffLlvV11yLx8Y9/PNz2wx/k/e95z7vDpZdemvd3I1bY8Qq6vAVQL1ZOjU305Xztruyj+ivvVl9jjJVlrPxbia0W7YJEDBrlNuJ6YqUay1eWrXGf4r7UV7ix0i+Xj7cj4vL1LQmx8i+nx26ufe7lsSyDVuPXWWPwaGw1iWWO45q1bgAspNoTEHNf1ddXy6effnr4+c9/3vRFVPFFVbfd9rOw7vR1U+tutv7uLqmjaiFicnIyv3hsDBGlMky84x215+J6adnQmo15aYeHLwhfvemf8pFVPP7443nFESs9AFgs5o4P1Sr87tfXi621XkcME53fFWi2/rmWnbnMK1/1+2Fk5O7uWiSi+XsxBwBUVasMexciul1fHFt286t5iIglbxUaGrs0PQkS5XMAAHDspVeKzfV6fXPpJLYsHl0HiejKK68s+gDg2Khdezd/ZqFRJ9GgyvpS1dbd2PVSd60NMzVfT0+CBAAstJTqt121mrK+9tpX4GVA6XxbvQoE3Zh9BAUJAJaEhamGy4q2/dYaWzlah4nO1jd/YsmalW66PIIEAMedzq/iO9OL9fW6TMcLQQKA40pqhd1quV4GgNoTFXP/1+hYtTfMbe7WEEECgONCrH7nqvTLaq++q1euo7471hrLOK31lMVEkACggsVbubUq2XyWeFnxX6rasq2644MgAQDHQDcBZDGZ8Yrs9153Qz4SAKCdj1z1ht68IhsAWLoECQAgmSABACQTJACAZIIEAJBMkAAAkiV//fMVG55R9AEAJ4qb9z9R9LU39fXPycmnQ+xC7AAAOlHkh74zTl8VYrdq1YpiCgBAezE3xPzgGQkAIMnk5KQgAQCkEyQAgGSCBACQTJAAAJIJEgBAMkECAEgmSAAAyfIgEb8HCgBQlRYJACCZIAEAJBMkAIBkggQAkEyQAACSCRIAQDJBAgBIJkgAAMkECQAgmSABACQTJACAZIIEAJBMkAAAkgkSAECyZVu2bJmMf0Z806ZN4W3XXl+MntsrNjyj6IMTx2mnnVb0Md+uvvrqcM011+T9jvviVf9zYmm4ef8TRV97n3rnm8PevXsFCagXK7TR0dFiiPly8803h+9973szgoTjvvg0/pxYGgQJ6EJZoZ1yyinFGObD7t27mwYJx31xafw5sTRUDRJ9MUQAAKTwsCUAkEyQAACS9Z03/OwQu3UbzixGAQC0F3NDzA99vxr5eYjdgf0PFpMAANqLuSHmh2Nza2P39rB69eqi2x52F6Ob2x22r94ado4Ug1WM7AxbU5edLzP2fXXY2ovC5fu5OmyPB3L3zi73N/V4j4SdW6f3a/XWndmYKrr4OS+YE2kfY1nq9mVRH/sT8LjnH9bZRnZubf6ziOeNlvtdt3+L8ZzHCW/hg0T8Rd8ewq5Dh8Kh2O0ZDiPtk0S64R1hz6E9YcdwMXysxZPB9pGwY0+x71nZtu3e2nWYiMdvR7a+bbvjCWokDC/0/hYnr5Ed5X5l3a5sd+fr5zrDAlUSJ+Q+Dk/9Lu7ZEcLO7Yuwgj5Bj/twtl+z17s77Gy6sawcO4fDnuyHNOdHe7Gd81gSjkGQGAkjWU039Xue/eLv2Fb0n9Cyq6qdu8O2XfUf8uxEviuewXdmp4p0wzt2hHgIt+2KJ9pdef/CyfYrq4CGs23vqt/wCfVzPfH3Mf8dyhLp7vkMBZWduMc9hv3djQc7S0e7t22b/fkdiYGvgxABx8jCB4n4QcnS+PZmyTu/+iibMFvc8mg5z8zmz1rLYcMVxYxly3miYr6d07cdZrQSdFCu3dun19u02TI/SWf73niWGM7GDWfhKt9cUY7d09ub2VrRbB/bbLvl/jaom29W68hc+95qv+p0Ur7G7TZfpnH/4/GKZSrG5/PVjuH27bGJuChvp8ehleNgH5uvq8mx6NDc64vTGsuV6fZY1zuBj3sMbsMzLiCy7WTl3NGYkOJ+bN1a7EvdulruX23b06Ma96sc3cOfE0veMXhGYlvYVTTpz/wFzj4AW7Mr9rLZf1e8UJ95Amg9T/ywbM3S/J6p5s8ZVzC5uGzt6iafJ0v4I9kHfcYHLjtp1da7LfuclR/yTspVtgbEble2by2eU6hviZmhDBJRPKEUt35q7c3FulrvY/Ntz7W/pZnz7cqGp88pne176/2q6aR8M7fbYpn47/CuYnzc//i7FFtgiib6qR96bPWK88VpnR6HOSzqfWy1/WjmfK3kv+95qK0Nz72+YtqMcvXoWNc7YY97DEhZucqCxdAUx83Y2bgfzT5/7fdvWqtzxjz8nFjSjs3DluWHM/8FLsJEvOWR/+IXKTkbOTJdu9a0mqe4ctnR7sZgvmzd1U3ePJqNm9pEVqbyaiCbKYsStWmtttlo6iHK5lcguXxdzWQny6miZ+XYVTRj1pex3T4223a+rXb7W4jz1TUVl7dJcvk6Otj3fL42WpWv1XajZsvESiUbP6vVZJbhbL+L45SXrYPjMJfFvI9Rs3XlGuabYfpnu3XncNiVfR6n5kxZX6+Odb0T8rjXbMvKFQNc3OLu7N+8laI2qSbf92bnuzn2r9TqnJGvt8c/J5a0YxQkCtkv8K7slzy+z70mXgUUKTl2U1cB9TqZp9fm2GZsJpx6gLTFg0751V72wZ55tik+7PVBol4HH+5Ott2VOfa91X6VUsrXapns92VPNm5XqJ28s/Pqwljs+5j8O1AE+ny5uivn5PX12Al73Atx/7L4sTtvyZgOBjMdi/MdVLPwQaKh+S8+cDQca9F4RZB9qJo2nZdazVOccDpZduqklJ0Edu7Olpvrc9lJufIrhDhf7M+20XTWWovH7u31Vy61JsZswvRJvDgmtd64rqKMrfax1bY73d84Xz6tNjh9SyfTyb5P7VfDybdcZ7vytdruHMdzeMeesCc7a4/MmbIyxT5U/rnPsMj3cY51VZa6vnyZbP6ujnW9E/24x/0bzh8ojQcpX0+94njOPt+12b96rc4ZxXp793NiqTsGD1tmH9KyqS4+FDS8K//g5sl7T3wmoHyQq9aUN1OrebIP5J5dYbhu/KxFi2XjrZR8nvzeY6v7l/U6KNe27GoiZFcn+bQ2X7/ctiu7oghh+vv7+eVMsf+leJIomkvz+5hlGVvsY8ttd7q/2XzZVU750Nj2bHh6ng72PYr7Vb+tfL5sdFxRu/K12m6rZaaakWtN8bUm23gCLJp/m5Wt2IfqP/cGi3kfW24/UcfrayxXj451vRP9uMd1ZBX+rNsPudrxnP35a7N/M7Q6L87Dz4klbdnmzZvzP//pz4gvBruzkJGFhz1tmkmzq4eteStG7cqJ3vLnrBeGPyN+fPBnxJemyn9GvBjmeJHfy82uMjppegWAeSZIHGdqzZll2y4AHFuCxKKyLcR3bLS7Y1F+b32XHAHAIiBIAADJBAkAIJkgAQAk8/VPqBO/hnj99Z1/DkjX+PVPx31x8vXPpafTr39+6UM7wuOPPy5IQL33v//9RR8LoaygHPfFTZBYWgQJACBZlRdSnXzyyZ6RAADS3H777YIEAJBOkAAAkgkSAEAyQQIASCZIAADJBAkAIJkgAQAkEyQAgGSCBACQTJAAAJLlQWJyMv9zGwAAHYv5QYsEAJBMkAAAkgkSAEAyQQIASCZIAADJ+p514UUhdmvXbyhGAQC0F3NDzA9999zxixC7gw/tLyYBALQXc0PMD25tAADJBAkAIJkgAQAkEyQAgMr6+/vD4OCgIAEApBMkAIDKjh49GsbHxwUJACCdIAEAJBMkAIBkggQAkKxvcnIy7yn/BQCYS5kbtEgAAMkECQAgWd+5554b3vrWt4Yrr7yyGAUA0N6aNWvCOeecE/re/e53h5GRkbB79+5iEgBAe48++mjYt29f6PviF78YvvWtb4UjR44UkwAAOtN36623Fr0AANX0HT58uOgFAKjGtzYAgGSCBACQTJAAAJIJEgBAZQMDA2FwcFCQAADSCRIAQGUTExNhfHxckAAA0gkSAEAyQQIASCZIAADJBAkAIJkgAQAkEyQAgMq8kAoA6JogAQBU5oVUAEDXBAkAIJkgAQAkEyQAgGR9K1euLHoBAKrpe/7zn1/0AgBU0/ea17wmXHbZZWH58uXFKACA9qZeSPWxj30sDA8PhyuuuKKYBADQmb59+/aFz3zmM+HGG28sRgEAtOeFVABA1wQJACCZIAEAJBMkAIBkggQAkEyQAACSCRIAQDJBAgCobGhoKGzcuFGQAACqGxsbC6Ojo4IEAJBOkAAAkgkSAEAyQQIASCZIAADJBAkAIFnfpi3DYdOWC8Pa9RuKUQAA7Q0MDITBwcHQt/fOkbD3zjvCwYf2F5MAADrj1gYAUNnExEQYHx8XJACAdIIEAJAsDxKTk5P5AABAFVokAIBkggQAkEyQAACSCRIAQGVTL6QqhgEAKhMkAIDKvJAKAOiaIAEAJBMkAIAk8YWWggQAkKzvTW96U9ELAFBN3+c+97miFwCgGrc2AIDK+vv7vZAKAOiOIAEAVHb06FEvpAIAuiNIAADJBAkAIJkgAQAkEyQAgGSCBACQTJAAAJIJEgBAZUNDQ+Gcc84RJACA6sbGxsK+ffsECQAgXd/k5GTRCwBQjRYJACCZIAEAJBMkAIBkfZu2DIdNWy4Ma89YX4wCAOhM3947R8LeO+8IBx9+qBgFANBef39/GBwcdGsDAEgnSAAAlR09ejSMj48LEgBAOkECAEgmSAAAyQQJACCZIAEAJBMkAIBkggQAUJkXUgEAXRMkAIDKvJAKAOiaIAEAJBMkAIBkggQAkEyQAACSCRIAQDJBAgCozAupAICuCRIAQGVeSAUAdE2QAACSCRIAQDJBAgBIJkgAAMkECQAgmSABACQTJACAylavXh02btwoSAAA1R06dCiMjo4KEgBAOkECAEgmSAAAyQQJACCZIAEAJBMkAIBkggQAUFl/f39Yvny5IAEApBMkAIDKjh49Go4cOTIdJCYnJ4s+AIDOaJEAAJIJEgBAMkECAEgmSAAAyQQJACCZIAEAVOaFVABA1wQJAKCyWS+kAgDoVPkiS0ECAEgmSAAAyQQJACCZIAEAJBMkAIBkggQAUNnAwIAXUgEA3REkAIDKJiYmpl9IVb5UAgCgUzE/aJEAAJIJEgBAMkECAEgmSAAAyQQJACCZIAEAJBMkAIDKhoaGwsaNGwUJAKC6sbGxMDo6KkgAAOkECQAgmSABACQTJACAZIIEAJBMkAAAkgkSAEBlAwMDYXBwUJAAANL1PXPzhSF2a89YX4wCAGhvYmIijI+Ph75777ojxO7gww8VkwAAOuPWBgCQTJAAAJIJEgBAMkECAEgmSAAAyQQJAKAyL6QCALomSAAAlU29kKoYBgCoTJAAAJIJEgBAMkECAEgmSAAAyQQJACCZIAEAVOaFVABA1wQJAKAyL6QCALomSAAAyQQJACCZIAEAJBMkAIBkggQAkEyQAACSCRIAQGVDQ0Nh48aNoW9ycrIYBQDQmbGxsTA6OqpFAgBIJ0gAAMkECQAgmSABACQTJACAZIIEAJBMkAAAKhsYGAiDg4Ohb9PmC8MzN28Ja89YX0wCAOhM39677gj33nVnOPjwQ8UoAID2JiYmwvj4uFsbAEA6QQIASCZIAADJBAkAIJkgAQAkEyQAgGSCBABQ2dQLqYphAIDKBAkAoDIvpAIAuiZIAADJBAkAIJkgAQAkEyQAgGSCBACQTJAAACrzQioAoGuCBABQmRdSAQBdEyQAgGSCBACQTJAAAJIJEgBAMkECAEgmSAAAyQQJAKCyoaGhsHHjRkECAKhubGwsjI6OChIAQDpBAgBIJkgAAMkECQAgmSABACQTJACAZIIEAFDZwMBAGBwcDH2bNl8Ynrl5S1h7xvpiEgBAZ/r23nVHuPeuO8PBhx8qRgEAtDcxMRHGx8fd2gAA0gkSAEAyQQIASCZIAADJBAkAIJkgAQAkEyQAgMqmXkhVDAMAVCZIAACVeSEVANA1QQIASCZIAADJBAkAIJkgAQAkEyQAgGSCBABQmRdSAQBdEyQAgMq8kAoA6JogAQAkEyQAgGSCBACQTJAAAJIJEgBAMkECAEgmSAAAlQ0NDYWNGzcKEgBAdWNjY2F0dFSQAADSCRIAQDJBAgBIJkgAAMkECQAgmSABACTr27T5wvDMzVvC2jPWF6MAANobGBgIg4ODoW/vXXeEe++6Mxx8+KFiEgBAZ9zaAAAqm5iYCOPj44IEAJBOkAAAkvUtW7as6AUAqGbZ+eefP5kJ5557bnjLzk+EVavXFJMAAGb7zaFHw2d3vCPcd99907c2nnrqqfDIfXuLIQCA5mJeiLkhmgoS8cnLA/sECQCgvZgXZgWJ3/zmN+GHX/2n8Ngj+4sxAAAzPfbIQ+EnN/9z3gCRv5AqjowPXB45ciQcePjh8O0b/zafEQCg0Xe+cEM4+Mgj+Xskov41a9b8Vd6Xic0Uhx8/FMYe2BfWbzo/rDx5VTEFAFjK4h2Lmz/36fCLW78TDhw4EI4ePRqefvrp2rc2inlC/PZGdNppp4W1p58eLn3VH4R152wKp5+7ybc5AGCJ+e1jY+Hhe+/Jn4n4wU1fzlsiHnvssXxa+fqIqSBRhohS/GMcq1atCitWrMjvgfT39xdTFr/GfaG61WvXhUMHDxRDnWlcpvydiam1lU7miU499dTw+OOPF0Oz9WJb8fem0/LEsF1+mJrptDzL+paHS152eegfWF6MDWF5X3Ysl/eHFf3e8XKiWUzv7alalvku+2I8NkezquSBJ2vN96W7f/L98NB9984ob6wvo27OP9FCn3+idvPE/Yq3L5544on8eYj4LGV5OyMqj0HTFokQXhXe9t//dVg98o/hmht+Nj3+lX8cPnDpaeGXX/5o+PvbQnjOlf81XLF5RQhP3Rtu+ujfhh/W5qo5/ZXhT956aVgXDoe7v/zX4R/y+d+TzX8ofO9D14WvLaHK/ngMNmdvOi/cv/dXxVBnGpdZvrxWOcbnb1rpZJ5ow4YN4cEHHyyGZuvVtqqUZ//+1g8md7qtvv6TwrY/e1dYngX20klZgDhzZX9YFRPFErCYKpDFpuqxqTL/fB/3xbT+vr5qn6Vy3eNPT4bbD43n/aVvf/Hvwh0//n6+znK+hT7/nHXWWeGBBx4ohmaKZerVtmIjQlTO03jMy+E5jm5tpvqF8/5yMOuPw8tWbgzPeen0iTA6/8UXhXVZ0jmazVy3dNEtLfkx6rCjtWbHq5fdsZB/IsqPRdHFsvT1NS/jidgtJs3K166Llcli6pqVsVVXVbN1HMuu2f636potn9rNp4XYxnyYESSmd2D2ztSG4/j4/5q8f9lj4bGx5eGczS8OK4vxIVwatp63Kjzx5FNhoGGB/EDlvUV/B91S0mz/23XzJWXV81icBdHs+M53Fz8My+LJbtl0lw9X7Jqt+3jpmu3Pseqala9dt9g0K2Orrtn+97Jrts12XWxqr9I1W8d8dLUKa7pbVoT8elPztlE/T9nf2JWaTeu067VW65weH8L/B+v+cpgLszE/AAAAAElFTkSuQmCC;" parent="1" vertex="1">
                    <mxGeometry x="440" y="60" width="265" height="200" as="geometry"/>
                </mxCell>
                <mxCell id="7" value="&lt;font color=&quot;#050000&quot;&gt;Tela inicial&lt;br&gt;Contem Inserção&lt;br&gt;Precisa da busca.&lt;br&gt;&lt;/font&gt;" style="whiteSpace=wrap;html=1;verticalAlign=top;labelBackgroundColor=#ffffff;fillColor=#050000;" parent="1" vertex="1">
                    <mxGeometry x="512.5" y="-30" width="120" height="60" as="geometry"/>
                </mxCell>
                <mxCell id="14" value="Caso a mãe não esteja cadastrada" style="edgeStyle=none;html=1;entryX=0.5;entryY=0;entryDx=0;entryDy=0;fontColor=#050000;" parent="1" source="12" target="13" edge="1">
                    <mxGeometry relative="1" as="geometry"/>
                </mxCell>
                <mxCell id="16" style="edgeStyle=orthogonalEdgeStyle;html=1;fontColor=#050000;entryX=0;entryY=0.5;entryDx=0;entryDy=0;" parent="1" source="12" edge="1" target="28">
                    <mxGeometry relative="1" as="geometry">
                        <mxPoint x="520" y="630" as="targetPoint"/>
                        <Array as="points">
                            <mxPoint x="440" y="484"/>
                            <mxPoint x="440" y="630"/>
                            <mxPoint x="570" y="630"/>
                        </Array>
                    </mxGeometry>
                </mxCell>
                <mxCell id="18" style="html=1;fontColor=#050000;dashed=1;entryX=0;entryY=0.5;entryDx=0;entryDy=0;" parent="1" source="12" target="19" edge="1">
                    <mxGeometry relative="1" as="geometry">
                        <mxPoint x="510" y="399.9999999999998" as="targetPoint"/>
                    </mxGeometry>
                </mxCell>
                <mxCell id="12" value="" style="shape=image;verticalLabelPosition=bottom;labelBackgroundColor=#ffffff;verticalAlign=top;aspect=fixed;imageAspect=0;image=data:image/png,iVBORw0KGgoAAAANSUhEUgAAAhIAAAGSCAYAAAC2ZSj6AAAAAXNSR0IArs4c6QAAAARnQU1BAACxjwv8YQUAAAAJcEhZcwAADsMAAA7DAcdvqGQAAC3tSURBVHhe7d0LlCRVnefxf2VVVwPd1VT1k5YCuptuSGgW0UEoR0DFRV1EyXVkd9QRUmYcsYX17absrEc9cyTPUXQURTm6mOjK6sC46WNnFkdQhB0LX6g0kDz7QfX7UdVdQHdX12Pv/0ZEZmRWZlbErayqrK7vpwky430zMivuL25ERrasOOmMsSV/dpmceMYFMmb+yZjprNLzYMjAfV+V+2/z+n7086Pyd18+Yp9Xl5G3/PzVMvDV/yC/vFvkrDsekD/b939k67o3yfoFuozN8otLr5bHP/5ted8bV3mzGAcf/qp89yPfN8/+q7zlvjfJyXbo87Lx1svlAbMceds/yDs3LJatDy+Vc162ULb1bZaTu0vz9/3LxfLjZ3Wal0uHP2zb/71Efvw5v0f+Ui7+4QZZv9DrG/zDrWZ93zPPMvLmey8vru9RXd8/2Z6ipTf/s7yt6365Xy6XV5/qDdt2z6u9ZX/sDrnuVfvl7tSHZK83Ss66/X552f5b5c6P6usp98rr3i9dp54mB7dvkxOWLpM/fO+7sm/Ts3LRhhtkbHRM5i/qkMHde6T3tq/6c0yPoaEXpaUl4ffF9x/PfkGuedmg/GHnfNv/0pOOyLcf7pD//dgC2x/Hon96q5y12nu+80cPibylW/pf/pAcNO/Sab8/Ww7/5qCsesXJMvibf5XH3jso82+7TM57RfCuD8rmm/9Vdn3XW07XIz+QLZ/S4R2y4heXyZInvHm8/h6Rb3jThsVb/yIz7EI5yZu8WKao6x64xJR96WPy0F9s0wlF3nmmnP2R9cXPcLC8Wtb83cvs47N//7B9VKe8f720n7JA+r60UY7seNEfOoHuK+Vzt7xXXjXyoHzmk71y0ac/Ipe2/lq++F8+LXf1+dNEMDY26j8DMF1azL+GiLwYb0IbJFZe+ldy3ApTM9rgMCYjB3bK8aOHZV5iVNoTZtjQITm8b5uc/ZIDcuWlbXbGLdtH5Y4fHrXPq3uDnPuhM+TQ/bfIU78XWXnNR+WMxUdke7hfHpH777hH5OX/SS589QLZ+sVvyQ477/mybsNr5PinPy9/+qnpDY+3z01Zn/uFPHT3b+3UdrzZHz966z+aCCCy8G3vlpXPfsuuR17/bnn1epEn7bK95S7eHcz7Bln7F3vlaRNQ1r7v1XLCMzf767tKLrjErO8fcrLT9AYWvu16eXn3fBl4LDzdCtn/y6/I0783r/eD6+RF+1yn1v6VsrtiGYE1l7xGTli8WPY9+4wsXr1G9m/eJIf398vK886TA9v6ZNHKl8iRwUF59pe/8OeYHiMj5j1tcf8wanA496Qh+c4fvCrwXecNyp92tssf/WARVds7z5JTFu6QTbcN2P7j3/syOWnJgOz87CY5JJ2y5MbVsmjfpuJ4uWK1rD7XVPh2vHHBCln570+QAe3XcSf3+9OaeT+8Utpf2CE7tF+nu0hkzxd2ybDO53NZ/xLZJPt+Yp7bdS+WF372uBxcHm3dUrY+b/nyp4e95clxsujDZ8m8J4P+8ZZefop93PvPz9lH1fWaldLWNV/679suwweG/KERdJ0pV151mazvapOR/ifkJ3f9izza74+LiiBxjGlQBYVZZXh4WA4dPiyHDw/JoKmPhoaq1fkmvhSDxHLdEY3JkUd+Kq849aC8/S/fJitPXiOLl66W4xcs9qYHAGDOCAeooG1+MoLluSyr0WWZ2N69++Spp56Wp59+Ru78X9+XHdt3yf5+/+AppGX5inVjyy98syxcc46c2PKCXLhwp9zw/rQctyBopAUAYC6aqiCh4iwvPF9gesJEYNu27fL1274h9913v/T17ZCx4mUQIq0LFi75lLSMyfLTTpeLkivko+9LS1u7fwEBAABzUrXKe7KCZU42REy/RYs65NLXvkY2bdokz23ts6c8AvaquqO7N4s89lN5++u8C7YAAECjaYCIGiI0QDRHiAh733V/KytfskLa583zh/hBYlHHArnqrW+Sl5y03A4EAGDuCSrvRlXgjV7ezDv55JfIO97+n6VjUenMhQ0S8+e3y9q1a+wAAAAQNr3XIzR78Fi79nQ57rjSN/FskNAB68yIybrnnnvkr66+Wj6W+W/+EAAAZoNalXczhojpLlO5devWyvHHHVcshg0SrW2tsmSJ+1c8+/v75YYbbpCbv/g5ecvHvy0b/2hvpAAAwBzl0qrQyBChywq6xlq6dIm0tbWZkpiymP9MkJh8svnEJz4hF7/3Fvmbz/9MvveLndLZ2emPAQCgWdWrbLVujFs/1lteI7jW1+FyNbZsGiZsi8RkXHfddXLp9V+3z790S84+zps3T/buDW4UDQDA7NDX1ycPP/x70z1cs9Np4pn8AftEyzj3pefJLx94wO8bHxZ03EvPO8/va2yYmFSQOHTokGza9LR9/pmPf1BW/Ls3ysgfviatra2ydOlSO3wiF1xwgXzmM5/x+8pdc801tgvbtm2bdHR0yMaNG8v6K7tgPl1+ePh9991Xd7jS8uj4SjpM16d0+UEZvvOd75QtS7tgXJiuQ8dV0vVVzh+sR+myKsdXM9ltGQjKGXThbaHTVi5H6XThbQgAzW18ZapH13v27JZkMinnnntu1e7ss8820+zx5wirVTk3IkRM7CtfuUWuvfZaExge9IeUaIi49tp3yy233OIPaWyZJhUkPvCBD8hf3/wz+3zLA//DPvY/+XP53OeKv5AViU4frjiV9v/gBz/w+0qeeOIJeetb31ocd/LJJ9t7gGunw3/1q1/Z53fccYcdrwqFQnGaSy+91B9aGq6PV155ZVkZHn/8cRsQorr11luL69DlvfKVrxw3/4MPPmjLWK3C/eEPf1icX1+DfpDD0+l8wXjtapnMtgz72Mc+VlzXFVdcUTOgKA0XupzwNgeA2cSe7/e1t7fbA+Jq3fz58X43KLrJtRJccvElcvvt37KBodQyUQoROu6Siy82QxofbJyDhN7d6tFHvSPZv35lh1x201P2+Zo1ayK3RgS00qqsXLVfh1fSyuqzn/1s7LBSj4YRrQjDtGLfsGHDuEo5Cl2ehgmdP+wnP/mJfU0TVbjnnHOODROZTMYfEt1UbMvKbVNJg4guX8OXy/YCgOmhlXXQlYRDhIpe1VZfnkeXMtGS6s0fnwaFcJiYmhAxvqxekAjdMzuqb37zm/KB2/7N7/MM/upmORy6bWZUWlGVmlw8WglXVmBaSWllpRV1tQrTlR5RB8sN0zBx4403+n3x6LLOOuusYsWqZdUjew0JUSrcYLq4pmJbatC46KKL/L7xdLyWV7+506j3BABmr0ZU2HGUKvdwmJi6EFEeJpxbJLZu3Wofg9aIsdFRObrtN3LnnXfa4XF0dXXZSjc4V6+VkZ4qqKTDtbJSWjFGbUrX0wTB+f5wBR4M14rw17/+tT+0JDgN4lo56mvSr8YqLWtQmUetcMNBRI/6g9dQ7RqFQKO2pW6TYH0aNMKnhMJ0OUFrh05TGWIAzF3BPmSibrpoy0O1f5WitQ+Mn8pb1lSEiHrLjFbaxiovj3OQ0HNFYQP/74vy2te+VhIJt0VqZRQ0sWuTfrWKSyupYHjUI3sVvkYi3OoQDNdKutZytOlfr59woeXTij04+tcyq6gVbtBioLSyD17DRAGqEdtSl6Hr0hBS7RqKQDggBa0wQYgBMLcF+6yJuukQpXqfTJUcBJLoMSLq2motUecfv4zw6YzwaY7G0LKML8+kgsS1PaV7bbft/4N88pOf9PviCyozPcLVyihc4avg9EO4dSGYfrLqncLQcmhlqhdOarmiCipTnV/LqGUNyq2vQfvrVbg6T1BBx9XIbfmud73LXttRrawaPDRk6IWlwXK0v17wAIDp41W0USr3aNV6UHmXT13ZqlF7fdXnry1KyUsqr4movGZiYuHyVXa1JY4ePSwjo8N+b3RbtmyRd7z7Wvv819lXyE033SQtLfVXNhFtatej/6CpPEwrp/A3I7TTCxIb0ZSuR+b1KnatTPU6A50mCl2OVq6333677dcyBt8mCbp6R/paoet20NYQV43cltlsttjCEablDFougk5beapNCwAzI369NDxcu048evSo/2yq1QsR41/T+AsrPaUwoV8NbVTLhGHq+5aWhO2cWyS+9KUvycbf/dY+//CHPyTnn3++fT4ZWmHrEXRwCiBMK6fKJvpgunpH9ip85F3ra4xaWWrlX4u2WtQLEho0gnXocrRS1fIFZat8TfpawhWuVvrB/Ho6QucPtyRo5R+M126i19zIbRkErcqvs2rwqGw10TLrsGqtGwAwnbwrICY+qg9Xy8uWLZPHHnus6o2o9EZVGzc+IkuXLS0uu9ryJ3dIreKFiLGxMXvwWBkiAkGYuP5677q4RmvpWtw9lkyulZ/e82N/UHQHDx60FYdWegAANIsoJwXiVPiTX14j1lZ7GRomop8VqLb8ieYtn+f1b3izFAreDSmdWyTU1N2YAwCAuLzKsHEhYrLL06FBN7Wqhwgtea3QUNm5m3SQCK4DAABg5k2uUhyv0cubSJTY0lwmFSTUVVdd5T8DAGBmeMfe1a9ZqBQlGsRZnitv2ZVdI02+taGk9nImHSQAAJhuLtVvvWrVZXn11a/Ag4ASfV2NCgSTUX0LEiQAAMe86amGg4q2/toqWzlqh4loy5s6WrJqpSsvD0ECADCrRD+Kj6YRy2t0mWYTggQAYNZwrbBrzdfIAOBdUTHxv0oz1d4wsWitIQQJAEDT0+p3oko/qPbCXViwjHA30yrLWFJ7TLMhSAAAImreyq1WyaayxC3+P1fevLW62YMgAQDANJtMAGk2xVtkf/T2O/1BAAAAtX3+2nc05hbZAABgbiNIAAAAZwQJAADgjCABAACcESQAAIAzggQAAHDm9PXP1510gv8MAAAcK+7d+aL/rL6yr3+OjY2KaAcAABCFyQ2aH7RLLF+2UBYunO+PAQAAqE9zg+YH7bhGAgAAxDY25v3sGUECAAA4I0gAAABnBAkAAOCMIAEAAJwRJAAAgDOCBAAAcEaQAAAAzhLB90ABAADiokUCAAA4I0gAAABnBAkAAOCMIAEAAJwRJAAAgDOCBAAAcEaQAAAAzggSAADAGUECAAA4I0gAAABnBAkAAOCMIAEAAJwRJAAAgDOCBAAAcEaQAAAAzggSAADAWcu6devGVq1aJdfdcoc/aGKvO+kE/xmAKPL5vP8Mx7prrrlGDhw44PcBs8u9O1/0n9X39Ruukc2bN0tLSwtBApgOGiS0gsHcQJDAbBU3SChObQAAAGcECQAA4CyxJnm2LD1ppd8LAABQn+YGzQ/aJZ4tPCZ7d+7wR02XgmR7OqWz0+96smaIyks6GOZ36eI1av640oAyhWyPmb5Hst6C6tDlRJkuzHHd+XTotVUKlaOQlZ7YZaql3jZsbnY7OhfW5X0FALjQ3KD5QbvpP7XhV5qFzIAMDPhdzlQDxfojKZneYHjK1MVpU0UEkpI084+vLPKSnfIaJO66TcWWTUpvb8bMOYFkRnoHeiUz4YRR1duGTUq3reRseQEAs8c0B4mCZNNZSeYGpKy+MBVpplr9kUpJysxTCNXTSVPZ5vMVFbdJIXk77dSKte6CVuYRQsRUq7INm1NKMo1LUgCAaTK9QaJgKt2Cqdii1vhaSSfN9KH6JZkxlXM2GzrCNuEkWzCVUJ2F2lYQr5m/p7L1IDRuotMAkdety+zp8Zcbag2oWY7KZvnyUz/FMsUoa1HlNixbRlC2auvzy5SvUeaaZfHny6aL40rzVX9d+bTpD7aXHehNV/b6wqeJqr6GkLqnlAAAjTT9pzbMYX39485QZZNPycC4o3oNIqZyDGoPDSc6rOZCTcVmKhVtBdGm/pzpL1U85eN0XYV0vfPsUdatyzRDi6cWxD/1Ua8cYfr6eySf6vXm12ltTolT1lrbsEbZTFjIJnMV61NmOVmRnL8+MeHAW99EZTHzmcDorSNl6n0/fNVYTypYjilQSqfR1hwTzsI3cdLnKQ1ytV4DAGBGzMA1EgVTzdTjn9/Xyk+Ppv2hYVqhaOWky8mbR9tS4I0aT9cXOnWi05bqSS2LhgO/305X/zTAhOu2ywxV5OawuqALrFeOML/VZlwzf6yy1tiGtcqm4c4cxY9rrdHl5PzXF17fhGXxgoAVPrVSaz3aglDZuqDzFcuu28TfdnbdVV5DWMqElWJ4AgBMpekNEraJ3VQK1dJBJVM55TJ6RFxRSShdjlYu9ui1VDlPi0jrTnlH8UFXdkHINKq6DauUzUzXa57nxKvQy04pFIWDgqNq69HTFGm/1aPsglMNU17ZbXAzwaIUDJpk+wIAprtFwm+yTldUVqYyyVapvLxrEoLm9DBdTtJeuKlHrnWPPPUoOLT8YjO7sqdZQsHGTmeCQt16aYJ1+8scF4DqlSPMD1tV549dVjNbeBvWKpsvmemVXvPaCsXEUDDr85+Hr29xLEugbD3awmCXZ9h12EmspC5QA1ve2+bewPqvweIaCQCYNtN/asNvdi7oBXa2OVubp22dXIUeleqp+SqVQipjjl6jXOlvjl7NEau9oE+Pgk1/aVVmXLgs9tx7LjS+hrrr9pYp9t4SwevTGrdeOcJMpWnKkAzN74Uux7KaKUrbsEbZiqcW9MLIUKVtypIs+OPsNRHB+hzLUm09ui3Fv3gyXdCcUBK0/tjHQK3tCwCYCfxoF2rIS7rThIfeRt7fYu7iR7vmFn60C7MVP9oFAACmFUECAAA4I0ighpTkGnrbbgDAsYggAUwDro8AcKziYksAAGBxsSUAAJhWBAkAAOCMIAEAAGJZuXKlrF+/3nYECQAA4IwgAQAAYtmxY4f/jCABAAAcPProo/aRIAEAAJxomCBIAAAAZwQJAADgjCABzFL60+ThDo3F9gWi4RbZwCwTVGoPPfSQfQxceOGF9jGVStlHuGH7Yi7jFtmzUl7SnZ3Sma5+xFPI9khnZ49kC8UB0mOmt5Pns6XhU07LGSrHtIuyfn9b2i5t+o49WslpBafdrbfeWtYFw0888UR/6jryaX87hbaV/WzN5Hs88xqzfWv9TVd8hmfsbxloLIJEU0hK0uxUxu9I8pKtGFgwO53MwICk8rqjKkiy6X/mexoDSN5sj94BGTDbJ5cav+2OJVqxVdJhN954o99Xh1ZgaZGc2U66rQZ6k/ZzJcmM9PLT8daktq+lf9NpLyTUMPv+loHqCBJNQncieVMRljFHR/lUSsINqclMxvancloJ5MrGzXmpTLESTB6De+XgaDlcybW0tNgu0N3dLX19ffWPmgsFKZjtU9xCJkBk+CBV3b6VIm1fX8r8rRayWakVZ/lbxrGCINEkdKeSNDud0gFMwR5RZyr28Pl00Bxd0XTqN5PWb9Y3y+wpzR/MHmWZPRVH99XnqVy+tkZoWfzhdjqvhSKd1lM2Xjkbt35fPi09+ZTkjvFD63CACD+fkIZTs23T41pswq1H/vN86T3Qzeydaqv+nqCCBrRkte3sifa3XPo7BZoVQaJpmJ17Sq8O93sL5rkOq6gLvaMX/wimeF7V7PR7zNR+s74ZVaVZXyvzHsmnev35tfnfG1N7mVlJ+uNypj+8P6s6jz4mc/5wXb6pzO2RVlIyWrZghaYsBTuddxTWsPUr3Qlnk9Lba4KZPwiV9H3pNdvNCwW1KyoNs/4pEPPeacWXNu+E3e6mX4+2qePqS+Vy5gAhXfp8hkT53A+Yz3HBhO5q8wPNIjE2NuY/xUwLN4XmzaNtpfBGlRQvkgu1OmhTtQ0KpaObghlWRoNJISWZakfptZYZavIOmmGLqs2jzeXaGjDhXi9pQlOoHI1av6pstj+Ghf924/8d++HOVlS1woSZJud/Bu0pttD7ZvvNtqaCm4AJbbmkCWRVNnCtz72Zx2xej/0bYDujOQX7HVokmklSd86mwrdHJ1XOW+vRdvEiucqL4vQo0z+K0a549D+BususodY8ZqfXa4blzHGr7iAjNck2cv0qZY6Yo772WUa/dqhfQdywYYM/xPtDDocIPX+v5/EPHDjgD5mAec/0FFDwlce5rNr2rRR7+yq9dqfywkuXzz3QpAgSTcUcAZo9Sjad1b2adyQYFj7ati0MdqiZTYdN8C0FDSnJKtPUW6bZ2QUHUmXN2LXm8SUzvdJrXkchymFUo9evO+jKVopjjH5zQCu0StWGVRU+FWSOf/Ui32Px4lRXk96+43gtO4V0ZYtbjc+9map0ilP/BkItFEATIkg0G/vNgxqnIHScaEXZKeVfF0tJrjcjEroQbtwFiLoz69XztaVp7CT1lumfF7fTanOrP6bmPMWmWr0QzwtFupxUKnyxZYVGrn8O0KNmPSIOvj0Q7oLhEx4tp0zIK14U22Ova9HghwZt32r8lp+iCf6W9XSTfX/stU/etURAs2pZu3bt2OrVq7mzJTDLVH4F0amCQ01sX8xFce5suWnTJvuNMVokgFlKK7Zwh8Zi+wLRJFafeZYsWXGS3wsAAFCf5gbND9olNj3xuOzbtdMfBQAAUN/A3j2ybdMzsvH3j3BqAwAAxDMyMiJDQ0P26+cECQAA4IwgAQAAnBEkAACAM4IEAABwRpAAAADOCBIAAMAZt8jGnMavXmK2uuaaa7jjJhou7i2yn39hmCCBuU2DhO6QgdmIIIFGixokvv/JD8revXvluee2cWoDAADE09/fL1u3bpWESRE2SOidqQAAAKII5wZaJAAAgDOCBJpEQbI9ndLZ6Xc9WTNE5SUdDLNdj2S9EUbluE7pKY0EAEyDxHve8x656qqr/F5gBhSy0mMCQiEzIAMDfpfTCyH98ZKUTK83vDcjkk0HIUOVxnnjk/5wAMB0SBQKBb4ChxlUsMEgmRuQXMofpJIZyYT7fclMRlKFvORpeACAppB44IEH5OjRo34vMM1sKEhJqkpocJZPh06NAACmEtdIYOYlkxL1hEQhm5V80gSP4gzl11akaVwDgCnX1tYm7e3t0tLSQpBAEygUJmg9KIWFnmxScr2ZUPAov0bCnh5J5WSgbBoAwFQhSGBm2daFfOjCymrCYSEnjTwLAgCIb3h4WIaGhuz9JAgSmGEmJGRSkk9XnJYoZCXrepqCayQAYNoQJDDz/FMRBRMmgmsdOtNmME0PAND07I92rVq1St73lW/7gybGj3bhWMGPdmE240e70GhRf7Tra9dfLZs3b5bWtjZaJAAAgJvjT1hAkAAAAG4OvfA8QQIAALgjSGBO4/oIAIgvfEMqLrYEAABW1Istv/HBa2Xr1q0yOjpKiwQAAIiHG1IBAICGIEgAAABnXCOBOU1vSIW5QS+s5QZOQH2xb0jV2kqQwNzGnS3nFoIEUJ9LkODUBgAAcEaQAAAAzggSAAAglvANqZooSOQlbX8+uvLiNx3eI9mC31tUkGxPp4ybvCnUKnMt/msPdQ15Xfm0dPZkzZaajLjvi6NCVnpqLq/B6wIANEyTtUgkJVlIR6pEC9m0FDIDkkv5A2a9pGR6B2RgwHTmReXTaVN9ToapfLNJ6e3NmCVPVvT3xVkyI70DvZKZfGEBAFMsuCFVU97ZMpXJmJAQ4Sg6lTuGQkSFVEpSZgsUJnMEXtBg0ogQ4Yn8vgAA5pTmu0bCHJlmkllzNF2tyio1cSeTWkWGm7z953ltIi+dHihke4qnC3rCy7RN6cGphODo31tGOq3z+MPKpqtzyiE0Xdl6VNV11ZHPSz5pwkSQAmrO753eGVc2nb6nx5+n/LVF3j6V6r4vZunpUjlKp0FqlK/q8PB7aUTenhMstyGndwAAtSQuuugimTdvnt/bHFK5nCSzaYdz4qYiyYrkiqcHTGUiueLpAj2i9uocU2n15CVVPJUgZr5iDWYO5nWenJglmOmyksz505kj/IIJGePLVT5dzvQX67a66woLVYL5lF2XlyNqza/T90g+1esN1/XaFpr6ry3a9qmu3vuSCraRbjcTVuw0+mi3pTfOK1+tcodNtD1rvCdV1wcAmCoLOhZJQo/sr7zySn9Qs0hJLpc0lV69aq2apGRyfgVsTw8kzYN/WB8+XWD+p/+KFbc5dC0UzyOE5rHTmfmCCkmPylP+MsJ0OjvO601mMmYuX911hfnXSGiA0BYJf2jN+QtmmkJKMpUXFdRdX8TtU1Od90WP/HV94RYT89lKmuHlLUE1yh2mr6Hu9qzxnlRbX8oEiwae4gEAlLwweFAS3/zmN+Xuu+/2BzWRlKkgpvQCP1Mp+keutpvSw9cY6zIVYy5jgkDZYX/csk7ha6v2vuiphrTf0hG+YNK8ll4zLCdeyJi699I33esDADTzfSS8o+dC2bcXzBFnMnTUHD5yj0OPXM2c1U8xhPjTFX+OwVSY2XzoaDig09lxXm/ZKYKo6wrRI/DiKYRa89trKKoNj7++eKq8L7YFQderz7XFwQ4tSmZ6pdekC9syUqvcYRG2Z733pGx9XCMBAFOqiYOEYY/Ow43SphLLeOf2bTO6qUzcjrXNEXtvRiR0oWHpAsEwb7pCsD577YFeO1HJTGeO+oNypU1/aZqo6wrTpn8zS1orwFrz66kQvWahNNxbrMv6Yqp8X7SVQvwLINMFres9xdMdesGkvnc6ola5wybenlXfk6rrAwBMJX60C3MaP9o1t/CjXUB9UX+063v//QOyZ88e2blzZ5O3SAAAgKbT398vfX19smjRIoIEAABws3LlSoIEAABw8+STTxIkMLdxfQQAuBsZGeFiSwAA4Il6seXXrr9aNm/eLIlEghYJAADgbkpbJE488UT/WfPasGGD3HTTTX4fAMwus2E/q9jXzg4uLRJTHiT06yHN6t5775WHHnqIDzeAWavZ97OKfe3sETVIfOOD18rWrVtleHh4eoJER0eHP6S56M2I+HADmM2afT+r2NfOHi5BgmskAABALBoghoaGZGxsjCABAADcESQAAICTlpYWSaw640xZsuIkfxAAAEA069evl8TmJ5+Qfbt2+oMAAACi2b59+/Sf2sinO6UnW/D7fPm0dKbzfk8teUl39kjlrACASrq/7JTOUDfhLraWQlZ62Peihv37909/kEilUlIolH8i9atBOjw6QgUA1JeUTO+ADAx4XS7OLjYsmZHegV7JJP1+oML0X2yZTErSBIdSODbP8ykTJPxeAADQ1Nra2qS9vd272FK/AzqtkiY0JDU8+P0aKkyKKOYI24xWrzlOWyPS5v8FyfaYafwJ9JRJsRmvOJPXcpFO95jhOg8AzGV+a242Xdxfeqeavf1p2f5WTzn3ZM2Y8hZg9rWoNANf/0xKKpUsnt4oP61hPozmg5vM+c1xvRkpmA9m+SmMlOQGcub/frOd316XCubRcflsaJ6CFJI5b7g/BACOff7Blq30w5W7GV5IeftLs/8sZLNmnNmfZlJ2fxyw++ZMxowpx74WasZvSJXU4GA+pOZjZwJFUs92eEy4KJiPYDFXJDOSSek0fn89mp7H/cEoL7gAwNwSvkYiXLl7ocGyrcH+PlafawuxHWEeC7r/tT3l2NeiwowECXt6Qz+o9kNrnk/2s6enQ9IiOfsHw0VBABBfygSMgmSzJlhks1IwwWLcrpR9LSqcsLBjhoKETa4i2XTWpuDiZ1EvxLQBw+83H9pslAsxtSXDzqvPNUnboQCAGLzWYt3vaqtFlZTAvhYVXnx+cKaChPeB1Y9jeVNYSnL2ugj/vF5PXlK91c63abgIXWyZykhG/Is004XSqRIAmLPC10hUuX9PNUFrsX2sgn0tqmg5/fTTx1avXs3PiAPALMTPiKORov6M+Neuv1o2b95sn89YiwQAAJj9CBIAACCWshtS+cMAAAAi0ftHBDe0JEgAAIBYRkZG7A2pFixYQJAAAABuDh06RJAAAAButGViyr/+eccdd/h9zYmvJAGYzWbDflaxr50d4nz9c9OmTfZiyykNEp/4xCf8Z82NDzeA2Wq27GcV+9rm13RBAgAAzB4uQYJrJAAAgDOCBAAAiGXlypX+M4IEAACI6bLLLpMvf/nL0traSpAAAADx6Y92zT/ueIIEAACI56677pIvfOELcvgwN6QCAAAx6R0t1ejICEECAAC4I0gAAABnBAkAAOCMIAEAAJwRJAAAQCx6/4j29nZukQ0AACaHIAEAAGIZGRmRoaEhGRsbI0gAAAB3iVVnnClLlq/wewEAAKJLbH7yCdm3e5ffCwAAEB2nNgAAgDOCBAAAcEaQAAAAzggSAAAgFm5IBQAAGoIgAQAAYuGGVAAAoCEIEgAAwBlBAgAAOCNIAAAAZwQJAADgjCABAACcESQAAEAs3JAKAAA0BEECAADEEtyQanR0lCABAADcESQAAIAzggQAAHBGkAAAAM4IEgAAwBlBAgAAOGmbN48gAQAA3CQSCYIEAACIp7OzU7q7u2VkeJggAQAA4hkYGJC+vj57YyqCBAAAcEaQAAAAzggSAADAGUECAAA4I0gAAABnBAkAAOCMIAEAAGJpbW2VefPmSUtLC0ECAAC4I0gAAIBY9EZUR48elbGxMYIEAABwR5AAAADOCBIAAMAZQQIAADhJtLYSJAAAgJv29nYvSOhVlwAAAHEcPnSIFgkAABAPN6QCAAANQZAAAACxcEMqAADQEAQJAADgjCABAACcESQAAIAzggQAAHBGkAAAALGEb2RJkAAAALG0tbVxQyoAADB5BAkAABDL8PAwN6QCAACTR5AAAADOCBIAAMDJCQsXEiQAAICbF59/niABAADcJcI3lQAAAIgiyA+0SAAAAGcECQAAEEtXV5d0d3dLIpEgSAAAgHj6+/ulr69PRkdHCRIAAMAdQQIAADgjSAAAAGcECQAA4IwgAQAAnBEkAACAM4IEAACIpa2tTdrb2+1zggQAAHBGkAAAALEMDw/L0NCQzD/+eIIEAABwM3TkCEECAAC4GeMW2QAAYDIIEgAAwFnitHVnypLlK/xeAACAaFpaWiSx5aknZN/uXf4gAACA6Di1AQAAYuGGVAAAYNIWLVpEkAAAAPEEN6Tq6OggSAAAAHcECQAA4IwgAQAAnBEkAACAM4IEAABwRpAAAADOCBIAACCW4IZUiUSCIAEAANwRJAAAQCzBDalGR0cJEgAAwB1BAgAAOCNIAAAAZwQJAADgjCABAACcESQAAIAzggQAAHBGkAAAALF0dXVJd3e3dHR0ECQAAEA8/f390tfXJ4ODgwQJAADgjiABAACcESQAAIAzggQAAHBGkAAAAE7GxsYIEgAAwB1BAgAAxNLW1ibt7e3S2tpKkAAAAO4IEgAAIJbh4WEZGhqSkZERggQAAHBHkAAAAM4IEgAAwFnitHVnyJLlK/xeAACAaFpaWiSx5aknZd/uXf4gAACA6Di1AQAAnBEkAABALMENqRKJBEECAAC4I0gAAIBYghtSjY6OEiQAAIA7ggQAAHBGkAAAAM4IEgAAwMnY2BhBAgAAuCNIAAAAZwQJAAAQS3BDqtbWVoIEAABwR5AAAACxBDekGhkZIUgAAAB3BAkAAOCMIAEAAJwRJAAAgDOCBAAAcEaQAAAAzggSAADAGUECAADE0tXVJd3d3dLR0UGQAAAA8fT390tfX58MDg4SJAAAgDuCBAAAcEaQAAAATkZHRwkSAADAzfbt2wkSAADAHUECAAA4I0gAAABnBAkAABDL6PAh2btrl2x99lmCBAAAiEfDw4vtnXLqmjUECQAAEN8J89rsI0ECAAA4I0gAAIBYhv1HlTht3RmyZPkKvxcAAKC+trbjZenCVvs8seWpJ2Xf7l22BwAAIA5ObQAAACcLFiwgSAAAgHja2tqkvb1dli5dSpAAAADuCBIAACCW4eFhGRoakpGREYIEAABwR5AAAADOCBIAAMAZQQIAADgjSAAAAGcECQAA4IwgAQAAYgluSNXa2kqQAAAA7ggSAAAgFm5IBQAAGoIgAQAAnBEkAACAM4IEAABwRpAAAADOCBIAAMAZQQIAADgjSAAAgFi6urqku7tbOjo6CBIAACCe/v5+6evrk8HBQYIEAABwR5AAAADOCBIAAMAZQQIAADgjSAAAAGcECQAA4IwgAQAAYmlra5P29nZpbW0lSAAAAHcECQAAEMvw8LAMDQ3JyMgIQQIAALgjSAAAAGeJ09adIUuWr/B7AQAAomlpaZHElqeelH27d/mDAAAAouPUBgAAcEaQAAAAzggSAAAgluCGVIlEgiABAADctaxZs2bs1FNPlXdnvyILOxf7gwEAAMZ7fmC/fCtzvWzdulVOOeUUr0XiyJEjsmfrZjsBAABALZoXNDcEbJDQ21zufY4gAQAA6tO8MC5IPP/88/K7n/5YDuzZaQcCAABUOrBnl80LL7zwgj/EBAm9K9XRo0dl7+7d8uDd3/UHAwAAlHvw7v9p84LmBs0PqnXx4sWf0ifaTHH44ID0b39OVqw6XY5bsNBOAAAA5jY9Y3Hvt2+Twm9+Jfv377fDNEgsWrRIWk4//fQxHTA2Zh/kxBNPlCXLlsn5b3iLLD1llSw7dRXf5gAAYI554UC/7N6yyV4T8dt7fiT79uyRAwcO2HFBa0R3d7cXJIIQEdAbTSxcuFDmz59vbzjR2trqj2l+la8F8XUuWSoD+/b6fdHoPIMD/X6f2JuUqNHRUftYTZRplH4W9TqeWhqxLv3cBJ9z/X39ejo6OmRwcNDvGy/Kcho1jaI8s6M8wY53Oj7PqpF/X1r2qd4+gZl+v4L3KTBReeK8F1dccYVdvk67Y8cO2bJli+wxlbOK+n5N5/bR8YcOHbJfyHjxxRfLTmcofb5y5crxLRIib5DrPv3n0lm4S26685HS8Nf/jdx4/onyzI9ulu9vFFl/1UfkynXzRY5skXtu/q78zpvKs+z18rfvOV+WymF5+kdfkH+003/YTD8gD332dvnZHKrsZ2OwOXnVGtm2+Vm/LxqdZ/e25/w+L4yq4eFh+1hNlGnUsmXLZPfu3X7fePPmzbOP+iGvJco0ccoT/PFX06jXTnmapzyN+oypicoTLGc2bZ9Glmf58uV1/951OVqBRX0vKoNBoFHlifPZuPzyy+Xpp5+Wxx57bFzdUGs5leWPsn3UZN8LLU+wncNlCJ4HjxokitdIlKyV8197ihy393F58JFdpQWc/nK55OTjZf+T/yaPmtew/JxXyVlLzBvatlDmJ34rf9xSSjanv/EKuaDLpJnEmBx44lfe9Ov/XJJLjsi2Bx6WeFXU7KbbL2rXLBZ1dpW1LkSh8wzs32fTtHb6evRRP4TBsMouyjTaLViwQA4ePFh1nHbBcvSPonJc0E00jSbvRpdnsq+d8kxveSbz+dEuyjTaaQsA71f1abTT7aPN59XGaafL0Uq4Ue/XZMuj9LHecoJpNm7cKDt37rT7m8ppapVHpw13Wp6BgYFxw7Wrt5xwF3eaYNnahdelj3qNhNeWYuhM/rPQc4/Xr8P1/x77vOWAHOifJ6esu1iO84eLnC89axbKi4eOSFvFDLoc7bWPEbu5pNrrr9dNFZdFT2FxpkW17Us3t7q5Ksprn2iaKNuw3jTBuKhdM4lSpvA0wfPKLlBtXNSu0Wots3J4MUiEeYXye3w6zDtXFgxImP4h2bJ5v7SctFZes9wffkFSTjlunxSeed5OW5xcn1csMwqvLFPXzWbVXk+9LjqX7VI+T/x11tao5QDNYLo+z436GwyWESyvWheoNi7oAvXGNaOo5at8TeEuEH7ezCrLWf81iPx/ZMMxfegYPfgAAAAASUVORK5CYII=;" parent="1" vertex="1">
                    <mxGeometry x="100" y="383.62" width="265.5" height="201.38" as="geometry"/>
                </mxCell>
                <mxCell id="17" value="Definindo recenascidos &amp;gt;= 1" style="edgeStyle=orthogonalEdgeStyle;html=1;fontColor=#050000;entryX=0;entryY=0.5;entryDx=0;entryDy=0;" parent="1" source="13" edge="1" target="28">
                    <mxGeometry x="0.4926" y="20" relative="1" as="geometry">
                        <mxPoint x="520" y="629.9999999999998" as="targetPoint"/>
                        <Array as="points">
                            <mxPoint x="440" y="790"/>
                            <mxPoint x="440" y="630"/>
                            <mxPoint x="521" y="630"/>
                        </Array>
                        <mxPoint x="-20" y="20" as="offset"/>
                    </mxGeometry>
                </mxCell>
                <mxCell id="13" value="" style="shape=image;verticalLabelPosition=bottom;labelBackgroundColor=#ffffff;verticalAlign=top;aspect=fixed;imageAspect=0;image=data:image/png,iVBORw0KGgoAAAANSUhEUgAAAhAAAAGPCAYAAAAN2OmCAAAAAXNSR0IArs4c6QAAAARnQU1BAACxjwv8YQUAAAAJcEhZcwAADsMAAA7DAcdvqGQAADAHSURBVHhe7d19lBxXeefxZ15kGZDs0YstySYgyZYpv6whOQ6095g3ZwP7QuI6bGQ22RC3nZCAY5aEDTmNd0+M+QPXOUASjlknJKxphw3Z2D45TcLuHlhgk5hd2iQEEiRRfgFjkC35RZoWxrZsjTx7n1u3uqt7qrvr9nTPdGu+H5/ydL1X17Tq/ureO9VT27ZfsLjjyl+U07e9TGRxUcz/5OSxw/KiF47LuukX5LRpM+35Z+X4kUfkonOOyVVXzpplRB5+9AW547Mn7Ot8b5ZLf/MCefZvbpUH/kFkxzW/JRdsfk4ezY7Lt+Rv7vi8yE9cLa95/Uvk+7/3KTlk171M9lz/BnnRgx+Rf/qCGc3Ot6/Nsf7gr+Xeu//eLm3nl0T233an/MiMbvi5a2XHdz9l9yNvulZef7HI/XbbyXY3P56u+2Y5/98+KQ/eLXL+u14vL/7OR93+9sqrX2f29/tVOWxGUxt+7gb5iZeul8aB7HLb5Ojfflwe/Afzfn9jjzxjX+vSOr5DHu/YRmr3694gL968WY589zuyedduOfq9h+T40XnZ8apXybFHDsoZO86R5556Sr77t3/t1lgZJ0+a3+nUlBvz98rtz8ml25+XT39zox1/+6uekn86fJr84+H1dryo2X9/ofzYhkPy0CcadvxFv/bjsn1LQw5/6CF5VuZky4275IwjDzXny1t2ya5Lxc03Xr1NdvyLF0tDx3XeufNuWbPue3fIaU8fkkM6rstdIfLE7z4mC7qeM8j+t8hDcuRz5rXd92Z5+ovflh+eXWzf0ra/ZPvyT99ItienyxnvvVDW3Z+OL7X1X/+Y/fnk//yB/ak2vWGHzG5aL/NfflQWjj3vphaw6RVy1d6flos3zcrJ+fvkc3f9L9k/7+YVtfiCe4FTw+DXBEyuhYUFefb4cTl+/Hl5ypRHzz/fXua3AsTZegFalOe+9QX5yZf9UH7+3/2c7Dh3t2zeukte9JLNydIAAKwZ2eCkN9jLlW5vkG0N+1j6e/LJI/LAAw/Kgw9+Rz7zZ38uhx59TI7Ou5smY+rsbXsWz37Nz8iG3ZfImVNPy2s2HJZ3/3pZTn/JdrcIAABr0agChPLZXna91MqEiNQjjzwqf/iJP5Yvf/lv5ODBQ7K4uCgzL9mw5QMytShnv/w8uSLYJr/1rrLMnrbBrQIAwFqUV2gvV7rN5YaHlXfGGRvlyje+QR566CH5wfcP2qaNaZ1x4vHviRz4gvz8T/24XRAAAAybBoei4UGDw3iEh6x3vfNXZcc52+S0deuSAHHGxpfI3rf+Gzln+9l2AQAA1p600B5WwT3s7a2+c889R37h598mG8/YkASI9etPk/PP321nAgCArJXtbzDugeP888+T009fnwQIfbHHTFiuz3/+8/KLv/RL8r7Kf3JTAACYBN0K7XEMDyt9TO327DlfXnT66UmAmJmdkS1bBv9Tzfn5eXn3u98tH/29D8vP/vafyL5/tA9CAABgjRqkFmGY4UG3lQ7DtXXrFpmdndUAsfwk8/73v19e+2u3yq985Ivy3//6sMzNzbk5AACMq16FrJaNvuVjr+0Nw6Dldfa4hndstgZiOd75znfKlTf8oX39sVur9ue6devkySeftK8BAJgUBw8elG984x/M8I2ugy7jZ/k36v22cekrXyV/e889bmxpSNB5r3zVq9zYcELEsgLEs88+Kw899KB9/cHf/g3Z9s/+pZz85h/IzMyMbN261U7v59WvfrV88IMfdGPtrrnmGjtkPfLII7Jx40bZt29f23jnkK6n289O//KXv9xzutLj0fmddJruT+n202P49Kc/3bYtHdJ5WboPnddJ99e5frofpdvqnJ9nuecylR5nOmTPhS7buR2ly2XPIQCMt6WF6KL574knHpcgCOTSSy/NHS666CKzzBNujaxuhfIwwkN/H//4rXLdddeZoPAVN6VFw8N1110rt956q5synGNaVoB4z3veI7/80S/a1w/f81/tz/n7/498+MMftq+L0uWzBabS8b/4i79wYy333XefvPWtb23OO/fcc+0zunXQ6V/96lft6zvuuMPOV3EcN5e58sor3dTWdP151VVXtR3Dt7/9bRsMirrtttua+9DtXX755UvW/8pXvmKPMa+g/exnP9tcX9+DfoCzy+l66XwdulnOucx63/ve19zXW97ylq7BRGmo0O1kzzkATBIND6nTTjvN3gjnDevX+32vT3HLqxV43WtfJ7ff/ikbFFo1Ea3woPNe99rXminDCzQDBwh9GtX+/cmd6y9fvlF++pYH7Ovdu3cXrn1IaWHVWajquE7vpIXUhz70Ie+Q0ouGEC0As7RAv/7665cUxkXo9jRE6PpZn/vc5+x76lfQXnLJJTZEVCoVN6W4UZzLznPTSQOIbl9D1yDnCwBWhhbS6dCSDQ+qeBGbv72EbqXflnqt708DQjZEjCY8tI41CRD2Wzj9fPKTn5T3fOL/ubHEU1/9qBw/ftyNFacFVKtqJaGFb2fBpYWTFlJaQOcVlIPSO+h0u1kaIm688UY35ke3deGFFzYLVD1WvZPXcFCkoE2X8zWKc6kB44orrnBjS+l8PV79S5xh/U4AYHINo6D20SrUsyFidOEh+TlwDcT3v/99+zOtfVh84QU58cjfyWc+8xk73cemTZtsYZu2xWshpE0CnXS6FlJKC8SiVebaHJC252cL7nS6FoBf+9rX3NSWtLlj0EJR35P+iavSY00L8aIFbTaA6F1++h7y+iCkhnUu9Zyk+9OAkW36ydLtpLUbukxneAGwdqXXkH7DStGahrz/OhWrD1i6VLKtUYSHXtssdrTDlRzPwAFC24KyGv/39+SNb3yjTE8PtkkthNKqdK26zyuwtHBKpxe9k1fZPhDZWoZ0uhbO3bajVfzaP2IQenxaoKd3+3rMqmhBm9YQKC3k0/fQLzgN41zqNnRfGj7y+kikssEorXVJwwuAtS29ZvUbVkKRYn05RXEaRIrHh6J767ZFXX/pNrLNFtnmjOHQY2kdz7ICxHWl1rd2zh79pvzO7/yOG/OXFmJ6R6uFULagV2kzQ7Y2IV1+uXo1VehxaCGqHSL1uIpKC1FdX49RjzU9bn0POt6roNV10oLZ1zDP5dvf/nbbdyPvWDVwaLjQDqPpdnS8V+AAgJWTFLBFCvVixXlaaLcv3VmL0X1/+et3V+TIWzr7PHT2iegve3ydw1LTJ04cl5MvLLjR4h5++GH5hWuvs6+/Fv2k3HLLLTI1lb+TorRKXe/20yrxLC2Usn/poIN2NBxGlbneifcq0LUQ1X4EukwRuh0tVG+//XY7rseY/nVIOvS6s9eCXM+D1n4MapjnMoqiZo1Glh5nWlORDlqrk7csAKwO/3JpYaF7mXjixAn3atR6hYel72lph8lEK0Ton3gOqybCMOX9wDUQH/vYx2Tf1//evn7ve39TLrvsMvt6ObSg1jvmtKo/Swulzqr4dLled/Iqe6fd7c8RtZDUQr8braXoFSA0YKT70O1oYarHlx5b53vS95ItaLWwT9fXZgddP1tzoIV+Ol+Hfu95mOcyDVidf5aqgaOzlkSPWafl1WYAwEpKejj0v4vPFsdnnXWWHDhwIPcBUvqAqX37viVbz9ra3Hbe9pd3K638wsPi4qK9aewMD6k0RNxwQ9LvbVimNm1+6WIQnC9f+PxfuUnF/fCHP7QFhhZ2AACMiyKV/z4F/fK3N4y9dd+GhojirQB52++3bvs6b3rzzwxeA6FG90ANAAB8JYXg8MLDcrenU9NhtPLDgx55t7DQOfhbdoBI2/kBAFh9gxWG3Q17e/0UiSvjYVkBQu3du9e9AgBgdST32vl9EjoViQQ+2xtUsu3OYZgGr11Yaul2lh0gAABYaYMUu72K00G211vvgjsNJsX3NawgsBztZ5AAAQA45a1M8ZsWsL331lmr0T1EFNve6OiR5R1dcjwECADARCl+117MMLY37GOaBAQIAMDEGLSg7rbeMAv+pMdE//86rVb9Qn+9az8IEACAsafFbr/CPi3uskNWuo3ssNo6j7Gl+5xxQYAAABQ0voVatyMb5RFPuf8GlazbbRh/BAgAAFbYcoLHuGg+yvq3bv+MmwQAANDdR677BWogAACAPwIEAADwRoAAAADeCBAAAMAbAQIAAHgjQAAAAG8D/RnnT21/sXsFAABOFV86/Ix71Zv9M87FxRdEdAAAACjC5Ibps8/aIBs2rHdTAAAAetPcQB8IAADgjQABAAC8ESAAAIA3AgQAAPBGgAAAAN4IEAAAwBsBAgAAeCNAAAAAb9OLi4vuJQAAQDHUQAAAAG8ECAAA4I0AAQAAvBEgAACANwIEAADwRoAAAADeCBAAAMAbAQIAAHgjQAAAAG8ECAAA4I0AAQAAvBEgAACANwIEAADwRoAAAADeCBAAAMAbAQIAAHib2rNnz+LOnTvlnbfe4Sb191PbX+xeASiiVqu5VzjVXXPNNXLs2DE3BkyWLx1+xr3q7Q/ffQ0BAlgJGiC0YMHaQIDApPIJEDRhABNmamrKDgCwmggQAADA2/Tu4CLZun2HGwUAAOhNc8P0d+MD8uThQ27SSoklKs3J3JwbSpGZompSTqe5odzse+bmtSa0iaOSWb4kUbKhHnQ7RZbLGnDftXLmvXXKHEccScn7mLrpdQ7Hmz2PAx/sIL/X1bBfbr4kaYLQ4eq73GTjrqtb0y+5eb+b6tx1tZl+tWQWB4BVo7lh5ZswXGEZVxrSaLihai7/zXIjkEo9nR6aMrhsioZUIIFZf2khUZNo5CWH775NgRYFUq9XzJp9BBWpN+pS6btgUb3O4ZjScytVe7yntgNy0U2Lsrhohn0fkANXu1Cw/2Y5sNdNX7xTLvrA2yTJEC5wmIX26igAjIkVDhCxROVIgmpD2soJU4BW8sqNMJTQrBNnyufAFLK1WkeBbdJHzS47Wl77jrUQLxAeRi3nHI6nUCrDS1BjbK/sTZPAxRfJRe6lXHyT3NRMCBfJxRe7l3Kx3LTPhIo7iQ8AxsvKBojYFLaxKdCKlvRaOAdm+Uy5ElRMoRxFmTtqE0qi2BQ+PTZqaz2S6vxSZ21BZl6/6v7C+9Ztlkpuu5m7/67H0Vn93t7E0zwmj2Nt6jyHbdtIjy1vf+6Yal2OueuxuPWicnNea73891Urm/H0fNmJyXJt7y/bHJT7HjJ6Nh2NkbvukrtMmlgaDQ7I/v0mXDRDBACMn5VvwjC38b3vMzOFTC2UxpK7eA0gplBMSw0NJTqt60ZNgWYKE6310Cr9qhlvFTjt83RfcblXO3qRfes2zdRmE4K4Jo5ex5Gl778ktbCerK/L2nzic6zdzmGXYzMhIQqqHftTZjuRSNXtT0woSPbX71jMeiYoJvsITXnvQleX/YTpdswBhbqM1t6YUJZ9+JK+DjXAdXsPE2T/zZckfR3u2ptbs3DX1VfLgQ/cRJMFgLG2Cn0gYlO89OLa77XQ07tnNzVLCxItlHQ7NfPT1gwks5bS/WWaSHTZVvmox6KhwI3b5XpX9/fdt91mpgA3t9GxbrDXcWS5Wpol1flex9rlHHY7Ng115q59Se2Mbqfq3l92f32PJQkAVrYJpdt+tMagszZB12seu54Td+7svnPeQ1ZoQkozNI2fi2/al/R12HuXCRKXuL4OKunvcPPF+2TfTVQ/ABhvKxsgbFW6KQzyUkEnUyhVK3oH3FE4KN2OFir2brVVKK+IQvsOk7v2dGjr8LGCcs9hzrGZ5ermdVWSgryt6aApGxAGlLcfbY4ou1qOto6kGqKSY7eBzQSKViAYk/O7XHvvlDv37pf9B3REw8PbRP58kfAAYCKscA2Eq5oudxRSphCJcgqtpM9BWm2epdsJbIdMvVPteaepd72Z7Ter05VtTskEGrucCQg9y6M++3bbXBJ8eh1HlgtZuet7H6tZLXsOux2bE1TqUjfvLW4mhdjsz73O9l8Z8FhSbfvRGgW7PcPuwy5iBbpBDWq15JwnE3u/B2uc+0Bovwf30oyY0Yu1L6V5ebN84KKbhOwAYFKsfBOGq16OteOcrbbWamhbFufQu1Btes8pDEJz928K2/49983dqrlDtR319K7XjLd2ZeZlj8W2rVcz87voue9km2KfDZG+Py1pex1HlikszTEEmfWTsDXgsZolWuewy7E1mxC0w2OmsDbHEsRunu3zkO5vwGPJ24+eS3GdIsux5oOWtLbH/kx1O78T4qIDcrN71oM+10Hu3GdDw/4DB7Tzg5ueDEueBQEAY4Qv00IXNSnPmdBQH+bzKdauYX6ZloYLpf0oMJ74Mi1MKr5MCwAAjBQBAgAAeCNAoItQqkN9vDaGJXncNc0XAFYXAQJYAcPq/wAA44JOlAAAwKITJQAAGCkCBAAA8EaAAAAAXnbs2EGAAAAA/ggQAADAy6FDhwgQAADAHwECAAB4I0AAAABvBAgAAOCNAAFMKP2K8OyA4eL8Ar3xKGtgwqSF2b333mt/pl7zmtfYn2EY2p8YDOcXaxmPsp4oNSnPzclcOf8OJ45KMjdXkihuTpCSWd4uXota00dOjzNzHCuuyP7dubRD2YyderRw04JNh9tuu61tSKefeeaZbukeamV3njLnyn62VvN3vPqGc367/Zvu+Ayv2r9lYDgIEGMhkMBcTJZeQGoSdUyMzcWm0mhIWNMLVCzB2H/d9goGj5o5H/WGNMz5qYZLz92pRAu0TjrtxhtvdGM9aMFVFqma86TnqlEP7OdKgorU+Qp3a1nn19J/0+UkHHQxef+WgXYEiDGhF4+aKQDbmLuhWhhKtsI0qFTseFjVi3+1bd6aF1aahV9wCl6N07vjvMIt9dKXvlQOHjzY+y45jiU256d5hkxwqPBByj2/U1NTdkgVOr9OaP6txlEk3WIs/5Yx6QgQY0IvJoG52LRuWGJ7B13puLLXymm1c0cVqasO7V19b7ZZaq2frl5km6WOu/n8dTq3r7UPeixuul0uqZEol7VpJjnO4e3fqZWlVAulyq10Pg2l5tyWl9TQZGuL3Ota63egpzlpUsv/nZxqssEh+7owDWZB3nlOFPu33Pp3CowbAsTYMBf1UHt7u9HYvNZpHWVgcrfi7lia7abmYl8yS7vqezMrp/peC/GS1MK6W1+r+ZM53bcZSeDmVc149jqWu47+DKpuum7fFOL2ziqQih5bukNzLLFdLrnrGtr+lV58o0DqdRPI3CR00t9L3Zy3JAx0L6A0xLqmDvO70wKvbH4T9rybcb27pmzrLaxWzY1BufX5zCjyuW+Yz3Fswnbe+sBqm15cXHQvsdqyVZ4189PWSiSzWpqd3zK1DFolbQNC624mNtPaaCCJQ6nk3ZV322amajutbm3KW0erxfXuv+/VLjBhKXMcw9q/6qyeRxcu1NkCqluIMMtU3WfQNqVlfm923JzrU7hgy14bB79OmrBWDUwQyznB3T73Zh1zehP238CpfZ4xuaiBGCeBXpRNQW/vRnLapfXuutn5rbOzm95VursWHZp3+3303GYX3dYxF7u6mVY196l6YSxU9TrM/avQ3CEXfe8TRv98UP+U8Prrr3dTltL2eW2nP3bsmJvSh/mdaVNP+qeLa1ne+dXgkA0P3udXad+czg6Vg3zugTFDgBgr5o7PXEmicqRXs+TOLyt7d21rFOxUs5pO6/NXBxpOgpxlem3TXOTSG6e26upu6zhBpS518z7iIrdNw96/Xpg7ayVOMfqXAFqQdcqblivb5GPud7Xz7qnY6XRQyz6/SyQ1OXG5s4aty+feLNVqytR/A5kaCWCMECDGjf1Lgi5NDTpPtICck/Y/+wqlWq+IZDq4LelYqBexurbHtpaxi/Tapmv3tstqtaqb03WdZpWsdrBLwpBuJwyznSg7DHP/a4DeJesdcPrXANkhnd737jg04a7Z2bVk+61o4MOQzm8eV9PT1OffsjYr2d+P7duU9BUCxs3U+eefv7hr1y6eRAlMmM4/JRyoYENXnF+sRTyJElgDtEDLDhguzi/Q2/SuV1woW7Ztd6MAAAC9aW6Yfui+b8uRxw67SQAAAL1pbqAJAwAAeCNAAAAAbwQIAADgjQABAAC8ESAAAIA3AgQAAPBGgAAAAF5mZmZ4lDXWNr6FEpPqmmuu4QmZGLqij7L+49+4jgCBtU0DhF6IgUlEgMCw8V0YAABgpGyAWFxctCMAAAD9aG6gBgIAAHgjQGBMxBKV5mRuzg2lyExRNSmn0+xQkiiZYXTOm5NSayYAYISm3/GOd8jevXvdKLAK4khKJhjElYY0Gm6oagdHN18CqdST6fWKSFROw4VqzUvmB246AGCUpuM45k/ZsIpiGwiCakOqoZukgopUsuNOUKlIGNekRkUDAKyq6XvuuUdOnDjhRoEVZsNAKGFOWBhYrZxpAgEAjAJ9ILD6gkCKNjzEUSS1wASO5grtfSfKVKYBwMht3ryZAIExEMd9agtaIaEUBVKtVzKBo70PhG0GCavSaFsGADBMR48eJUBgldnahFqmw2SebEioyjBbOwAAgyFAYJWZcFAJpVbuaH6II4kGbY6gDwQAjBwBAqvPNTnEJkSkfRnmymYyVQ0AMLbsl2nt3LlT3vXxP3GT+uPLtHCq4Mu0MMn4Mi0MW9Ev0/qDG36JGggAAOCPAAEAALwRIAAAgJfZ2VkCBNY2+j8AwGDoRAkAACw6UQIAgJEiQAAAAG8ECAAA4I0+EFjT9EFSAEZLOyvz0KvJ4NMHggCBNY0nUQIrgwAxGehECQAARooAAQAAvPAgKQAAMBACBIasJmX7ddydnRN1ekmi2I0CACbWwsICAQKjEEgQl2VJhgAAnDIIEBiJsFKROIqECgcAODURIDAaQUUqQSTlbm0WcSQlbepwQ6u2wjV11FrzdV4clZrLlrLbbNtO2axt1MoyVyK8AMAoTV9xxRWybt06NwoMT1itShCVc/o9mJBgCvig2pBGwwz1isTlbP+IWKJIpKrzqqHJAyZESDVZ1oxrzUaSN3Q7NQnrbjtVMesRGwBgJUwHQSBXXXWVGwWGKZRqNTCFekdniDg2ESGUMHTjWlsRmmnNsj+QSrVi/m+YhULzKgztmBt3y9rtmLBRcjUQ5ZqZZGaEJmyYUOLWAACMwPQnP/lJufvuu90oMGShCQcj7VBpQorWPqRDNU0lAIBRog8ERiypTYjLrn+CCgIztSbNr6GII4lqmRqJotx2ljRb0AcCAEaKB0lhZQQVqVayDQqhVG2/B9f0YPsxVM1UX8l2JNPBcunzJwAAo8CXaWFN48u0gJXBl2lNBr5MCwAAjBQBAgAAeCNAAAAAbwQIrGn0fwCAwdCJEgAAWHSiBAAAI0WAAAAA3ggQAADAy6ZNm+gDgbVNHyQFYLS0szIPkpoMPn0gCBBY03gSJbAyCBCTgU6UAABgpAgQAADA2/TOC14hW7Ztd6MAAAD9TX/v/vvkyGOH3ShQk3L61dhu8P+GbN1GSaLYjQIATjk0YSBHIJV6QxqNZKiGbjIAAA4BAgAAeJmdnSVAoCjXLBGVm00bpWwbRRxJKW+6ysybmyubLalke+VyqTUtdzkVS1RKp2eaVNqWz0yvmWMsRWYtAMCoTC8uLrqXQCpbYHcU5HGYNG1UQ1N+R60wYArsoOqaPMx4ax2dV5MwbRKpigkhadEeSxxUzfSqhF2X02MpSS2sJ9N1+7ZJpX2fjXpFYhNG6HcBAKO3sLBADQTyZPtAaOGeMtMrbiwMzXQTAGwZr0GgIumsoFJpraPzbAhwgaRcM5PSUj4wmwmSl92Wi00YMaGlUnHLpezy5hjSHdn9m2m66dCEEhMoOtYAAAwRAQIrIJSqqz2wQ9demUWXAwCsNgIEli8IJIgjiVy7Ratpw9B5ZqzVbNFFt+WCUMIgb3qyfPOrLOz+XY0EfSAAYOQIEMiR7QOR0ylyiVCq1dCU28nyZW1acHPsvHpFzAab29PmiaW6LafNKVUJMtOT1ZPlY7fPOdt/ItvcAgAYpanzzjtvcdeuXXyZFsab/sVFKRKTJqTe2R9iGfgyLWBl8GVak4Ev08KpJ6hIvVGVoNkBEwCwmggQmAhJ80hZWn92AQBYLTxIChMjTJ8xQX4AgLFAgMCaRv8HAPCnD5KiEyUAALDoRAkAAEaKAAEAALwRIAAAgDf6QGBN0wdJARgt7azMg6Qmg08fCAIE1jSeRAmsDALEZKATJQAAGJmZmRkCBAAA8EeAAAAAXk6ePEmAQG/pV3R3Dt2/4rsm5bmS9P0G8Fo52VYpEr4eCwAmDwECPaXfQdFoVCWUQCr1ZHx5X6ltQka5lmy7XjFbBQBMGgIEVkkgAckBACYWAQKDiyMpNZs1ypL7RIUly2gTh/6MJSplmkLalpuTcnNjrkkkck0eZmhrPsk7Bm0eoWkEAEaKAIEBmYK9VJPQNWk0qmIK+c4iO2+ZQKqZ5pCkKUSXiyRIm0vqFYnL2X4UJmzEodtGaDJDlASFQscAABgFAgQGE8emWE9qEezdf7lmJnUU3kWWUXa5UMLQjQcVqYRmWnNREzYqbqZZyESIZF637YdV+lYAwIgRILAMoVT1zj8dqmkCyCqyzHKMevsAgDwECAwmCMwdfq13k0GRZZRbrvm1FHEkUS1TI9FNt+3TBwIARmrTpk0ECAzK3PnXKyJRyXVgTJoQ2hVZRiXLxekzJ2y/Bu0n0U/R7QMAhml+fp4v08LaxpdpASuDL9OaDHyZFgAAGKnpnRe8Qracvc2NAgAA9Df9vfvvkyOPP+ZGAQAA+qMJA2sa/R8AYDB0ogQAABadKAEAwMjMzMwQIAAAgD8CBAAA8HL55ZfTBwJrmz5ICsBoaWdlHiQ1GYr2gfjfv/9BAgTWNp5ECawMAsRkoBMlAAAYKQIEAADwRoAAAADeCBCF1aScfmW0G0pR7OaNmu67JMV35451yVdb+26njziS0jC3BwCYGAQIL4FU6g1pNHSoShCVcgrpTkMutAsLJIjL0vfwliOoSL1Rl0rgxkdqtc4jAKATD5JallCq9YoEtZop2sZTWKlIHEVCmQsAGDYCxHIEoYSBCRAuQdTKmSYOe+uvd81l8/9YolKrSWHpcjls80CyzJKmksy8Obv9LoKKVIJIyl1u2/OPwx2rm946vLzp2VoB97rWOjZdJtZaGjfe9j5y34PbRlTuWCf/PLZvI3OsNbN+ieAEAKNy8uRJAsQwhdVW80ZoCtIoDqWqr9Omj2rYZTk7OcMUmKYADNxyVTOelo3JvJqEaVNKVUyB272oDKva1FLOrfrPPQ79GVTddLNve8hacJekFtY7pncyy0Vi3rMeV2gDStkcvV3HjGttSDModH0PZhvmvLWvk3ce289Ro16RuEwTBwCsFALEsgUSpH0A9M7X3g33qBVQ/ZaLY4m19sAV0kGlYgpPR+fZAt3deZvb7thM684UvtXAFNA5e8o7DvNmAjO9vbbABBhTqFf6dnYwBXy1Yv5vhKEt8MPQrWPHzZHrZnu+B7ON9I1n1+lkt2HmpyfGni+3bGhCizYvJXMAACNAgFgOW7C6AKHV6WV3992rY2HR5XrSO3J3561DfnVAS2gK184Old2Ow3aM1FqPJFy0rTNUnu8BADBWCBADS6vQtWrd0DtivXu3rzVY6IscRZbT+aaATysNWlX/hl231rPZYqmkZiAuZ2oa+hxHUKlL3aQKWzPg+nr47bOHgd5DB7eN5ldZ2PPlaiToAwEAI0eA8JKpdp8z4aGe6Qugd/niOvWV46RWwtJCza2nt/Ndl8vSZoekD4GtBdBtuDl2Xr0iZoPuONx2+wkqUs1Wd3Q7jmazhnZg1OYEnaF9D9yfrbp5y6uZGOQ9dJxHt4047Qhq+1S4MAcAGDm+TAtrGl+mBawMvkxrMvBlWgAAYGR4kBQAABgIAQIAAHjhQVJY8+j/AACDoRMlAACw6EQJAABGigABAAC8ESAAAIA3+kBgTdMHSWFt0A6zPMwI6M2nDwQBAmsaT6JcWwgQQG90ogQAACOj30FEgAAAAF4ajQYBAgAA+BujAFGTcu7XOuv0kkSxG21Kvtp5eV8rPSrdjrkb994zw1Del341dykyZ2o5fH8vA4r1q8W7bW/I+wIALNuY1UAEEsTlQoVnHJUlrjSkGroJEy+QSr1hq4Ua5k3VymVTbC6HKXSjQOr1itnychX/vQwsqEi9UZfK8g8WALACxq4JI6xUTDgocNccVk+h8NAhDCU0ZyBezh13rIFkGOEhUfj3AgBYE8avD4S5E60Ekbl7ziuqWlXZQaBFY7Zq272uaVV4qxkgjkrNZoFSdpu2yjxtMkjv9pNtlMu6jpvWtlyPpoXMcm37Ubn76qFWk1pgQkRa+nddP2nGWXJsunyp5NZpf2+Fz0+nnr8Xs/Vy6zhazR1dji93evZ3aRQ+n322O5RmHABAp7HsRBlWqxJE5QHavE0BEolUm80AphCRarNZQO+gk7LGFFalmoTNJgMx6zVLLnPzrutUxWzBLBdJUHXLmTv62ISLpcfVvlzVjDfLtJ77ysoUfrXQ7ivJD93W1+VLUgvryXTdr62R6f3eip2ffL1+L2F6jvS8mZBil9Gf9lwm85Lj63bcWf3OZ5ffSe7+AACjYAPE4uKiHRkfoVSrgSnsehVneQKpVF3Ba5sBAvPD3cZnmwXM//S/ZoFtblXjZntBZh27nFkvLYj0Ljx028jS5ey8ZDSoVMxaTs99Zbk+EBoctAbCTe26fmyWiUOpdHYa6Lm/guenqx6/F73T1/1la0iCwLyXckfNT5fjztL30PN8dvmd5O0vNIFiiE05AACRmZmZ8ayBsEJTMIy0454pDN2dqh1GervqsS9TIFYrJgC03eb7HusI31ve70WbFMquZiPbEdK8l7qZVpUkXIzud+ms9P4AYA0b3wDh7pbjtr9GMHeYQeYuOXun7kPvVM2a+U0JGW655tclmIIyqmXuflO6nJ2XjLY1BRTdV4becTebCrqtb/tI5E3335+fnN+LrTHQ/eprrWGwU5uCSl3qJlXYmpBux51V4Hz2+p207Y8+EAAwdCdPnhznAGHYu/Fs5bMpvCpJ272tLjeFyGD31uYOvV4RyXQgbHX8y0qWi9P92b4F2jeik1nO3OWnx1U2461liu4rS6v4zSplLfi6ra9NHtonoTU92ewg+/PU+XvRWglxHRvLsZbxiWazhnaE1N+dzuh23Fn9z2fu7yR3fwCAUbBfprVz5065/r982k3qjy/TwqmCL9NaW/gyLaA3vkwLAACMFAECAAB4I0AAAABvBAisafR/AIDB0IkSAABYRTtR/tF7rqUGAgAA+BtpDcSZZ57pXo2v66+/Xm655RY3BgCTZRKus4pr7WQoWgNx26+/ffQB4uDBg25s/HzpS1+Se++9lw81gIk17tdZxbV2coxdgNi4caObMl70IUJ8qAFMsnG/ziqutZPDJ0DQBwIAAHgjQAAAAG8ECAAA4I0AAQAAvE0vLi66lwAAAP3Nzs6ufA1ErTwnpSh2Y06tLHPlmhvppibluZJ0rgoA6KTXyzmZywx9L7HdxJGUuPYix4oHiDAMJY7bP4n6Jz46vTjCBAD0Fkil3pBGIxmqPpfYrKAi9UZdKoEbB4yFhYVV6AMRBBKYwNAKw+Z1LTQBwo0CAICxtwoBwoSFQEODG9cwYdJDMz/Y6rJe1W5a+1A2/48lKpll3ALaNNKsrmuulNRUlMslM13XAYC1zNXeRuXm9TJpUk6up23XW21aLkVmTnuNL9dapFbhrzACCcOg2YzR3nxhPoTmAxtUXbVbvSKx+UC2N1WEUm1Uzf9d9ZyrlwvTdXReLcqsE0scVJPpbgoAnPrcTZYt7LOFupkeh8n10lw/4ygy88z1tBLa63HKXpsrFTOnHddapFYhQGglhPl4mQ+n+biZIBFoq0bChIrYfPSaeSKoSCXUZdx4L5qWl/xDUUlgAYC1JdsHIluoJ2HBsrW/7hqrr7VG2M4wP2O9/tqRdlxr4axKgLDNGPoBtR9W83q5nzlt9iiLVO0/FDr7AIC/0ASLWKLIBIooktgEiiWXUq61yFidAGGTqkhUjmzqbX4GtYOlDRZu3HxYoyIdLLXmwq6rrzU526kAAA9J7bBed7WWIicdcK1FxioFiOSDqh/D9iqvUKq234NrtyvVJKzntadpqMh0ogwrUhHX+bIct5pEAGDNyvaByHn+Tp60dtj+zMG1FhlTu3fvXty1axdf5w0AE4iv88YwFf067z/7z/9h9WogAADAZJqfnydAAAAAfwQIAADgjQABAAC8ESAAAIA3AgQAAPA29cY3/6vFszZvkrfd9BE3qT+fP+O844473Nh44k+LAEyySbjOKq61k6Hon3He9utvH+1zIN7//ve7V+ONDzWASTUp11nFtXb8FQ0Qf/Sea0cbIAAAwOTwCRD0gQAAAF4WFhYIEAAAwB8BAgAAeCNAAAAAbwQIAADgjQABAAC8ESAAAIA3AgQAAPAyOztLgAAAAP4IEAAAwAsPkgIAAAMhQAAAAG8ECAAA4I0AAQAAvBEgAACANwIEAADwRoAAAABeeJAUAAAYCAECAAB44UFSAABgIAQIAADgjQABAAC8ESAAAIA3AgQAAPBGgAAAAN4IEAAAwBsBAgAAeNm0aRMBAgAA+JmfnydAAAAAfwQIAADgjQABAAC8ESAAAIC36ZfvuUC2nL3NjQIAAPQ3/fAD98uRxx9zowAAAP3RhAEAALzMzs4SIAAAgD8CBAAA8LKwsECAAAAA/ggQAADAGwECAAB4I0AAAABvBAgAAOCNAAEAALwRIAAAgBceJAUAAAZCgAAAAF54kBQAABgIAQIAAHgjQAAAAG8ECAAA4I0AAQAAvBEgAACANwIEAADwwoOkAADAQAgQAADACw+SAgAAAyFAAAAAbwQIAADgjQABAAC8ESAAAIA3AgQAAPBGgAAAAN4IEAAAwMumTZsIEAAAwM/8/DwBAgAA+CNAAAAAbwQIAADgjQABAAC8Tb98zwWy5extbhQAAKC/6YcfuF+OPP6YGwUAAOiPJgwAAOBldnaWAAEAAPwRIAAAgJeFhQUCBAAA8EeAAAAA3ggQAADAGwECAAB4I0AAAABvBAgAAOCNAAEAALzwICkAADAQAgQAAPDCg6QAAMBACBAAAMAbAQIAAHgjQAAAAG8ECAAA4I0AAQAAvBEgAACAFx4kBQAABkKAAAAAXniQFAAAGAgBAgAAeCNAAAAAbwQIAADgjQABAAC8ESAAAIA3AgQAAPBGgAAAAF42bdpEgAAAAH7m5+cJEAAAwB8BAgAAeCNAAAAAb9Mv33OBbDl7mxsFAADob/rhB+6XI48/5kYBAAD6owkDAAB4I0AAAAAvs7OzBAgAAOCPAAEAALwsLCzI1O7duxdf9rKXybXRx2XD3GY3CwAAYKkfNY7Kpyo3JDUQzz33nDzx/e/ZGQAAAN1oXtDcYAPE888/L0/+gAABAAB607zQDBA/+tGP5Otf+Cs59sRhOxMAAKDTsSces3nh6aeflumpqSk5ceKEPPn44/KVu//ULQIAANDuK3f/N5sXNDfMbN68+QM6Uasjjv+wIfOP/kC27TxPTn/JBrswAABY27SF4kt/8gmJ/+6rcvToUTtt6rzzzlvUF4uL9oeceeaZsuWss+SyN/+sbP2xnXLWy3by1xkAAKwxTx+btx0mtc/DN774P+TIE0/IU0895ea6AJGGh5Q+YWrDhg2yfv16Oe2002RmZsbNGX+d7wX+5rZslcaRJ91YMbrOU415NyYyPZ08YuSFF16wP/MUWUbpZ1H76XQzjH3p5yb9nJ88edL+7Gbjxo1t/4g6FdmOLqP7fOUbflpmZte5qSLrzGHOrZuR9TNTbgpOFdpcPC58j2XUxz6O50ZLkvnnX5CnF1rXjMbjh+XBb35dTi6caC43rGtd0evhsK4/qt8yOv/ZZ5+1f2jxzDPP2GaL7O9qSQ2EyJvlnTf/c5mL75JbPvOt1vQ3/YrceNmZ8p2//Kj8+T6Ri/f+R7lqz3qR5x6Wz3/0T+XryVKJs94kv/qOy2SrHJcH//J35U67/HvN8g2590O3yxfXUCE/iYHm3J275ZHvfdeNFdO5zrp1SaGoH7huiiyjtm/fLocOHXJjSw1rXz7Hc/hw9w7HRfelF4zwht+WdSaop043weGc02dkgyaJNWCcCo5x43tufJYf9Xkfp+2nBXNR6bZPmmv3wWdOytHnWoXsow/Gcs9n75ZnnjrWXG6lrz/nnHOOPProo26snR7TsPallQcqXabznOt4jzObLJxdyb5OR81rHZ86/aVy8etbF0B13msvlK0muZw0C2fWdsPaYs9RwQHd5Z2vYQ6rxe46M+ixTE/nH+OpOIyTvOPrNWjBNE5D3jF2G3zlbWM1h7z3323IW7/QoP/lTh+NdPuTQ+T/A+A2kIot/VjxAAAAAElFTkSuQmCC;" parent="1" vertex="1">
                    <mxGeometry x="100" y="690" width="264.66" height="200" as="geometry"/>
                </mxCell>
                <mxCell id="19" value="&lt;font color=&quot;#fff5f5&quot;&gt;Preciso fazer um validador para mãe&lt;br&gt;&lt;br&gt;uma busca que confirma se o CPF está no banco&lt;br&gt;&lt;/font&gt;" style="whiteSpace=wrap;html=1;labelBackgroundColor=none;fontColor=#050000;strokeColor=default;fillColor=#050000;" parent="1" vertex="1">
                    <mxGeometry x="450" y="360" width="147.5" height="90" as="geometry"/>
                </mxCell>
                <mxCell id="23" style="edgeStyle=none;html=1;exitX=0.5;exitY=1;exitDx=0;exitDy=0;dashed=1;fontColor=#FFF5F5;" parent="1" source="28" edge="1">
                    <mxGeometry relative="1" as="geometry">
                        <mxPoint x="652.8518518518517" y="770" as="targetPoint"/>
                        <mxPoint x="653.085" y="730" as="sourcePoint"/>
                    </mxGeometry>
                </mxCell>
                <mxCell id="24" value="Irá entrar em loop até que todos os filhos serem cadastrados" style="whiteSpace=wrap;html=1;labelBackgroundColor=none;fontColor=#FFF5F5;strokeColor=default;fillColor=#050000;" parent="1" vertex="1">
                    <mxGeometry x="569.62" y="770" width="166.92" height="60" as="geometry"/>
                </mxCell>
                <mxCell id="27" style="edgeStyle=none;html=1;" edge="1" parent="1" source="26">
                    <mxGeometry relative="1" as="geometry">
                        <mxPoint x="1020" y="440" as="targetPoint"/>
                    </mxGeometry>
                </mxCell>
                <mxCell id="29" style="edgeStyle=none;html=1;entryX=0;entryY=0.5;entryDx=0;entryDy=0;" edge="1" parent="1" source="26" target="30">
                    <mxGeometry relative="1" as="geometry">
                        <mxPoint x="1210" y="470" as="targetPoint"/>
                    </mxGeometry>
                </mxCell>
                <mxCell id="26" value="" style="shape=image;verticalLabelPosition=bottom;labelBackgroundColor=#ffffff;verticalAlign=top;aspect=fixed;imageAspect=0;image=data:image/png,iVBORw0KGgoAAAANSUhEUgAAAhEAAAGRCAYAAADbxuFXAAAAAXNSR0IArs4c6QAAAARnQU1BAACxjwv8YQUAAAAJcEhZcwAADsMAAA7DAcdvqGQAACn6SURBVHhe7d0LnBxlme/xZ4JcAgmZBFwugXALUCA3Fd1hV1i5KF4QW3fRlVXSgEdYhPVyBBv04B49Qgsqx8VFcREb2ANeVrdd4KN4CK4BDwNeCAjSBhASCCSIZBIgF+A4+z5Vb/VU11TVVL9d3dOZ+X21SNf9reqaev/1VnX3wLwddh+VBFttuaXsuecCWb9+vWwzc2vZYost7Jje2GefveSRRx61fb12vBx/3H7y/N2Xy8/X2UFR80+T9x8gsvTWq+V+07vz/ufIca98Wm694zuyKpjC5w/fdpn86z232CEiB736XDlsB9sTseHxn8r3f/dL2zexob87S46d9ZB8/sr/a4eoN8kZFxwkO8qzsvSia+Rm2y/3XSZX3hSOi9sky2+9Qv71brvMnVbL4i9/X4bNGO0/ZsHzcu/F15plZXmN/N3HjpI95HFZ/HORvzx2d5HlS+Tn8ud+GS/6xq0ibz9FLjhEmsv685P/3qzraVl82fflLtP/9g99VA41e9Of1vbv//wS+fL1v/b7Q8nDj5Mzzj9ItjPrjE8flm2n1eE4W9YXxtbVXcH6Zi3733JlfCdG9skzuj/2eCHHvo548+nyxoUvyC+v+LY8bwdF7bLodJFrvilP+X1vkcM+Zlb2wCWy9Ccis/7mH+Tw3beRjea4G/63XwTLepXI7y4Lpt9l0Xmyv9wn/3nNj03f62Tfs46WHZ6200bodHu8MH647PeinHfMn+TBr28jN9pBADY/L7/8smzcsEk2btokz617Xl586SU7JpAYIuYOzpFddtlJTj31A7L7gt1l34X7yI47JtR8ALoq+sc5YP8tUuIVhFXE+iaz/KrTdU60fBcDiaUadViX69alramT5RX57ha9vO7SkhZ5nOTd8qLfxTTPPPOMPPTwI/LwQw/LDTd8T558arWsWTNix5r1xUPELrv8mbzpuKPlzDP/m8yfv6sdCmAyRP84u3FazTr5FbG+ySy/6mSdEy3bVXKI0PW1u0bXrUtbTzfeoalP91qRx0qedyFrfd18F1eufFKuvPJf5LbbfiZPPLHKP2a3mLntnH+04/0WiLe97c3yuc99RrbffrYdCmCyhCeEXp/ei15ft8qftdxO1tmtAFGcTrZO5w27UCfLQ7/o9ruoueDoo98ojz76mKx4/HHZuHGTzLDjZMstt/RvYZxxxgftEAD9oNMTg1aISZ0Kq5J4lyVpWWldnuVNRJeTJVruaJcmXsakbvIkbUlSl6WdLcizPGwOevkunnnmB2XXXXb2c0MzRMyZM1tOPvk93MIAppCiK8ReV7Dh+opabzfKr7cnxv9vshS9x1Q39tr0Fca2aNeJIpbRrvnz58v73neSbL/9LBsizDGyzdZbycJ9F/q9ABDXblXS6xPbRPq/Kuy3PRbq13JhMmle2GbrrU2IMH9Z+nDENjO38T+F0albbrlF3n/KKXJu5VN2CIB+0261MFkBIlxOp8vrZoDQ8+f4/7Wr3/YYukWPjXjXDd1ej+YF/fqHGeHhrt8D0cnHONesWSPnnHOOfOmyS+XE866V+++Nf14fQDfETxRhp7QqSeqikuaNd2mSlq1dO7KWr9pdXtRE5U/Syfryie6psMsSbkW0yzLR8jBVtPtOT3TktGPHHXeUV7ziFWPPRHTq/PPPlyPPuFw++MVb5dv/uUoGBwftGADd0ulJoZP5i6iqwvUXeXLrRLhN3auGizrt98seQ7fpEZPWpenl0VFIiDjzzDPlmLO/7r/+yuU1/199alO/pAIAJgPVLFw98cQTsvSeezI7nabfHHLoobLk9ttt33g67tDDDrN9xeg4RGzYsEEeffRh//Vnz/uo7HTwW+T/L/2avT0y/kuWk7z+9a+Xz372s7av1aJFi/wuauXKlTJ79my5/3790umx/ngXzqfLjw6/7bbbMocrLY+Oj9Nhuj6lyw/LcN1117UsS7twXJSuQ8fF6fri84frUbqs+Pgkne7LUFjOsIvuC502vhyl00X3ISZP1lVKqB8q2bCcecrbDtdtC+frnwCStmeK3mOIeuYPf5D9PU8OPuSQxO6AAw/0p+kFPRbzdpd/9aty2mmnyu0JQUIDxOlm3OWXX26HFKPjEPGRj3xETv9S8BsEy2//pv/vmmU/lUsvvdR/nZdOH600lfb/4Ac/sH1jfve738m73/3u5jj9uMlzzz3ndzr8zjvv9F9fc801/njVaDSa0xxzzDF26Nhw/fed73xnSxkefPBBPxzkdcUVVzTXocs74ogjxs1/xx13+GVMqmx/+MMfNufXbfDMQRydTucLx2uXppN9GXXuuec213XCCSekhhOlwUKXE93nKEbSyUI7pVVJUheVNK92rqLrSFpuUpclXt52JK1Lu6iwvNEuS3z+9mWtJV7SsMsSLXnWslGkrbbayr8YTuq23nprO1V/OerII+Xqq7/lB4loi0QYIHScTlOkjkLEo48+Kg88EFzBnn7EbHnTxQ/5r/fee+/crRAhrbDiFav26/A4raguuuiitoNKFg0iWglGaaV+1llnjauQ89DlaZDQ+aNuuukmf5smqmwPOuggP0hUKhU7JL9u7Mv4vonTEKLL1+Dlsr+QbKLqZSKdzh/nWn0VXY680srbvWo4uuR21jJZewhTTRgkNDRoi4R23QoQqqMQcdVVV8lHrvx/ti/w3J1fko0bN9q+/LSSijezaAUcr7y0gtKKSivppMrSlV5Jh8uN0iBxwQUX2L726LIOOOCAZqWqZdUreg0IeSrbcLp2dWNfash4wxveYPvG0/FaXv2ETlHvCfob1R7Qn6ItEtp907w+0gzTv9mi/247ChErVqzw/w1bIUb/9Cd5aeUv5Prrr/eHt2Pu3Ll+hRvem9eKSG8PxOlwraiUVop5m8/11kB4fz9aeYfDtRK8++677dAx4a0P14pRt0k//qq0rGFFnreyjYYQvdoPtyHpmYRQUftS90m4Pg0Z0dtAUbqcsJVDpyn6ntt01smVdDcq+XCZ7S67e1f+2dLK2Y19E4guuXtr2ZxsP3tWrg7Fyjr6dFzYdaqjEKH3hqJGfn6ZHH300TJjhttitSIKm9W1GT+p0tIKKhye94peRZ+JiLY2hMO1gk5bjjb36/MSLrR8WqmHV/1aZpW3sg1bCpRW9OE2TBSeitiXugxdlwaQpGcmQtFwFLa+hAEGE4v+QSf9YWsFHO+yJC2jSO0uO295J+qStLM/JlpWcbLWEpY4qdtMtFnUdc89n6tDccJnILQFQjt9HX1Gokgdh4jThsYS5CueXSoXXnih7WtfWJHpla1WRNHKXoW3HKKtCuH0ncq6baHl0IpUH5LUcuUVVqQ6v5ZRyxqWW7dB+7MqW50nrJzbVeS+/MAHPuA/y5FUVg0dGjD0IdJwOdqfFTowJq2qca3oul9Btmei+qad8mZNuxlVwTnolsa7InWwvHBHF7nDdVnxrhOdzr8Ziu46DQvhLQy9raFdN4NERyFi+fLlcvKpp/mv766+Ti6++GIZGOjsHdTmdb3qD5vHo7Riin4CQjt9+LCI5nO9Is+q1LUi1ecKdJo8dDlasV599dV+v5Yx/NRI2GVd4WtlrvtBW0FcFbkvq9Vqs2UjSssZtliEnbbuJE0LRBVdNSKvaVjLOnj55Zftq/Feeukl+6o/hFHzZ7EAEepmkOgoRHzlK1+R+3/1S//1xz/+MTn88MP9153QylqvnMNm/yitmOLN8uF0WVf0KnrFnfZRRa0oteJPo60VWSFCQ0a4Dl2OVqhavrBs8W3SbYlWtlrhh/PrLQidP9qCoBV/OF67iba5yH0Zhqz4R1Y1dMRbS7TMOiypVQOt0k7nLqf5fqyU08pUdFn7cdvd6bsf7/pEuKOL3OG6rHjXiU7nN3Z85Svlwd/+NvFLprR7wJwjdZp+Mjo66l84xgNEKAwSZ599th1SjIG583bzd7nnLZSf3HKjP7Ad69at8ysNrfAATEz/4DqpFgo4RxZKt6XIMqXtm37b7uL1UVjoRHQzpv6b1lc0SLR7N6CTo+7Nx5/QWUuE6tcv3QD6UXhOdT239ts5OTwBFVX9ZS2nqHVMPX10VMTfJO1P6tqRNH9S56qTeftM3gBRxG4LFRIiwvv+ANAtU/+idupvYdMUqrg3R3qkZXXt6DhEqJNOOsm+ApAlPHe6nEPb/ePuhbBMRZUtbTn9uO39o49q5Pgbpf1hF5en2PFpostLWqaLopYzhbSziwsJEQDSxf8Q2z3l5/1jniztlm2i7Q+3N9phEukbltYlaeeNS1uGio9LWl50WFaZ0DWECKCLwnNcnvNpEtf5+lV4judcn0bf8aSuXZ3Ob030RoUVd543NK0Y0WVEO1dJy4p3KAwhAgAwvRAkcovH0XgWJEQAXRSeq1zOWfE/1qkg3KapuG1uwkvjsCtKQctt542aaDUdFMOJlj3eoRDR3UmIAAoWP1dNdO4M/yDjXZKwSuj1+bhIads2/bTzLha416IHUdhlyTog49pZbruSlpe2jrTyRod3o4zTECECKFB4jsp7zs07nYqf7zj/TUVZ76oeLWldTmmLz3MwtbGaJl1u2BUhuryUZY62W874MpM6pCJEAEAeU71i2Uy2ySXLoHtavvb6E1df7w8EAADI8sXTTqYlAgAAuCFEAAAAJ4QIAADghBABAACcECIAAIATQgQAAHDi/BHPY3fe1r4CAABTxeJV6+2rbHzEEwAAOCNEAAAAJ4QIAADghBABAACcECIAAIATQgQAAHBCiAAAAE4IEQAAwAkhAgAAOCFEAAAAJ5EQ4X/7NQAAQA6jtEQAAAA3hAgAAOCEEAEAAJwQIgAAgBNCBAAAcEKIAAAATggRAADACSECAAA4sSGCL5oCAADtoSUCAAA4IUQAAAAnhAgAAOCEEAEAAJwQIgAAgBNCBAAAcEKIAAAATggRAADAiQkRfNEUAABoHy0RAADACSECAAA4IUQAAAAnkxAi6lIeHJTBZjck1YYd1Ve0nP1atnbY/V2u2/5WjepQ8ntQL8vgUFWSNz+ybxpVGZoS+ymvSTou2tnP+t7pe576/k2eeln/5stmLzakWu5F+Rzer2l3TAPuJqklwpPK8IiMjIzIcEV6dDLplX4MH5545sQ4vkx1qSYW1GxD1ZNh8+Z4dkgqryLDI8NSmXBCdCT3fjbvnQmMpZr5+8rz/vVU3fyvZsrlSdX8jdS9Up+Vz+KYBnKb9NsZXqUipYY5uZD6u8ozJ8R6fCfXzX4vlaRke5saGvL6rQJCfiY09uWbV5JazRxtfiWtFxAcYcDmru+eiQiaO23XbIIPru7LZW1616bQtOniGlIdGpsunCx1Xr8ZMxg+FLtCT54nvnwtp22q1eH+dHnLPn66FpGyBeuyw1O2MU7DmletRpZr5jPbWKnEIoSuZ2jIritSjtR9E5R7bFBKeZzLb5dfT1p/wj5rWU9y+ceG22VXbfO/6Vq3LaNsKfsjz3GZ71iyg5ui+zmt3Dpcty1YVrNcqfs+vv/sciP7WqcNbnlF1xNI39Z2jwEj8f2ZaJ9klSGmrfcr3Nex/Ri/xZe2PZm3AoGpZdJDREMrNs9cDduLEr8Z1lyljIzUpGROZmN/7w1zgVwLhpu+9OlCegIYMlfaw3a6EdGLIJU8rzlxmD98z46r+afUMYnz6L9+mew85qq+5pfP3q4JV5i77K3TjWktmzZTN8yJP7kMwRzjmX1cMtsUbpS2/uiwlotBXY8Zam81mWLY2x3Z+2ZM2j7vtPxmuVUx+zaYV0zlmbzPssqfNFyZZTdKdngpOB7D4SnHT0t5WubJc1zmPZaCadMllbv1+Auu9DP2vS9+zLVum1ayZb0F0bKeQPK2pu23rHKkvD859kme/d2yTbHjJ3t+3Y81G75NGctmGWb+4E9mov0KTA9jIaKn3zmlJ5ogvQ9VvcgfphE+FBa9ivR5phKM1Hip01n+LZKSudJuqSUDSfOaq46GV5Hwwty/zRK8DCTN43nimeHRK5tkecsemy6kZTOlMRkl4JfTDNPV5i6DOWGabdJKQKesm3/91olgVMBfz9h7o1dmDV3JRPsmlLbPOy6/OZnXbFmj8/oi+8xfT0r5k4b7zLLDDfNv7dhlZx0/0fJE51Gp721E0jRtvI+BlHLH+duesu998WMuvm2R8Xm21eUY8MclvD959kme/R3dpvj2Tzi/3oIRv4VHX4TFz9yekgk+0XMaMFWZ3DDpD1aOXQEZ2jyof6v+8IwHm/JOl8Rl3rR5zIlD7+3WzLWanoiazZlZOil7knbKoC0+5lRZ96+49KRnh7fQq1ktm+2SLv+K1PY+jFQAidLK34PtyvPeFnksTaaij+Ok92eifeJUhsjxU/g2ANNPfz0Toelerz7813pF4w8dL890/i2ShE8fpM2rw8xJpWpPVNFm24nW51WG/abjRvPslCHvNkb505tpwwL55YxcBRn5yqBXr57/aRid2S9DlF3PuH2WtW+i0vZ5x+VvmHntcH+ftc7blFX+pOFZ0rYlS573doJp2jqW8six752kbYfLMWDHpe3r1H2SZ3/7Uo6fXPPb2xh6j8W8aB73WdujrRtDPBOB6aG/QkTJXB2LuTowVx2D5Yb+nSbLNZ22duj9zLGHwvwrmdR5tdkyuAfsT2v6m+fZtHmaTaHBbZmgCVdPJLZpNulyMu82tjBl8++5Busa9O8f2xacxDJk0PWbE33ydMF6TOGbywy2IWPftEjZ53a57uU3J+yGnc6/Dx1pvWqRUf7E4VnStiVDnve2rWOpCBn7vhOp2+pwDKS9PxPtk9x/SynHz4Tz699xWRr+7Tv9m2n4z0EE4aBL+xXYzAzMnTfffxrC23+hfOJbN/gD8zh2523tK6CbzJXgoDnxD9PcvFkxV+ZDpsI1icJvRQCw+Vi8ar19le2Lp76vz1oiAEwN/vMMNfGKui0DoC8RIgAULrj1VZbOH74A0M8IEehzJanx5PxmJ/z+hW58CAZA/yBEAAAAJ0GI6OkXTQEAgKmAlggAAOCEEAEAAJwQIgAAgBNCBAAAcBJ8Y+WoiOfxjZXTWb35IwDoN4sWLZK1a9faPgDorna+sZIQAZ+GCK2s0J8IEQB6ha+9BgAAXTeD74gAAAAuaIkAAABOCBGTqiHVIf2hItsNVc0QpT9/HRluunLzuUc7bmxAi0Z1yEw/JFV+PBEA0GWEiMnSqMqQqewbleCHivyupg842vHiSWU4HF6Serls4kPIE8/MPz4o1KVKegAA9AghYlI0pFquileL/cqhV5FK0q8elkpSMvM0IvnA8zRwxAKDSSB1f1oAALqPEDEZGqayb5jKPm9tr+HAM9NHfg7bq1TEq1YjrRMmmFQbUommkHo5cosEAIBiESImi+dJJBMkiDwvUS/JyLAJDXZMQEOICRdhitBgosOyFwoAQGEIEZOl0ZighcA+E6HhQVsi7NCoUqUijWrQ0lA3//qtE8GoQKmWED4AACgGIWIy+LcmIq0IWbyK1CrBrYpxdDkmXtTr+pBlyvMUAAB0iR8i+L6pXvP8Zxfq5ehHNw39xEVCsAiefygnfBpDl+P5D2nqAxbjWhx4JgIA0EW0REwWe6uhYYJE8/sgyn4WSFAyYUH8sDAuEJQqUvF0PDctAAC9NTB37vxRbYk4gB/gmtb4Aa7+xg9wAegVfoALAAB0HSECAAA4IUQAAAAnhAj4eB4CANAuHqwEAABNPFgJAAC6jhABAACcECIAAIATnomAT79sCv1JH3rly6YA9Eo7z0QQIuDjGyv7GyECQK/wYCUAAOg6QgQAAHBCiAAAAE6mQIioSzn8KW3blXvxjGCjKkODQ1Id99vcUVo2O03m9JHpcnOZBwCA4kyRlghPKsMjMjISdLWSHdxNXkWGR4al4tn+ibQ7PQAAfW6GfjIDAACgXVP4mYiGVIfitzjsLYC63loIhg9F7wf4txzCecpm6lDGsuzs9fLY+MHE+ymx2w+RdbWUwUhdVsY8iWWvl2VwqGpKDwBA8aZIiIhW8mEFWpWqV0u4xWGmrYrUdPhwRaRathW7qeSH6lIKb4vUzCh/hC57SOql4czbJaWanc/MWNJ1Z9bcuq6qeHaemumPxo7kZWXNk1Z2AAC6Zwo+E2EqXn+QJ565Eh93xa7T1irmv/qyIpVSQxp+VjD/RsNIuW4GmRENU1k3SlKZ6GEGveqPhpgsui5/3UGvV6kEZQ4lLStrnrSyl0yIMkGJxzAAAN0wdW9n+A8y6hV7UCEn3mHQqrclY5SCFoqwy/uEpt5KKNvWjU4fnnRelmPZAQBwNIWfiQh4lWEZNjWxf2Xua0i9bl/bVoaS1rfacmGu+8fdBvDMeC9heJTfSqDz62tdpj80nU5rwkLVBptGtRprcUhYVtY8aWXnmQgAQBdNwWci7EOHzVsC2u9FbkdoZWzH+c8Y2NsfeiXvPyMx1JwveKhRb5XUxIsMH9eqUapIReyDjeWG1ukTMOuqlUwR7fJMf7PdIHVZGfPouMSyAwDQPQODc+f7n/KcHj/ApZ+QMMFhmO9riOMHuPobP8AFoFf4AS4AANB1hAgAAOBkmoUI/QQDtzIAACgCLRHw8TwEAKBd0+zBSgAAkIUHKwEAQNcRIgAAgBNCBAAAcMIzEfDpl02hP+lDr3zZFIBeaeeZCBsiRk2I2JcQMY3xjZX9jRABoFd4sBIAAHQdIQIAADghRAAAACeEiK7RXwxN+kluHT4k+mvlAABszggRXeWJ1yjLuBwBAMAUQIjoslKlIo1qVWh4AABMNYSIbvMqUvGqUk67f9GoypDe9rDdWKuFve1RHxuv4xrVoea0Q9FltiynbOY26mUZHCLAAAC6gxDRA6VaTbxqOeE5CBMUTCXv1UZkZMR0wxVplKPPSzSkWhWp6bhayWQCEySkFkxr+rWFI8gcupy6lIbtcmpi5iM6AAC6ixDREyWp1TxTsccejmg0TEwoSalk+7XVomSGNet/Tyq1ivmvYSYqmVelkt9n++20/nJM4BiyLRHluhlkRpRM4DDBxM4BAEChCBG9UjIBoasPWZqgoq0QYVcLkwkAAN1BiOiZoFWhUbbPKyjPM0Pr0vzZikZVqvVIy0RedjnjbmHwTAQAoIsIEb3kVaRWid5cKEnNfw7C3obwn2uomaHtCpYjkYcux38/BQAAxeIHuODjB7j6Gz/ABaBX+AEuAADQdYQIAADghBABAACcECLg43kIAEC7eLASAAA08WAlAADouq63RMyZM8e+6l9nnXWWXHzxxbYP08nmcHwqjlEAvdJOS0RPQsQTTzxh+/rP4sWL5a677uIEPU31+/GpOEYB9FJfhojZs2fbIf1Fv2SJE/T01e/Hp+IYBdBLPBMBAAC6jhABAACcECIAAIATEyJG7UsAAID8aIkAAABOJiVE1MuDMlRt2D6rXpbBct32pKlLeXBI4rMCxdLjbFAGI92Eh2aaRlWGOGYBTFGTEiJKpZI0Gq1nVf0Ymw7Pj0CBbvKkMjwiIyNBV2vn0IzyKjI8MiwVz/YDwBQyObczPE88ExrGLu7M63rJhAjbCwAA+t4khQgTGDwNDrZfA4VJEM0M4TcBZzUlaytE2fy3IdUhM42dQG+TNJugmzMFLRbl8pAZrvMArmzrV7XcPM6C23LBcdhynOrtuaGqGdPaYsYxCmAqmaQHKz0plbzmLY3WWxnmhGpOvl7NNiUPV6RhTq6tty1KUhupmf/aJmfb1lwK59Fx9WpknoY0vFow3A4BstmA6lf40YrdDG+UguPMHHeNatWMM8dhpeQfxyH/mK5UzJhWHKMAppJJChHaGGFOleZEa06dJkx4eocjYIJFw5xGm5nCq0ilpNPY/ix69TfupK+C0ALkF30mIlqxB4HB57ee2WNTX2uLmj/C/NvQ49bvacUxCmAKmbQQ4d/S0JOtf+I1rzs9f+otkLJIzT/p8yAbeq1kwkVDqlUTKqpVaZhQMe4Q5BgFMMVMXojwr7xEquWqfxXXPJ/qQ5d+uLD95sRbzfPQpbZg+PPqa70S9IcCPRO0runxqq0VCQmBYxTAFDOJISI46eoptbUZtyQ1/zkIez96qC6l4aT7xBosIg9WlipSEftAZrkxdnsEcBJ9JiLhe02ShK1r/r8JOEYBTDEDg3N39b/3mp8C52eWpyN+ChwAWvFT4AAAoOsIEQAAwAkhAgAAOCFEAAAAJ4QIAADghBABAACcND/i6XkL5dxvfdsfmEc7H/G85pprbF9/4uNz09fmcHwqjlEAvZL3I56Xnvq33Q8R559/vn3V3zhBT0+by/GpOEYB9EJfhQgAALD5aCdE8EwEAABwQogAAABOCBEAAMAJIQIAADghRAAAACeECAAA4IQQAQAAnBAiAACAE0IEAABwQogAAABOCBEAAMAJIQIAADghRAAAACeECAAA4IQQAQAAnBAiAACAE0IEAABwQogAAABOCBEAAMAJIQIAADghRAAAACeECAAA4IQQAQAAnBAiAACAE0IEAABwQogAAABOCBEAAMAJIQIAADghRAAAACeECAAA4IQQAQAAnBAiAACAE0IEAABwQogAAABOCBEAAMAJIQIAADghRAAAACeECAAA4IQQAQAAnBAiAACAE0IEAABwQogAAABOCBEAAMAJIQIAADghRAAAACeECAAA4IQQAQAAnBAiAACAE0IEAABwQogAAABOCBEAAMAJIQIAADghRAAAACeECAAA4IQQAQAAnBAiAACAE0IEAABwQogAAABOghAx6v8XAAAgN1oiAACAE0IEAABwQogAAABOCBEAAMAJIQIAADghRAAAACeECAAA4IQQAQAAnBAiAACAE0IEAABwQogAAABOCBEAAMAJIQIAADghRAAAACeECAAA4IQQAQAAnBAiAACAExsiRoN/AAAAcqIlAgAAOCFEAAAAJ4QIAADghBABAACcECIAAIATQgQAAHBCiAAAAE4IEQAAwIkfIviqKQAA0C5aIgAAgBNCBAAAcEKIAAAATggRAADACSECAAA4IUQAAAAnhAgAAOCEEAEAAJwQIgAAgBNCBAAAcEKIAAAATggRAADACSECAAA4IUQAAAAnhAgAAOCEEAEAAJzMkFH7CgAAoA20RAAAACeECAAA4IQQAQAAnBAiAACAE0IEAABwQogAAABOCBEAAMAJIQIAADghRAAAACeECAAA4IQQAQAAnBAiAACAE0IEAABwQogAAABOCBEAAMAJIQIAADghRAAAACcmRIzalwAAAPnREgEAAJwQIgAAgBNCBAAAcEKIAAAATggRAADACSECAAA4IUQAAAAnhAgAAOCEEAEAAJwQIgAAgBNCBAAAcEKIAAAATggRAADACSECAAA4IUQAAAAnhAgAAOCEEAEAAJwQIgAAgBNCBAAAcEKIAAAATggRAADACSECAAA4IUQAAAAnhAgAAOCEEAEAAJwQIgAAgBNCBAAAcEKIAAAATggRAADACSECAAA4IUQAAAAnhAgAAOCEEAEAAJwQIgAAgBNCBAAAcEKIAAAATggRAADACSECAAA4IUQAAAAnhAgAAOCEEAEAAJwQIgAAgBNCBAAAcEKIAAAATggRAADACSECAAA4IUQAAAAnhAgAAOCEEAEAAJwQIgAAgBNCBAAAcDJj1L4AAABoBy0RAADACSECAAA4IUQAAAAnhAgAAOCEEAEAAJwQIgAAgBNCBAAAcEKIAAAATmYM2BcAAADtoCUCAAA4IUQAAAAnhAgAAOCEEAEAAJwQIgAAgBNCBAAAcEKIAAAATggRAADACSECAAA4IUQAAAAnhAgAAOCEEAEAAJwQIgAAgBNCBAAAcEKIAAAATggRAADACSECAAA4IUQAAAAnhAgAAOCEEAEAAJwQIgAAgBNCBAAAcGJCxIB9CQAAkN/A4OCuo6MyKvvtu7d8+J+ulNlz59lRAAAA4z235ln56jkfGrudsWHjRln92KO2DwAAIJnmBc0NM/Ruht7Q2Lhxk6xe/vtgLAAAQArNC5obmi0Ra9c+J3feVJc1q5+yQwAAAFqtWb3Kzwvr1j0fhogBefHFF2X1k6vlpzdcFwwCAACI+ekN1/p5QXPDFtvMnP2P4S2N9Rs2ysa1I/Lsk4/LznvtIzNnzQrmAAAA05reqfjRVV+T+35+h6x++g9+bhgYnLvrqD/W/Fc/pTEwMCBz586RnXfdWf7qXSfJ3F13l5323ItPbQAAMM3opzD0IcrVj/1e7ry5LqueXCVr1qyV0VGTF/R/YyFCI8SYrbbaUhYs2E02bdwo28zcRl6xxRZ2TLLovEXYfbf58vgTK21fb2237bbywvr1ti9J0Vsbs8OgLHrtVvLoT56WJXZQYTpZ9l/uKe/fZytZ9YtlsnL3/eS1O78oD1/7mAybUX/x7kNl38HnZdk3H5E7ddpX7Srvff2OIk89JN/58Qa//8Td18h//HimnHjqbjLHTLL2ofvkP+7QifvJTDnu5IUyc8Vv5MZCylb08tINvetgWbD+YfnuLWZ/t0HnWzjnBXm49nv/vczDe9NCefXOL8kj1y0XOfFA2Wfms3LPd1ZJw47HFKSXndPG9NnYibb0pZdflo0bNsnGTZtk3brn5MUXX7JjdN6WEBG0RETtsMM8+eMf/9hSZ8an6ZbDDjtEli69z/b11ry5c+XZNWtsXwFMQGvLXvPl6pO2k7suWSZX2kGF2XO+fPOkbeWuSx+Sb9hBub35QPny+2bJPafeLded/nr5+muel3/78G/lVhMJzv3G62QPM8nyf79VLvmRyPEXHCvv8Af8Us6+aK0/++Zhe/nvVxwlc359k1x4lR3UkaKXl+6Ui98urx25XT7yhXV2SF6mjP98pCxY0ca85cPlnw97Xn7wURMbPn6kvHvw9/LhCycn9MPN9MoE02prC6EBwb6wxu9DvXMxFiJUrDWiGSKUHZFeHbZZUU5gSoWI3ObJZeftK/Nt35gNcv9375XP+l/jMVMuPPtQOWg7f4TIk8vkPdc9G7w+Yj/57lHzZOWSYfmY3xxgp5XH5dqvbpBjP7mfRN5tyyz7e/fK5zr6ipAgRMhj602QeMCEBpFzL10gf1izkxw1d5mcdu4Kf6rjLzhO3nvgtv5rkfXy4P+5VS41gSOgy/grOSAc/dTS5nyh7CNsgXz+ukNlF9sn6x+T75zxG7nF75kj5115lHjNVUfHqWDenf40toanbr9J/kdY6X/wCLnqyB1sT2yccXzlGDmpWfCx8YuqJ8iRzQKNWf/g7fIPVROs3nKQ/NP7ZsuvFj0hC6+xZTdl+97f398sW+uy10vjhtvkiz+2vWa7PvG1I8e2y2gu27e7fC5crnrqXvlg5XHb08ovq6SPx+Sg6stAMChI8n4cnx1ap/P7xocI/f9YbxAitIKyw8ZGjZMxKkX2HJMaIuaZEPHsZIQIa6/5cu17t5Ph6jK5wg4KnXXKkBwry+Svr9X3ZaZ85uxDZK9H75XyzUET9jvefpic8qr1sviSZbJSX+/1BxMgVsqN/lhjz/nyrfdsJ3d9YZl83Q7q3KB88ioTIn6wTLZ/1/ay5N9Fjnr1Clkir5O/NSHi1E+YMPC2g+XzZtinPh9UcMd/ygSKPVbLdz4UVOblS0+UoyQMDkGg2OOxn7W0YqQfMUEImPPgksRWj+MvOEIOvedOv4UkDBQLlofTJvfP+dWN8im/qcYs+xKRT51nA82HjpCrjxRZ8oE7pab9bz1YvnryLPll2D9OfHkR/rx7yrYaDq5fbMoXbIfcbqc14/19ZrdJW3feu8fTzQBUvuQdZp/dK6fZspW/8A557cgSOefiYPryF44Q+WRYrgXyv64Nlv3pf/EHRJj9/fVgH4Tzoj8kn94nSdcL01db22e6t28yl9wcOX4qbYVQrT/AZYYlL9AOTR7p01HtdMlDx7qggGGHwDzZf9dnZbEfINQG+Z+/WiOz995BTrT76sab75WfrtpB/uKE3eS4g0UeuPlJEyBa96X/3+gg2535mgvke2+Ldx+Xz+iHdBKmH+vmyKC2jAwsl0fW7SxvPHZ7Wbd0rQzMGJAZ+j7qND/6TVAZ2nluWfq0bJy1vexqekX2kP3m/1Fub7Y8rJVLf/1HmbX3HvIWO0TZWcd1b/30/rLbpuVys1l+0vifXHSn3+IR9K+V+1ZskFnz5gT9Z7xKDpzxmNwUmTe8wgn6V8inTSUdjhv4xkp5amA7+bO3huNNN/BK2fdDkf5Y17q8WGfGPXX7Ylu+FfLwqgEZ3FGfGDHCfWbdcs/Tsn7bWUHLggkYh+/yjCwJw40yC7Sr8tWaAULpsk3ce6Vdtk8Dzjvk6uuOkgMGzD7YTAJEy/6b4l3bkhZSVJc4sMgORUjas1ldqubI8VM1b3WIyH8BOnYQsfIE8N8AAAAASUVORK5CYII=;" vertex="1" parent="1">
                    <mxGeometry x="840" y="370" width="263.84" height="200" as="geometry"/>
                </mxCell>
                <mxCell id="28" value="" style="shape=image;verticalLabelPosition=bottom;labelBackgroundColor=#ffffff;verticalAlign=top;aspect=fixed;imageAspect=0;image=data:image/png,iVBORw0KGgoAAAANSUhEUgAAAhUAAAGTCAYAAACf5eAmAAAAAXNSR0IArs4c6QAAAARnQU1BAACxjwv8YQUAAAAJcEhZcwAADsMAAA7DAcdvqGQAADmTSURBVHhe7d0JoCRVfe/x/wVBloG5s4DsgoIUCLg8A21cEHEHYz0JUXGhQQ081Kgo2kzUGE2gE1xi8BFxwUYEND59bYIa8gSjiDaaiCBCseiwDAgKM3cGmBmW9+ad/6lT3dV1q/fTy+37/cCZ27V2VfVyfnXqdPfM8hX7bBHL/cnYdddd5Pe//0M8UJ8zf17fnve8glx9dc0NjdqZUnr/n8jKa/9R3n/FpW5cw6uO+4kcdssfS/lXboTO/74Xyf0Xv1y+eK8bZQQvvlxOX/Yf8uffPNuNabDT9r9FPvX5d0nkxnX2fvnmLw6R655dlI+5MfLRilz7ogfkUy96n1xkpx8p93/y1XLKxfHkj3zzSjn6/s/Jkaf8sxnKTNdlD71BnnXcJ+y8dW/8pPzwfSvkivT95Eivu/l+jBPOkR+cvkKufM7J8nF5n/yv/3ylyL++RP70r+PJIsfL5648RVb+MD2uhZ1Pk58c+3TZyQ3W3XWFHHrVt9xAawce9V157zObl/7t918gf19//Jq98rVXyVHrPisf+MHX3Rj1QfnAe82xu+RVcsF9bpR60mfk7094ttyftz6d9mqRL33x3XKzG2W3ZdkP5dRv/Z0bAwCTZ8b85250IZ7JhYr8kLDtNtvIvvvuIxs3bpTttn+ibL311m7KaDz1qfvJb36z2g2Nwc6vk+MO30e2twMPyC+/f4HcYG8/R573/KNkv+3sQMpmWf2zc+XqDW7Q2O3Ad8lLdrhFvnrt5W5Mg522y+/l+z/+uqRySHuHHyfve8k+Mv+u75QrPvVNqclL5ZRVB8jD3z9PvvqzeNIxp7xXgod+JJ+8+L/mDevtve7+tJx/mZ3UYO9niURnXSjfcaOsY94iqw5b7gZim+/4kXzqkl/IMX/+HjnQrFdvW2Ydpx+9o9x89lfMOl4ip5x5gDx0xT/JxW67RJ4tb3zvC2XJLf8g5zfdiX+7HfhOOdo8Dhdf++9uTMYeJ8kbD1rhBmKb1vyHfOvm/3RD6mXy8qOfJg/9/LNNj7GVXl4fi6v/OX5Mc9Zrrb2+9bYAwAR5/PHHZfOmR2TzI4/Igxsekkcfe8xNyTIxZPmKvXMTxbLZpbL77k+Sk056s+y9z95ywP5PlZUrc94cAQxV+gXa1QlDj9q1O/q4v3Fuvxr0Pjutvx/1M8Am/bQB97t3re5pkPX5fHR9r2+4dEt9Pk+63XPfj2Ir999/v9x622/ktltvk0sv/Ybc87v7ZN26OTe1WW6o2H33XeWlLzlKTj317bLnnnu4sQDGIf0CHcbbbLs3Qx/3N87tV4PcZ6d19ys/VOj99XqP/e5dq/sZxiM0/fSo+XyudPMotLu/YT6Kd999j5x//hfkyit/KGvW3DvvObv19jss/ai7bWkLxate9TL5+Mf/Snbeed4VbAAjlrxBjPrt3vf9DWv72613kPv0WUkMxyB7p8smJTHI+jAphv0oai446qgXyerVt8udd90lmzc/4qbEtnJ/rW222cZe8jjllLe5MQAmwaBvFFpB5hWVVC3Z0k7eulqVbtbXia6nnfR2p0sr2W3MK+OTtyd5pZ1e9qCb9WEhGOWjeOqpb5M9dt/N5oa0plCxdOlOcsIJf8YlD2CK+K4gR13hJvfn636Hsf16OWP+f+Pi+4ipYRy1xSuJcekyCB/r6NWee+4pb3jD8bLzzkvcmFgjVJjnzHZP3Fb2P2B/NwIAmvVatYz6ja6Tya8aJ+2IJSZ1uzBOmhe2e+ITm15YcagwI7SzxXbbb2c/5TGoyy+/XN70lrfIGaW/dGMATJpeq4lxBYpkPYOub5iBQt8/5//Xq0k7YhgWfW5kyzAM+340L+jXTdhnu1v5VvHteEi/h2KQj42uW7dO3vWud8knP32O/MkHviI3XOe+rwDAUOkrOK8orVrySlrestnSSt66tfSi3fpVr+tL67T9eQa5v+6kj1RS2kn2Il3a6bQ+TIteH+lOz5xerFy5Up7whCfY20mwaOpTMagzzzxTXnDKufK2T3xfvvYf98rs7KybAmBYBn2TGGR5H1VXcv+D7ocvyT4Nr1r2VQ1MyhHDsOkzplVpZVzPjq36aaTLc+qpp8qL3/k5e/sz51bsX+0Vql+aAQDjQLWLfq1Zs0Z+ee21bYvOM2kOe8Yz5EdXXeWG5tNpz3jmM92QX5onvLRUbNq0SVavvs3e/tgH3iNPOvQV8n9/+U/ucspKO76Tww8/XD72sfxfmTjxxBNtSbv77rtlp512khtuiL84OxnOlmQ5XX96/JVXXtl2vNLt0elZOk7vT+n6k2246KKLmtalJZmWpveh07L0/rLLJ/ejdF3Z6XkGPZaJZDuTkj4WOm92PUrnSx9DjE+7s5jEJFS6yXZ2s7296HffkuUmJ5C0OjK+jxjS7v/DH+TAIJBDDzsstxx08MF2nlHQ52K35dzPflZOPvkkuSonWGigeKuZdu6557ox/nkJFe9+97vlrZ/8vr19x1Vfsn/X3fIDOeecc+ztbun86UpU6fC3vjX/B6Nuvvlmee1rX1ufph9vefDBB23R8T/96U/t7QsvvNBOV1EU1ed58Ytf7MY2xuvf17zmNU3bcNNNN9mw0K3zzjuvfh+6vuc+97nzlv/xj39stzGv8v32t79dX173ITBP6vR8ulwyXUsrgxzLtDPOOKN+X8cee2zLsKI0aOh60sccfuS9eWhRWrXklbS8ZbX0K30feevNK+1kt7cXefelJS3Z3nRpJ7t879rdS3ZLk9JOesvbrRs+bbvttvbkOK88UT/1MIFe+IIXyAUXfNkGi3SLRRIodJrOMywDh4rVq1fLr38dn+G+9bk7yUvPvtXefspTntJ1K0VCK7BsRavDOj5LK66zzjqr5+DSjgYTrRTTtJI/7bTT5lXQ3dD1abDQ5dMuu+wyu0+dKt9DDjnEBotSqeTGdG8YxzJ7bLI0lOj6NYj1c7yQr1N108mgy2f1W5353o5utdre4VXL6TX3ci/jOkKYNkmw0BChLRZaRhEo1MCh4otf/KK8+/yfuKHYgz/9pGzevNkNdU8rrWyzjFbI2cpMKyytuLTSzqs8+6Vn2sl60zRYrFq1yg31Rtd10EEH1StZ3VY949fA0E3lm8zXq2EcSw0dz3/+893QfDpdt1c/AeTrMcFkoxoEJlO6xULLl8ztF5hx+pod5ut24FBx55132r9JK8WW//f/5LG7fy6XXHKJHd+LZcuW2Qo4ubavFZNeTsjS8VpxKa0ku21u10sJSf+AdGWejNdK8Wc/q/8ud11yqaTfilL3ST9uq3Rbk4q928o3HUq0NSDZh7w+DQlfx1KPSXJ/GjrSl43SdD1JK4jOM8xrdovNIGfaw3jzSNbZ67qH1zLQXqvtHN4ba3rNw7uXhWTnnZZ0VeBXu2efTkuKTwOHCr22lDZ39aflqKOOkq226m/VWjElzfDa7J9XiWmFlYzv9oxfpftUpFsjkvFaYbdaj14e0P4W/dDt00o+aRXQbVbdVr5JS4LSij/Zh05hysex1HXofWkgyetzkUiHpaR1Jgk06Cz9As97oWuFnC3t5K3Dp17X3e32dip5ejkendblT7t7SbY4rywQPW7qhgcf6qrAn6QPhbZQaNHb6T4Ww+IlVJxcaCTMJ6z9pXzkIx9xQ71LKjY989WKKV35q+QSRbrVIZl/UO0uc+h2aMWqnS51u7qVVKy6vG6jbmuy3boPOtyu8tVlksq6Vz6P5Zvf/GbbFyRvWzWEaODQTqnJenS4XQhBQ6uqp9+Kb/gVZm861T+9bG+7eRdQldwF3dNs8WmA9SUH2ucB13VlyyAGXX4BSh86DQ/JJQ+9DKJlVMFi4FBxxx13yAknnWxv/6z8R3L22WfLzMxgj6g2x2urQNKcnqYVVfoTFlq0M6OP5nY9Y29XyWvFqv0SdJ5u6Hq0or3gggvssG5j8qmUpLRrAdDKXY+DtpL0y+exLJfL9ZaPNN3OpEUjKdr6kzcvkOa7qkS3FmGt24fHH3/c3Zrvsccec7cmQxI9f5gJFIlRBYuBQ8VnPvMZueG//tPePv3098pznvMce3sQWnnrmXVymSBNK6psM34yX7szfpU+I2/10UitODUItKKtGe1ChYaO5D50PVrB6vYl25bdJ92XdOWrASBZXi9Z6PLpFgYNAsl0LZ322eexTEJX9iOyGkKyrSm6zTour9UDzVq9vffztj+JlXSrbfK9rZO47/3TRz9bJkRyoH0ecF1Xtgxi0OWNlbvsIjfdeGPul15p+bV5j9R5JsmWLVvsiWQ2UCSSYPHOd77TjfFvZtnyveqHPwj2l3+//F/dUPc2bNhgKxGtAAF0pi+6QaoJD++ZXum++NymVsdm0vbbvwkKD4NI78b0P2gTRYNFr1cLBnnWvezlx0oUxV9+qQZuqVCT+iUgwCRK3mP7fa+dtPfo5A3JV3XYbj2+7mP6TNCzIvsg6XBe6UXe8nmlX4MsO2G6DRQ+Dlseb6Ei6TcAAMMy/Se907+HdVNUkS9E+kxrV/rlJVSo448/3t0C0E7yXtrPe+ogL/ZhSbbJ17a1Ws8k7vvkmKAaOvtA6XBSsrrZ7Ow86fXlrbMfvtYzRfo9xN5CBYDWsi/MXquAfl7co9TrtnXa/2R/0wVjpA9Yq5Knlweu1TpUdlre+tLj2m0TRoJQAQxZ8p7Xzftrnn6Xm1TJez7v/a3oI55XejXo8k6nByqpyLt5QFttRnod6dKvvHVlC4aCUAEAWHwIFl3LxtNW2VARKoAhS967+nkPa/fiXaiSfZrGfetPcuqcFF88rbeXB6rT3QywGX3Rbc8WeNHqcBIqgCHIvtg6vZcmL9BsyZNUEaN+f/ap1b4tPr08ih6PWvpJlJR22j0hs3pZb6/y1tfqPlptb3r8MLZxkSNUAJ4l71ndvgd3O5/Kvv/xfjiN2j2q+mxpVbrUavXdPJl6uJs6XW9SfEivr8U6t/S6ndl15hV0hVABAN2a9opmgexTP9kGozHva7rff8ElbggAAKC1T5x8gv+v6QYAACBUAAAALwgVAADAC0IFAADwglABAAC8IFQAAAAvBvpI6dG77eBuAQCAaXHFvRvdrfb4SCkAABgKQgUAAPCCUAEAALwgVAAAAC8IFQAAwAtCBQAA8IJQAQAAvFhEoaIqxdmi+bcPUVkKswUpR2542KpFmW3a1kjKhVkzzpRC2Qxl6b656a4UO+6oLtNpn+L1dl4XAAC0VHQnKEltrialwA0PjQsPphIP3RirWpZqWJO5uTmphZFUc4NAIKXanJ1nrlaSqNhngEqpmjQRmv0OzP2PKk8BABaOJUt2lhW77CYrd40LoWKiuGBQaYoUJmGUJKwWbAtEoRpI2CncBIFZUyTRQEkgMlmqYsKN2aZSZnsAAMiRCRX1b+yecq7pv6yXGeLLBYX6dYDUpYZ603/6UkF8u1jUSj5uDagWG/PPtrpWYC+hZNfbreZWiI4NJtWqVE0QqbesNN13pgUjNa1xDIzI7Gf2kotelsm9/AIAWIweemi9PPCHe+X+38dlEbdUmPAQhXFFXQlN3VqOK9tqWcpBJR5vSrbRIBZJZOfRM3mRsOIqfB3W5efVulpBlyVI5rOXJ3z30UiFoaJIpb7het9VCZNQUhETppI7NsuUzbxum8SErHpwarkMAAD5FnGoSDXrh6EJB+5ygV46MGfkTWft8wRmkVR7ge1YqRV6i34MZsWRuQdzN7GgJKVw0MsTWenWjEDKScuKve904KiaUckdm2UqruUjvU2tlglNkOqmpQQAsCjRpyLLdsqck4rEQaHjZQq9fKAtA1qZj6QzZxcCE2ACFxCs0G2fK7nNL+n5VTfLAADQQKhoISjVpGYSQuOsvgU9q7cdI/V2Nf+TGXa6mZYEFBNEytVUy4VvdjvMfepGufvOv3wRmW1y4+0ybptaLUOfCgBAG4SKrPqlDO24qJdIOjQ9aIdIcZ0di1Fckc9jzvptPwp3OcH2V4j7Y/iTulxh15+0msT3bSbW96vRmdSEh8jtr+3zkWxTu2UAAMg3s2z5XvWPfATBU+X9F1zqhjo7ercd3C0AADAtrrh3o7vV3idOfoNE0W/cEC0VAADAE0IFAADwIhUqFssXXwEAAH8a+YGWCgAA4AWhAgAAeEGoAAAAXhAqAACAF4QKAADgBaECAAD0ZcmSnWXFLrvJSi277kaoAAAAfqS+pnuLBMH+fE03vKjWfz0N6N6JJ54o69evd0MAxqW3r+m+zdyascMuVMS5glABXzRUaAUB9IpQAYxf76FCzXD5AwAA+EGoAAAAXhAqAACAF4SKBaMqxdlZmS1mO0Dq+IKUIzcIAMCYECoWlECCqCjzcgUAABOAULHAhKWSROWy0DABAJg0hIqFJihJKShLsdX1jqgsBb1M4kqjVcNdJqk2puu0qFyoz1tIr7NpPUWztFEtymyBQAMAyEeoWIDCSkWCcjGnH4UJDqbSDypzMjdnSq0kUTHd3yKSclmkotMqockIJlhIJZ7XDGsLSJxBdD1VCWtuPRUxyxElAADtNYcK992amHShVCqBqegznSuiyMSGUMLQDWurRmjG1fNAIKVKyfxrmJlCcysM7ZAbdvPa9ZgAUnAtFcWqGWUmhCaAmKDilgAALHaZ3EBLxUIVmsAw1E6bJrhoK0VSKklSAQAgH6FiwYpbHaKi6++ggsCMrUr9ZzeispSrqZaLbrn1zLvkQZ8KAEAbhIqFLChJpZS+GBFKxfajcJctbL+Iihnbq3g9kurEOf/7MQAAaNb8g2IH7i/v/zI/KIbB8YNi6Bc/KAaMX9c/KHbSGyS6mR8UAwAAnhEqAACAF4QKAADgBaECQ0F/CgBYfGaWLd8z7qVp/g0COmoCALDY9dRRM7pN+2hatFQAAAAvCBUAAMALQgUAAPCCUAEAALwgVAAAAC8IFQAAwAtCBQAA8CIOFfE3VQAAAPTO5QhaKgAAgBfxN2q6hME3amKc9OfS08IwdLcWtoW6X9P6eADorOdv1FQzhApMgKTyuuaaa+zfxBFHHGH/LtTKbKHu17Q+HgC6R6iAqQ2KMltMzi5DqcxVzL+TTSuwpPJatWqV/Zs466yz7N/zzjtP1q9fb2/nq0pxtijVsCJzlfl7HJULUiiLlGo1KQVu5JB53S83pIJSTWpD3Ak/2+00PR+Hv+0A/Ok3VNCnYlpEZSkUxQSJOZnTUgskStdGEy5bgSkdlzc+XyCBOQblyA3WVaU8f+TI+NivUs09pqaMqlIeeLttoIhS216TsKrhbnyPBYDhI1RMiyiSKDAVqxs0p4VSmvBmiuSsOF1R7b333rakrVmzRpYuXeqGWjO7b9aZqbTMfVTDcKQtNr73a1T8bXdkglxVwkq6ZciEo0pJzISmlhcA04VQMS204jRn6sW8M0FtxZidlVlbtDndvOkXZhtnjXpWWSibsU7T/LNSb8HOzudZuvLKVmTdCEolCZoqLa3czNnymNPVoPs1Ln1vd2SCXGSej9nDHphxgQm/w3oCARg7QsXU0D4UcRNzUxAwVWyxYM4ak2boij1ZlFKt4ipgM10vm9RMhVyfvyxBxc1vxkfFQs5lhUmkFZnZo2TftXLTcaO5YjAkcQCcF/AmXbrVrAmhAphm9VDB919NA3f93QYBVwHpZZF0xWRGRvZd3YQQEzC0I6DeqJ9U2vlTZ5n2MoqrCLQjZD18+HfXXXe5W823exGWzL6bsKSbWzV/betFPGlsBtuv5j4VOf1Qh2ag7bbPozwmbCzokAcgK50faKmYRiYIVEqBvUYe01aMRsWU9wmJcdCPJurHFJNPFSitvLIV2F577dXdpw2UNrFr+0tVO22Op1/JUPZrBLxtt73MkWoxStjLIoQKYJoRKqaFrUTdbXOOqB0WA333ts3QeZ+AcJc99HqIuVF//3fzNy4hmPVWXcvFkPpUdP2Jgq6YM3sTqMrFstaSZmh8/O7X6Ay+3foYmGiXfl7p881+rrfUaBUDMHUIFdMiDCSqX3svSDmouI8fhra/hJTjvhbxJRATFApFiewbfGje5yP7hh+HhXh+vXxi57X9MYb3fRd6dqxnvlqykvE9n82HJSmZs2UNF+MylP0aAW/bbb8zRC+vueeRvcw2uo/EAhiP+pdf6TWRg/jyK4xR9mOKk1jp9mOh7te0Ph4AOuvly69uim7T773iy68wWbTSSpdpsVD3a6FuN4DxIVQAAAAvCBUAAMALQgUAAPCCUAEAALwgVAAAAC8IFQAAwAtCBQAA8IJQAQAAvCBUAAAAL/iabgxF4xdSge6deOKJfHsnMAH6/ZpuQgWGQkOFVhBArwgVwPjx2x8AAGCstkpaKQAAAPphc4T5h5YKAADgBaFialSlODsrs/VSkHLkJgEAMAKEiqkSSKk2J3Nzc1IriZSLZSFXAABGhVAxpYJSScKoKlVSBQBgRAgVi0VUlkL90khR4m+RiKRcaFwyKSZfLdE0b2p8tSizBVo/AAD5CBVTKiqXpRqEEgY6VJVioSqhuzQyVxEpa4eLalnKQSUeZ0olTOYtS1Bx89ZKEhXpnwEA6IxQMVUaLQ+FciAVEwhspogiMyXVKlGsmlEmJQSBBNWimTeVGOy8JozYgGEEJSmFZpzOEpoAkqwTAIAMQsVUaXTUnJurmGiQFkrFtUjYos0SJjDUzO2KFJsvcwAA0AdCxWKgLRJSjS955AhKNamVgkbrhZm3/tMdUVnKVddyQZ8KAEAbhIpFIbSXQqRcqHe+1EsgNiS4Yb1cUjLBIpk3Krr5bF+MbKsHAADzzSxbtueW5Gu6+UEx+MIPiqFf/KAYMH69/qCY0h8Vo6UCAAB4QagAAABeECoAAIAXhAoMBf0pAGDxoaMmAABo0ndHzSRQiDRuAQAAdCfOD/ovlz8AAIAXhAoAAODFzOyyPd11jy1yUHAAfSrghX75FdAr7eDLl18B49dbn4pbzS3tUUGowJDwjZroF6ECGL9+QwWXPwAAgBeECgAA4AWhAgAAeEGoWKCq+tPk+vPlTapSnC1IOXKDAACMEKFiIYrKJjiEEtq/btw8BAwAwGgRKhagSD+uGZakFOqnLEgNAIDJQKhYcCITJEymCAMJQpsqzJgsbaUomn8jKReSyyTZlov0cHy7WCzIrF3OjNHLK7OuJJdZqkWZLZRz7g8AAELFwhNVTaUfiskUYlKFuWWG59XyoVTmKubfQEq1OZmrmPDRUSRRUJE5u5xZQ8UsN6fFDFfbXWYBACBGqFhg4ksfGhdUoDelXHYtCQPRdcVrtbRVwrZUxC0XVmhCR63k7hsAgGaEigWlagJEJFFZL1PElyYK2oRggoaPWFEXlaVQFKnYloqalEgRAIAuECoWEg0PQUlqtrJPilb6ZnzHVBFIEJhAklzGaBdEzExRYOa3t1OXV+hTAQBog1CxgOjvaWjnzOaGg/iyxfwf8ArN+HRHzUBKpbDRAdOMatnTQj9ZImUp2E6akQkjbjwAAG3wg2IYCn5QDP3iB8WA8eMHxQAAwFgRKgAAgBeECgAA4AWhAkNBfwoAWHzoqAkAAJrQURMAAIwVoQIAAHhBqAAAAF64PhVxtwr6VMCX+d/wCXSmHXz58itg/HrvU6FmCBUYDr5RE/0iVADj12+o4PIHAADwglABAAC8IFQAAAAvxhwqqlLUn9dOlUI5ctOGTe+7IL3dndte+1Piaf2sq41If3bc4/oAABiBCWipCKRUm5O5OS0VCcqFnEo7y3Ml3pNAgqgoHTdxEEFJanM1KQVueKjGeSwBANNkwi5/hFKplSSoVk1VN7nCUkmiclmohwEAaJi8PhVBKGFgQoVLFdVi6vKIbR7QM+ui+TeScqFxKWL+fDnsZYV4nnmXWVLTtLRtiQhKUgrKUmxxep+/LW57560/b3y69cDdrja2T+eJtEXHDTftS9N+6HFSbh3lYmaZ/GPZ8lhUzfIFwhQAIN/Ed9QMK41LI6GpWMtRKBW9nVw2qYQt5rOjU0wFairEwM1XMcNJXZmdNlcrSVRsf0kgrOilmmLuPLnbon+Dihtv7t9utlbmBamGtcz4LDNfWcx+m3nMDBpaimYP7DJmWFtN6uGhUJUwuZxUEbNcsoFmHebYNS+Tdyx7PxYAAKgJDRWBBEl/Aj07tmfMyVl3C53miyKJtIXBVdpBqWQqU0enmaEwGWHnM+PaVqSmQq4EptLOube8bTE7FJjxza0KJtiYir7UsfOEqfQrJfOvYTZSQ0AYumXssNtWux+plo9i1YxK7s+sI9n59DJZdh0tjkVogoxenoqnAADQZPJCha1oXajQZviiO0Nv13Gx2/l8C02Fm+202WpbbOdLbSGJA0fTMl5p64NrZdCS3/QBAIB3ExYqkqZ3bZI39KxZz/DtbQ0beiNHN/PpdFPhJw0LjUsGhl3WLJeMsPOlztZbilsQomKqRaLDtgSlmtRM0oj01N/1H2lcohiQ24+B1tfuWNCnAgDQxgSEilRz/awJFLVUvwJtCRDXabAYxa0XllZybjk95W85X5peroj7I9iWAl2Hm2Kn2b4D8bRZ2y/BBZtOgpJU0k0jrbalfklEO0nqpQidoH0Z3Mdo3bTBWjDi/TAHpr6+lp1W6zLHcpBjAQBY1PhBMQwFPyiGfvGDYsD48YNiAABgrAgVAADAC0IFAADwoilUbHF9K4BB0Z8CAKZfNjc0ddQMgv3ljC9/zd7uBh01AQCYPt121DznpNdLFN3mhuioCQAAPCFUAAAALwgVAADAC/pUYCj0y6+AXmkHX778Chi/fvtUECowFHyjJvpFqADGj46aAABgrAgVAADACxMq4ksfAAAAgxhTS0VVirMFKUdusK7V+GHo5750mbyfE/e83ZH+dPqojgMAAH5w+aNngQRRUeblCp+CktTmalIK3PBQjTLIAQCmGaGiD2GpJFG5LNTDAAA0THaosJcBZmXWlUbrQHx2XSwWzPiiGTJjio355l+ecFLrK2RPzVveV46gJKWgLMUWp/f52xJJuZC3/rzx6dYDd7va2D6dJyrrvsfDTfvStB/xsamvo1zMLKPjdR63DclGtToWVbN8gTAFAMg3xlDRXJnGJakElanwTAUWVOZkbs6UWkkiEyIa9WckUVAx0yoSmqEwmU+HTQU8v75vXl/FDHd/X/OFlYoEppLOmyd3W/Sv3V53/7rR9hgUpBrWMuOzzHxlkYrOY2bQ0FI0e2CXMcPaalIPD4WqhLV4XebuzXLJBpp1RGFmmdCsU49fICVdxt5578cCAAA1xlDhKjKtuOolDghWZEKDGQqTEdo6EJpx9cotMNNSnQ70LHpeMEnR9dl1xINBqdTDfeUxFXIlMJV2zr3lbUsQSGDGN7cqmGBjKvpSx84T5lhVSuZfw2ykhoD6vttht612P1JhrVg1o5L7M+tIdj69TJZdR4tjEZogY0LGSLp6AAAWnOnoU6HN9UV3Jj+yDo5GaCrcbKfNVttiKueaGVeROHA0LeOVtj6kglp+0wcAAN5NbqjQM3tznl//CQlTWZerqTPoND27tvPrbT37t2Ob6XS7jniwccnA6OW+msQtCFEx1SLRYVuCUk1qJmnYFoTA3EdQTV2iGJDbj4HW1+5Y0KcCANDSlkluqTBn3PZ6vmvKt30FUpdH0rTFQFznwmKk9WIOvVwR90ewLQXaxO+m9HRfWUFJKummkVbbUr8kop0k9VKETtBLQNo3o9HpcrAWjHg/JLW+lp1W6zQwuEsmdt4BjgUAYFGbmV22R/0rNflBMfjCD4qhX/ygGDB+/f2g2LT0qQAAAGNHqAAAAF4QKgAAgBeECgwF/SkAYPGhoyYAAGhCR00AADBWhAoAAOAFoQIAAHhBqAAAAF4QKgAAgBeECgAA4AWhAgAAeEGoAAAAXhAqMDb6S6bpslBNy34AwKD4Rk2MXFLxXnPNNfZv4ogjjrB/wzC0fyfdtOwHAGTxjZpjVZXi7KzM1ktBypGbNBXS+1c0Q/3TilgrYS3nnXdeU0nGL1261M3dRrWYOt5um6KyFEZ07P3shzuuxewR1fGp/bD7NSt2tmp5yp5bAKYJocKbQEq1OZmbm5NaSaRcLMvo3/szlZEv1UgCt2+VsCplD3eglW+Wjlu1apUbakMr2aJIxWyPbtNcLZBIK9ygJLW5mpSCeLZRGGg/rECCqBgHhhZ030pmP8OqBhDzWIxw/wCgF4SKIQhKJQlNTWDq4ukQluoVdTBAjZac3edVxIm99tpL1qxZ0/4sP4okMttR3xITJkojvNKQtx8zMzO2JLraDyc0z5eo3DqE2ueT+RtWNERV7G0AmESEiqGLWw+KxUKmmT7TdJ+0MlQb0/TsNSrrcvFwIdVCUC0my5sSt4ub5XVdkZQL6XHplov0cKftcs3tadWiFKqhVEbZFJAnDE1oK0txXovJ/P3r9ngOIh0m0re7pqEoyNuf2PzH2un0eAHAiBEqhkDPOquBqfjqda+eWVfcWaap7ApVCd3lBDMqdTnBBIKya9avmDlNZVIUXS4etut1c8ZnrVrMOu11dlPZ2/W7yzBm/s6y21WWIFlvzZw9m8DR2DRTgZUDqZnxY44Uhu5rzex3HBBaV6bdH89xCysVCcrFVABsmP9Y69gOjxcAjAGhwhvXQmAqOa18K02Vb2BOrt2QNt2n5tUzz8iMi5lAUHHL6dl4ejk7bJZMZq13VExaOvqR3S5zH0kWsZcUUven09OXHMbOhSdbmbYKFj0czwFs2VL/AFXT7d6YoFQJTAjK2ZG8x7rT4wUAY0Co8KbRUbPzdW89007mNaWrVoUUbTWod1QcUcfE0Jzh97qdGfoRS/245WmnnebGzKf9ELQ/wvr1692YDkxlqpdjko93jkLefmiYSAeKnvdDad+VbKfNcTzWANAnQsWo2bP9AT9BkW41aNsh1MwTpM5eTcXbsup121Wvm01lVq6mzoTt9ftBWkUa9JMRWulm5Y3L1fSxyshss34iYvS17cD7MU/cshIVMy0SeY91p8cLAMaAUDFyob00IqkOg/O/p6ADPaMV10mv6SOGWqmkO2qaSqoU9yWw92NGta5z4u3SSwl2Xtvvo1OLS+/0LF/P4JNPR6RLMr7j2X0YSJRcPtLOmEFFaiM+hfeyH3lcy0tdm8d6FI8XAPSCb9TE2GQ/btlXJTwBpmU/ACDBN2piwdHKN10WqmnZDwAYFKECAAB4QagAAABeECoAAIAXhAoAAOAFoQIAAHhBqAAAAF4QKgAAgBeECgAA0L/U7ygSKgAAgBeECgAA4AWhAgAAeEGoAAAAXhAqAACAF4QKAADgBaECY1OtVpvKQjUt+wEAg5qZXbZH/AlT829w0P5yxpe/Zge7cfRuO7hbQPeSiveaa66xfxNHHHGE/RuGof076aZlPwAg64p7N7pb7Z1z0usluuk2kybiYVoqBlUtyuzsrCtF6XyeWpXibEHKkRv0KSpLYSjr1m3uZR9b04pYK2Et5513XlNJxi9dutTN3UbecR/a/s/nZz/ccS1mj2jmOWL3a1bsbNXySPYPAPpBqBiEvtkXRSpzczKnpRZINEiNO6igJLW5mpQCN+xLNZKgFu9jJaxK2UOtppVvlo5btWqVG2qj1XEf1v63MdB+WIEEUTEODC3ovpXMfoZVDSDmsRjh/gFALwgVg4giicw7fP093lRqpWls8Q7NfrmdDAao0ZKz+3RFPDMzY0tir732kjVr1rQ/yx/zcc/bj6yu9sMJSyWTk8rSKqoFZrruXljREFWxtwFgEhEqBhGGEpqz5mLembtrsk6a6OediaamF+rLx83exWIh06SfrEfHRVIuZNanlwIKWiklzebt5jHmrdPO0NzkPm/YMOsoVEOpeGoKSIeJ9O2OWh739Da729XGvurxiMp6bOPhxnEfMw1FQYvnkVEtJo+VKekHtdNzDABGjFAxEFPBztUkrMYVVeNN3VRopgIP7JmlNs+bM1ETFBp1hqn0y6753kyTcrFpWhRU3Bmprqcqobv0YEbZ5UrmtDzpJKj0tp7tNqr6oM08eevsonLVCqwcSM1sr59IMYhWxz0rdZwr5niYyrkoemzjYW0dmJR6OKxUJGh6HjTELRRazHOi3qei03MMAEaPUDEwU4FrBW3f1F0Fp83zpuKrd/63zfNmXP0N3yxTcZVzzrQwdNW2XU/c6pCcpUY6o56pm5AQV4jmb5TT/N9qnlbr7ESXS19y8GDLlsZP26VvdyfnuM+TOs56PNLH1g6bfZqYStgEpUpgQlDOjtQ7paY6ydrHsd1zDABGj1Dhi3lT18sC6daB7nSqCPSs3J2NujNsHVcq6Vm4WVavxZuaZX5l326evHV2EJoz/G7ma0M/YqkftzzttNPcmDhMpAOF9kPQ/gjr1693Yzro+7j3L28/snreD6V9V7KdNrWFqN4pdbSdUAGgV4SKQTR9vC8yFZv2zDfv+vaMvmqGk0lmvmrqrNLNG9/UVoT0tBS3nrzLE4EuoPdf1Usd+TVN7jwt12nGB6mAU2/lcOz1+9SZ8gD0kxFa6WbljcvV6riP2MD7MU/cshIVMy0S9jHT2/pcsWPrj2Pr5xgAjB6hYhBhIFFyGUE7BQYVqdnKO5SKa5a302wfhnSvfVMhmDPSeJpeF2/Voz9ej6Q6F9Y76gXafG8qFfu3hdx5Wq1Tg0fc78COM6OGUT/pWb6ewSefjkiXZHzHs/uWx310vOxHHtfyUqetF+I6ZDZ9nLTTcwwARo9v1MTYZD9u2VclPAGmZT8AIME3amLB0co3XRaqadkPABgUoQIAAHhBqAAAAF4QKgAAgBeECgAA4AWhAgAAeEGoAAAAXqRCRa+/vQAAANDID6kvv9oiwUEHDOXLr7JfDjSJ9Hcczj77bDcETJ+F8DpUvBaB8evty69uNWki/varkYUK/friSXXFFVfINddcwxsZptqkvw4Vr0VgMiyIULHTTju5MZNFf+GSNzJMu0l/HSpei8Bk6DdU0FETAAB4QagAAABeECoAAIAXhAoAAOAFoQIAAHhRDxWj/uqranFWCuXIDTnVoswWq26glaoUZwuSXRRAP/T1NCuzqdLxJdhKVJYCr01gcXIhYmwtFWEYShQ1v/vox8l0fPcIGMDgAinV5mRuLi6VXl6CaUFJanM1KQVuGMCiM77LH0EggQkRjZMic7samlDhBgEAwIIyxlBhAkSgQcINa8AwiaKeKWxTarsmWW2lKJp/IykXzDxuBr2sUm/KrS8Ut2gUiwUzXpcB0J5rBSwX66+n+HJl/Hprej3qZctC2UxpbjnktQgsPmPsqBlIGAb1SyDNlz7MG495kwoqrkm2VpLIvAk1X+YIpTJXMf+6plvXZhsmy+i0ajm1TCRRUInHuzEAlAvmNgCkK3ozPgrj15N5fUXlsplmXm+l0L5eE/a1WyqZKc14LQKLzxhDhTZWmLcU84Zk3mJMuAj0ikjMBI3IvN3UM0ZQklKo87jhdvSsad6bo4pDDICsdJ+KdEUfBwjLtiK616De1pZFO8H8jfT1aQea8VoEFp2xhgp7CUTflOwblLk96PuMXjIpilTsmyMdxoDhCE3YiKRcNiGjXJbIhIx5LzVei8CiNN5QYc9YRMrFsj37qb/vaCdOGzbcsHmDKnfTiVNbOOyyelvPoOxYAJ7FrYz6utTWjJzEwGsRWJTGHCriNyd962luDg2lYvtRuOu8haqEtbzrrxo0Uh01w5KUxHXwLEaNyykA2kj3qcj5/pg8SSuj/ZuD1yKwaNivqIh/pLTx0+dbtmyRg/jpczcGmD789DmAbvXy0+c33XSrzPDT5wAAwCdCBQAA8IJQAQAAvCBUAAAALwgVAADAC0IFAADwYmQfKb3wwgvd0GTiY2yYdgvhdah4LQLj1+9HSuNQYWKF/jOsUHHmmWe6W5ONNzJMs4XyOlS8FoHx6jlU6Ldf6f+jCBUAAGDh6DdU0KcCAAB4QagAAABeECoAAIAXhAoAAOAFoQIAAHhBqAAAAF4QKgAAgBeECgAA4AWhAgAAeEGoAAAAXhAqAACAF4QKAADgBaECAAB4QagAAABeECoAAIAXhAoAAOCFCxVb4j8AAAA9i3MELRUAAMALQgUAAPCCUAEAALwgVAAAAC8IFQAAwAtCBQAA8IJQAQAAvCBUAACAAc3YfwkVAADAC0IFAADwglABAAC8IFQAAAAvCBUAAMALQgUAAPCCUAEAALwgVAAAAC8IFQAAYEBb7L+ECgAA4AWhAgAAeEGoAAAAXhAqAACAF4QKAADgBaECAAB4QagAAABeECoAAIAXhAoAAOAFoQIAAHhBqAAAAF4QKgAAgBeECgAA4AWhAgAAeEGoAAAAXhAqAACAF4QKAADgBaECAAB4QagAAABeECoAAIAXhAoAAOAFoQIAAHhBqAAAAF4QKgAAgBeECgAA4AWhAgAAeEGoAAAAXhAqAACAF4QKAADgBaECAAB4QagAAABeECoAAIAXhAoAAOAFoQIAAHhhQ8UWexMAAKB/tFQAAAAvCBUAAMALQgUAAPCCUAEAALwgVAAAAC8IFQAAwAtCBQAA8IJQAQAAvLChYsbeBAAA6B8tFQAAwAtCBQAA8IJQAQAAvCBUAAAALwgVAADAC0IFAADwglABAAC8IFQAAAAvCBUAAMALQgUAAPCCUAEAALwgVAAAAC8IFQAAwAtCBQAA8IJQAQAAvCBUAAAALwgVAADAC0IFAAAY0Iz9l1ABAAC8IFQAAAAvCBUAAMALQgUAABjQFvuvCxVxBwsAAIDexTliZnbZHls0YOg/TzvgKfKOfzxfdlq23E4EAADI8+C6tfLZd/253HrbahMpTKgw/zdd/ti0ebPcd/tqNwQAAJBP84LmBstd8IhDRRwwZPPmR+S+O35rRwEAALSieUFzg8sTVlNLxfr1D8pPL6vKuvt+58YAAAA0W3ffvTYvbNjwkBsTS4WKGXn00Uflvnvukx9cepEbBwAA0OwHl37F5gXNDfVrH8bW222/00ftLXcJZOOmzbJ5/Zysvecu2W2/p8r2S5bYyQAAYHHTKxnf++I/yfVX/1ju+/0f4jgx0wgV8ac/Eu5TIDNmhmXLlspue+wmR/7342XZHnvLk/bdj0+FAACwyOinPLRT5n23/1Z++p2q3HvPvbJu3XrZssXkhaRFwsmECvvp0rptt91G9tlnL3lk82bZbvvt5Albb+2m5Esv68Pee+0pd6252w2N1o477CAPb9zohvL43tuU/XaVt+/ysNQ2LpPCHtvYUY/es0YuvOExe1tkGznmyL1kjye6wUfWSe2Hc/IrN2i2Xo5/2a4y64bU3K2r5RurRV54+H5y4OzDcvO//15+pBNWzMqJ/22ZSNP6W9jxpfLipy+XB379dbnu4XjUiie/Tg6fXSs/u+7/yAPxqNaHZseXyFH7i1x33fdlrRvljTlmb93lIbnGHLMjdnfH7Hd3y0WpY/bKI/eUPbZ1g4/OyTXmmN3gBkV2kONeuqssTW373G9ul2+tNsu9cE9ZsfZu+Wp6XfPGtbDj0fKig5fL2hu/Ide7Y7b8ycfLH5lj9vPrruh8HHR5c8yu72ZeYNhSlcf0Wzw722lPH3v8cdm86RHZ/MgjsmHDg/Loo433vQ6hQv9vrhFWrDCVyAOmukiNzs4zLM985mHyy19e74ZGa/myZbJ23To35IEJbF0rPE2+/sLlpqK/RV73VVOV7LenXHD8Sln9jevk4yYYHHvM0+RZN95ib4tsLx9+xzNkv9uvk5O/s6nl8LL/qsnptXj+D73jMDlk/a3y+q9usrf3u/16eaudt4P9Py5nHrJeLql+Qu5Iho/Y3dz4nfzw4g/LT3Sc0XJPV7xP/uIFIv9S/aTc7kZ5c8T+csnzzTH73a1ywiXmcdt3D/nCcSvk9m/+Sv7W3Nkxr9xfnnnTbfa2yHbyl//jMNnX7Pfbv6cfh5o/vOrUQ2X2Fz+XD/xM5FWvPFTe+OT75eLP/U6+q4s/eXezbvN4mHWfZQ9EG0/9K/ng0zfI1/7l0/Ex0+HD42N21aV/XT9mLS1/j7zj+SKX/cs/xMsDHi2ujLCo9tYLGxjiG878Y6hXNtKaPv2h889fxGmaoAN5BS3pge+6mP833iUXaaBQq9fK7Ru3l+W7xYOXfScJFGqTXHv7JlmyfPt48Ll7y6Ezd8m3UiEhWW1sk/zN/7xV7tljb/nwMWZeWSP/OzXvKc8qyddf2Vy+9or3yIfSXWtWvF/e9cYvmkAhJkxcJXfLUlm5wk0z9K7yi/l3x4PkBLPsKls+Ls/Lna91acns4Fab1sglGijU7evkzk071I/Zd76XBAq1Wa67Y7PstHyHeLCgx2yNfNsGipi+UJJj9t3vrZF7dlwpz9o3Hj7m4JWy471r6oHi7c88Qy55ebb8hfzljjrVrWf5e+WdbzhfSofPmDBxtdwjs7Kyq6uJZnlzzN6gy9ryUfljNwWLQ/r577ssePri6ragDT0+eaW9vDmaQ4WVN5sbl/qTV/LHtisTbJybZ14AW29lKsnUC2IrM7xipakEdfgpe8lXznyufNOVEw/Z3myuzldf3BY7nNxWyThZK6dftUkONcv9+rt3y2U6yjn/2rK87nvN5fX/9g/yN/qpIbOimSUHyxtfOSu/uPhtcra2TqzYVZbNbBBtzOrogU/IuXa5uFxyy6wcaYLFMCvJ2SRs7buHfOmMI+Rrrrzp6W58rvjYm0PurJPb7t1BnnKwLrO9PHu/GbnpJ41WrC/88hw54fJs+Uf5W73cMbOVCQUHywmvWCbXXnqKlC/9qDtmD8oD3VzPWPtp+axdLi5fu3WZHHnCx2wYA0YueQ8ZWjH/9FIWFd3f4ZT8sc78Gw05j4EJFZmRZjBnUcONzZ9o6aReSv7YRombVZKCdQ9oi8Jy+czr9ha54To5rlyz5aIbN5vQoXOY42SOmVaI6aeJHkcbUJJx++0plReKXPkjEyz+7GlyamrSqc9eJd94VbacLn+lLRVrN8jGmY1y4/c+JFcnyyyflSUbN8jdqXV0W+747V1mffGWdiuzikYx69Eglh6nQWzD2k3m9nL59J/tI1vdeL284ZxrbLlYj5mZKZ43OWaNZfWf9PDnf7NWluy3XI7dd7nsN/OAXHt7Y9opz/qgfP0V2fIe+bA5ZjPrNsjDM5vkxss/Yi912GWWuWOWDLcoeW5ffae4rhmLWt7xmtbSs7yV+Cq5I30W+JB3ZNuVluoT58+V/85t3kvdrWa2Aorl3qGOzCs9yltFuqjG7fSUbsqgfKyjf6mHQP7k2APlsCVr5eafxsNagc7ZgGGYgPCnh6TOuu99WB7ecaU5m44HT3vLM+RQ2wyf2F4++mqtYNfI52q3yg/uXSEvfYteu4iP2+euPVuO/162fFr++mEzfe31cvvDS+SQIz8o+9r5XyHhoXvKw2vMeLe8lucfXZEPvakixf0b4+YXs+yRB8uS3/2mEVC0mADzhUs+L5d84XQ5Jj2+U9E/5q89bqa82hyzQ3dcK7fYfiTx+PUmYFjmmB2nrTtuObnvYdm4pHHMTn3zM8zxTrdUGLU1cuPM3vKnx66UDb+4W77jRqvPX/t38vp/yxbXuvPAr+TOjeaYvfAMebKd++XyGnPMNt79q6Y+Es87+gJZ9aYL5MQD3AjD7UqqvFzCFz5ddrrvt42AskjLRMnbwHGW3JG+CvzJO76tS/7Y/NKzvJVoacFOyp0u8v8BnljeWJWUqOsAAAAASUVORK5CYII=;" vertex="1" parent="1">
                    <mxGeometry x="520.8199999999999" y="530" width="264.52" height="200" as="geometry"/>
                </mxCell>
                <mxCell id="30" value="Envia dados do médico" style="ellipse;whiteSpace=wrap;html=1;" vertex="1" parent="1">
                    <mxGeometry x="1140" y="440" width="120" height="60" as="geometry"/>
                </mxCell>
            </root>
        </mxGraphModel>
    </diagram>
</mxfile>